<?xml version="1.0" encoding="iso-8859-1"?>
<!-- Generator: Adobe Illustrator 16.0.0, SVG Export Plug-In . SVG Version: 6.00 Build 0)  -->
<!DOCTYPE svg PUBLIC "-//W3C//DTD SVG 1.1//EN" "http://www.w3.org/Graphics/SVG/1.1/DTD/svg11.dtd">
<svg version="1.1" id="Capa_1" xmlns="http://www.w3.org/2000/svg" xmlns:xlink="http://www.w3.org/1999/xlink" x="0px" y="0px"
	 width="481.888px" height="481.888px" viewBox="0 0 481.888 481.888" style="enable-background:new 0 0 481.888 481.888;"
	 xml:space="preserve">
<g>
	<path d="M481.888,147.936l-71.021,71.024c-24.378-24.375-54.946-53.076-51.931-68.777c-1.629-0.793-3.202-1.642-4.733-2.509
		c-0.771,1.021-1.593,2.005-2.518,2.936l-107.562,107.56c1.411,12.952-2.824,26.414-12.756,36.357l-155.3,155.296
		c-17.4,17.394-45.62,17.394-63.015,0c-17.401-17.402-17.401-45.622,0-63.022l155.295-155.29
		c9.927-9.933,23.393-14.18,36.357-12.763l107.551-107.563c1.57-1.562,3.283-2.873,5.089-3.989l-0.233-1.023
		c-0.248-0.95-0.536-1.661-0.834-2.468c-0.225-0.605-0.465-1.248-0.7-1.916c-0.285-0.651-0.567-1.352-0.859-2.068
		c-0.486-1.198-1.018-2.503-1.696-3.82l-1.854-3.789l-2.133-3.754c-0.896-1.721-1.9-3.212-3.059-4.93
		c-0.615-0.919-1.238-1.85-1.862-2.815c-0.574-0.744-1.149-1.51-1.732-2.291c-1.447-1.912-2.81-3.726-4.263-5.288l-1.031-1.127
		c-1.92-2.111-3.88-4.309-6.123-6.17c-0.728-0.637-1.274-1.143-1.825-1.641c-0.779-0.711-1.551-1.428-2.371-2.079l-4.361-3.166
		c-0.115-0.085-0.233-0.172-0.34-0.263c-1.743-1.395-3.845-2.571-6.062-3.817c-0.881-0.486-1.751-0.974-2.614-1.49
		c-1.885-1.193-3.819-1.977-5.86-2.802c-1.041-0.419-2.059-0.84-3.077-1.283c-0.606-0.241-1.226-0.498-1.82-0.766
		c-0.653-0.282-1.288-0.588-1.933-0.758l-4.781-1.338c-0.948-0.235-2.068-0.555-3.16-0.875c-1.575-0.457-3.063-0.889-4.081-1.023
		l-12.81-1.885c-1.866-0.263-3.523-1.135-4.782-2.398c-1.413-1.401-2.32-3.299-2.468-5.405c-0.28-3.984,2.26-7.629,6.089-8.747
		l12.602-3.63c2.205-0.667,4.533-1.011,6.785-1.34c1.002-0.145,2.035-0.301,3.108-0.493l5.543-0.859
		c1.731-0.28,3.365-0.317,4.805-0.351c0.568-0.02,1.148-0.03,1.74-0.063c1.43-0.022,2.484-0.074,3.562-0.118
		c3.223-0.129,6.872-0.273,10.748,0.235l2.452,0.197c3.729,0.306,7.942,0.648,12.219,1.68l6.832,1.379
		c2.106,0.509,3.86,1.053,5.626,1.602l2.139,0.666c4.963,1.374,9.637,3.34,14.146,5.245l0.618,0.257
		c3.874,1.615,7.4,3.497,10.804,5.313l2.829,1.502c0.197,0.102,0.375,0.208,0.562,0.319c1.097,0.682,2.199,1.35,3.296,2.012
		c2.959,1.787,6.018,3.635,8.849,5.743l4.726,3.378c0.126,0.091,0.586,0.418,0.695,0.514l4.691,3.737
		c1.251,0.978,2.424,1.968,3.521,2.937c8.422,1.401,16.515,5.313,23.018,11.813l10.001,10.006
		c4.602,4.608,8.938,11.077,12.486,18.333C428.802,93.002,450.134,116.182,481.888,147.936z"/>
</g>
<g>
</g>
<g>
</g>
<g>
</g>
<g>
</g>
<g>
</g>
<g>
</g>
<g>
</g>
<g>
</g>
<g>
</g>
<g>
</g>
<g>
</g>
<g>
</g>
<g>
</g>
<g>
</g>
<g>
</g>
</svg>
