<?xml version="1.0" encoding="utf-8"?>
<!-- Generator: Adobe Illustrator 19.0.0, SVG Export Plug-In . SVG Version: 6.00 Build 0)  -->
<svg version="1.1" id="Calque_1" xmlns="http://www.w3.org/2000/svg" xmlns:xlink="http://www.w3.org/1999/xlink" x="0px" y="0px"
	 viewBox="0 0 256 256" style="enable-background:new 0 0 256 256;" xml:space="preserve">
<style type="text/css">
	.st0{fill:#EE7763;}
	.st1{fill:#D85959;}
	.st2{fill:#9C3E53;}
	.st3{fill:#7A3448;}
	.st4{fill:url(#XMLID_3_);}
	.st5{fill:url(#XMLID_4_);}
	.st6{fill:url(#XMLID_9_);}
	.st7{fill:url(#XMLID_12_);}
	.st8{fill:url(#XMLID_13_);}
	.st9{fill:url(#XMLID_14_);}
	.st10{fill:url(#XMLID_16_);}
	.st11{fill:url(#XMLID_19_);}
	.st12{fill:url(#XMLID_22_);}
	.st13{fill:url(#XMLID_23_);}
	.st14{fill:url(#XMLID_24_);}
	.st15{fill:url(#XMLID_25_);}
	.st16{clip-path:url(#XMLID_26_);fill:#D6A050;}
	.st17{clip-path:url(#XMLID_26_);fill:#C47F32;}
	.st18{clip-path:url(#XMLID_26_);fill:#F2E193;}
	.st19{clip-path:url(#XMLID_27_);fill:#A94242;}
	.st20{clip-path:url(#XMLID_27_);fill:#C74F4F;}
	.st21{opacity:0.49;clip-path:url(#XMLID_27_);fill:#A94242;}
	.st22{clip-path:url(#XMLID_29_);fill:#9C3E53;}
	.st23{clip-path:url(#XMLID_29_);fill:#7A3448;}
	.st24{clip-path:url(#XMLID_29_);}
	.st25{opacity:0.33;fill:#65B0E2;}
	.st26{clip-path:url(#XMLID_29_);fill:#65B0E2;}
	.st27{clip-path:url(#XMLID_36_);fill:#D85959;}
	.st28{clip-path:url(#XMLID_36_);fill:#A94242;}
	.st29{clip-path:url(#XMLID_36_);fill:#C74F4F;}
	.st30{opacity:0.49;clip-path:url(#XMLID_36_);fill:#A94242;}
	.st31{clip-path:url(#XMLID_36_);}
	.st32{fill:#65B0E2;}
	.st33{fill:#F2E193;}
	.st34{fill:none;}
	.st35{fill:#C74F4F;}
	.st36{clip-path:url(#XMLID_37_);fill:#7A3448;}
	.st37{clip-path:url(#XMLID_37_);fill:#65B0E2;}
	.st38{clip-path:url(#XMLID_37_);fill:#CD5D5D;}
	.st39{clip-path:url(#XMLID_37_);}
	.st40{clip-path:url(#XMLID_38_);fill:#B78043;}
	.st41{clip-path:url(#XMLID_38_);fill:#D6A050;}
	.st42{clip-path:url(#XMLID_39_);fill:#D85959;}
	.st43{clip-path:url(#XMLID_39_);fill:#4BA4DC;}
	.st44{fill:#388CB7;}
	.st45{fill:#4BA4DC;}
	.st46{fill:url(#XMLID_40_);}
	.st47{fill:url(#XMLID_41_);}
	.st48{clip-path:url(#XMLID_42_);fill:#122237;}
	.st49{opacity:0.19;clip-path:url(#XMLID_42_);fill:#65B0E2;}
	.st50{clip-path:url(#XMLID_42_);fill:#65B0E2;}
	.st51{clip-path:url(#XMLID_42_);fill:none;stroke:#7A3448;stroke-width:0.6645;stroke-miterlimit:10;}
	.st52{clip-path:url(#XMLID_42_);fill:#7A3448;}
	.st53{clip-path:url(#XMLID_43_);fill:#65B0E2;}
	.st54{fill:#CD5D5D;}
	.st55{fill:url(#XMLID_44_);}
	.st56{fill:url(#XMLID_45_);}
	.st57{clip-path:url(#XMLID_46_);fill:#65B0E2;}
	.st58{clip-path:url(#XMLID_47_);fill:#65B0E2;}
</style>
<g id="XMLID_1_">
	<rect id="XMLID_145_" x="79.9" y="92.3" class="st0" width="2.2" height="33.7"/>
	<rect id="XMLID_154_" x="85.6" y="90.4" class="st0" width="2.2" height="33.7"/>
	<rect id="XMLID_155_" x="79.9" y="94.4" class="st1" width="1.2" height="30.3"/>
	<rect id="XMLID_158_" x="85.6" y="92.6" class="st1" width="1.2" height="30.3"/>
	<path id="XMLID_153_" class="st2" d="M82,96.4h-2c-0.3,0-0.5-0.2-0.5-0.5v-3.7c0-0.8,0.6-1.4,1.4-1.4h0.3c0.8,0,1.4,0.6,1.4,1.4
		v3.7C82.5,96.1,82.3,96.4,82,96.4z"/>
	<path id="XMLID_157_" class="st3" d="M80.8,96.4h-0.1c-0.6,0-1.2-0.5-1.2-1.2v-3.3c0-0.6,0.5-1.2,1.2-1.2h0.1V96.4z"/>
	<path id="XMLID_156_" class="st2" d="M87.7,94.6h-2c-0.3,0-0.5-0.2-0.5-0.5v-3.7c0-0.8,0.6-1.4,1.4-1.4h0.3c0.8,0,1.4,0.6,1.4,1.4
		v3.7C88.2,94.4,88,94.6,87.7,94.6z"/>
	<path id="XMLID_160_" class="st3" d="M86.5,94.6h-0.1c-0.6,0-1.2-0.5-1.2-1.2v-3.3c0-0.6,0.5-1.2,1.2-1.2h0.1V94.6z"/>
	<g id="XMLID_266_">
		
			<linearGradient id="XMLID_3_" gradientUnits="userSpaceOnUse" x1="105.6922" y1="-16326.4121" x2="105.6922" y2="-16274.7578" gradientTransform="matrix(1 0 0 -1 0 -16126)">
			<stop  offset="0.1688" style="stop-color:#3BB6AB"/>
			<stop  offset="0.3288" style="stop-color:#4DBBBA;stop-opacity:0.8075"/>
			<stop  offset="0.5854" style="stop-color:#60C2CD;stop-opacity:0.4988"/>
			<stop  offset="0.817" style="stop-color:#6BC6D8;stop-opacity:0.2202"/>
			<stop  offset="1" style="stop-color:#6EC7DC;stop-opacity:0"/>
		</linearGradient>
		<polygon id="XMLID_272_" class="st4" points="111.2,178.4 112.8,176.2 111.4,170.4 112.5,164.2 105.7,176.8 98.9,164.2 
			99.9,170.4 98.6,176.2 100.2,178.4 101.4,186.8 99.4,195.2 101.4,208.8 105.7,219.3 110,208.8 112,195.2 110,186.8 		"/>
		
			<linearGradient id="XMLID_4_" gradientUnits="userSpaceOnUse" x1="105.6922" y1="-16329.1943" x2="105.6922" y2="-16292.2861" gradientTransform="matrix(1 0 0 -1 0 -16126)">
			<stop  offset="0.1688" style="stop-color:#3EBDDF"/>
			<stop  offset="0.2481" style="stop-color:#47BFDE;stop-opacity:0.9046"/>
			<stop  offset="0.6678" style="stop-color:#65C5DD;stop-opacity:0.3997"/>
			<stop  offset="1" style="stop-color:#6EC7DC;stop-opacity:0"/>
		</linearGradient>
		<polygon id="XMLID_271_" class="st5" points="105.7,166.4 92.7,159.3 99.3,183 100.7,198.3 105.7,241.4 110.6,198.3 111.6,182.5 
			118.6,159.3 		"/>
		
			<linearGradient id="XMLID_9_" gradientUnits="userSpaceOnUse" x1="105.6922" y1="-16373.625" x2="105.6922" y2="-16274.6279" gradientTransform="matrix(1 0 0 -1 0 -16126)">
			<stop  offset="0.1688" style="stop-color:#6EC7DC"/>
			<stop  offset="1" style="stop-color:#6EC7DC;stop-opacity:0"/>
		</linearGradient>
		<polygon id="XMLID_270_" class="st6" points="105.7,162.9 97.2,164.2 102.8,178.6 105.7,256 108.6,178.6 114.2,164.2 		"/>
		
			<linearGradient id="XMLID_12_" gradientUnits="userSpaceOnUse" x1="105.6922" y1="-16340.8506" x2="105.6922" y2="-16267.376" gradientTransform="matrix(1 0 0 -1 0 -16126)">
			<stop  offset="0.1688" style="stop-color:#6EC7DC"/>
			<stop  offset="1" style="stop-color:#6EC7DC;stop-opacity:0"/>
		</linearGradient>
		<polygon id="XMLID_269_" class="st7" points="105.7,151.9 97.2,153.3 102.8,167.7 105.7,221.1 108.6,167.7 114.2,153.3 		"/>
		
			<radialGradient id="XMLID_13_" cx="-161.6978" cy="403.2355" r="17.986" gradientTransform="matrix(0.6751 0 0 1.9314 214.8606 -576.3967)" gradientUnits="userSpaceOnUse">
			<stop  offset="0.3586" style="stop-color:#3BB6AB"/>
			<stop  offset="0.5139" style="stop-color:#45B9B3;stop-opacity:0.758"/>
			<stop  offset="0.7832" style="stop-color:#5CC0C8;stop-opacity:0.338"/>
			<stop  offset="1" style="stop-color:#6EC7DC;stop-opacity:0"/>
		</radialGradient>
		<path id="XMLID_268_" class="st8" d="M115.5,168.7c0,15.4-4.4,74.1-9.8,74.1c-5.4,0-9.8-58.7-9.8-74.1s4.4,0.7,9.8,0.7
			C111.1,169.4,115.5,153.2,115.5,168.7z"/>
		
			<radialGradient id="XMLID_14_" cx="96.1377" cy="1111.2976" r="22.9383" gradientTransform="matrix(1.0871 0 0 0.8147 1.1817 -728.5355)" gradientUnits="userSpaceOnUse">
			<stop  offset="0.3586" style="stop-color:#3BB6AB"/>
			<stop  offset="0.5139" style="stop-color:#45B9B3;stop-opacity:0.758"/>
			<stop  offset="0.7832" style="stop-color:#5CC0C8;stop-opacity:0.338"/>
			<stop  offset="1" style="stop-color:#6EC7DC;stop-opacity:0"/>
		</radialGradient>
		<path id="XMLID_267_" class="st9" d="M125.8,158.7c0,8.3-9,39.9-20.1,39.9S85.6,167,85.6,158.7c0-8.3,9,0.4,20.1,0.4
			S125.8,150.4,125.8,158.7z"/>
	</g>
	<g id="XMLID_30_">
		
			<linearGradient id="XMLID_16_" gradientUnits="userSpaceOnUse" x1="158.121" y1="-16326.4121" x2="158.121" y2="-16274.7578" gradientTransform="matrix(1 0 0 -1 0 -16126)">
			<stop  offset="0.1688" style="stop-color:#3BB6AB"/>
			<stop  offset="0.3288" style="stop-color:#4DBBBA;stop-opacity:0.8075"/>
			<stop  offset="0.5854" style="stop-color:#60C2CD;stop-opacity:0.4988"/>
			<stop  offset="0.817" style="stop-color:#6BC6D8;stop-opacity:0.2202"/>
			<stop  offset="1" style="stop-color:#6EC7DC;stop-opacity:0"/>
		</linearGradient>
		<polygon id="XMLID_108_" class="st10" points="163.6,178.4 165.2,176.2 163.9,170.4 164.9,164.2 158.1,176.8 151.3,164.2 
			152.4,170.4 151,176.2 152.6,178.4 153.9,186.8 151.8,195.2 153.9,208.8 158.1,219.3 162.4,208.8 164.4,195.2 162.4,186.8 		"/>
		
			<linearGradient id="XMLID_19_" gradientUnits="userSpaceOnUse" x1="158.121" y1="-16329.1943" x2="158.121" y2="-16292.2861" gradientTransform="matrix(1 0 0 -1 0 -16126)">
			<stop  offset="0.1688" style="stop-color:#3EBDDF"/>
			<stop  offset="0.2481" style="stop-color:#47BFDE;stop-opacity:0.9046"/>
			<stop  offset="0.6678" style="stop-color:#65C5DD;stop-opacity:0.3997"/>
			<stop  offset="1" style="stop-color:#6EC7DC;stop-opacity:0"/>
		</linearGradient>
		<polygon id="XMLID_107_" class="st11" points="158.1,166.4 145.2,159.3 151.8,183 153.2,198.3 158.1,241.4 163.1,198.3 164,182.5 
			171.1,159.3 		"/>
		
			<linearGradient id="XMLID_22_" gradientUnits="userSpaceOnUse" x1="158.121" y1="-16373.625" x2="158.121" y2="-16274.6279" gradientTransform="matrix(1 0 0 -1 0 -16126)">
			<stop  offset="0.1688" style="stop-color:#6EC7DC"/>
			<stop  offset="1" style="stop-color:#6EC7DC;stop-opacity:0"/>
		</linearGradient>
		<polygon id="XMLID_34_" class="st12" points="158.1,162.9 149.6,164.2 155.2,178.6 158.1,256 161,178.6 166.6,164.2 		"/>
		
			<linearGradient id="XMLID_23_" gradientUnits="userSpaceOnUse" x1="158.121" y1="-16340.8506" x2="158.121" y2="-16267.376" gradientTransform="matrix(1 0 0 -1 0 -16126)">
			<stop  offset="0.1688" style="stop-color:#6EC7DC"/>
			<stop  offset="1" style="stop-color:#6EC7DC;stop-opacity:0"/>
		</linearGradient>
		<polygon id="XMLID_33_" class="st13" points="158.1,151.9 149.6,153.3 155.2,167.7 158.1,221.1 161,167.7 166.6,153.3 		"/>
		
			<radialGradient id="XMLID_24_" cx="-84.0415" cy="403.2355" r="17.986" gradientTransform="matrix(0.6751 0 0 1.9314 214.8606 -576.3967)" gradientUnits="userSpaceOnUse">
			<stop  offset="0.3586" style="stop-color:#3BB6AB"/>
			<stop  offset="0.5139" style="stop-color:#45B9B3;stop-opacity:0.758"/>
			<stop  offset="0.7832" style="stop-color:#5CC0C8;stop-opacity:0.338"/>
			<stop  offset="1" style="stop-color:#6EC7DC;stop-opacity:0"/>
		</radialGradient>
		<path id="XMLID_32_" class="st14" d="M167.9,168.7c0,15.4-4.4,74.1-9.8,74.1c-5.4,0-9.8-58.7-9.8-74.1s4.4,0.7,9.8,0.7
			C163.5,169.4,167.9,153.2,167.9,168.7z"/>
		
			<radialGradient id="XMLID_25_" cx="144.3661" cy="1111.2976" r="22.9383" gradientTransform="matrix(1.0871 0 0 0.8147 1.1817 -728.5355)" gradientUnits="userSpaceOnUse">
			<stop  offset="0.3586" style="stop-color:#3BB6AB"/>
			<stop  offset="0.5139" style="stop-color:#45B9B3;stop-opacity:0.758"/>
			<stop  offset="0.7832" style="stop-color:#5CC0C8;stop-opacity:0.338"/>
			<stop  offset="1" style="stop-color:#6EC7DC;stop-opacity:0"/>
		</radialGradient>
		<path id="XMLID_31_" class="st15" d="M178.2,158.7c0,8.3-9,39.9-20.1,39.9s-20.1-31.6-20.1-39.9c0-8.3,9,0.4,20.1,0.4
			C169.2,159.1,178.2,150.4,178.2,158.7z"/>
	</g>
	<g id="XMLID_28_">
		<defs>
			<path id="XMLID_11_" d="M145.1,72.1L144,33.9l-4.1-6.9l-6.5-6.1h-0.6h-0.8h0h-0.8h-0.7l-6.5,6.1l-4.1,6.9l-1.1,38.2l1.4,16.2
				l5.9-5.2c3.4-3,8.5-3,11.9,0l5.9,5.2L145.1,72.1z"/>
		</defs>
		<use xlink:href="#XMLID_11_"  style="overflow:visible;fill:#EAC65F;"/>
		<clipPath id="XMLID_26_">
			<use xlink:href="#XMLID_11_"  style="overflow:visible;"/>
		</clipPath>
		<polygon id="XMLID_18_" class="st16" points="130.4,21 129.4,50.3 120.3,49.9 125.4,24 		"/>
		<polygon id="XMLID_110_" class="st17" points="125.9,36.3 125.5,48.8 121.6,47.9 		"/>
		<polygon id="XMLID_122_" class="st16" points="135.8,23 135,40.5 140.5,47.2 139.2,22.6 		"/>
		<polygon id="XMLID_109_" class="st18" points="130.3,22 133.4,22 134.2,45.7 129.5,42.5 		"/>
	</g>
	<g id="XMLID_15_">
		<defs>
			<polygon id="XMLID_10_" points="119.9,0 124,2.5 124,5.4 125,6.4 125,8.9 126.5,10.2 127,39.7 124.2,43.1 123.4,96.2 
				106.3,104.7 105.7,26.8 118.3,3.2 116.9,2.1 			"/>
		</defs>
		<use xlink:href="#XMLID_10_"  style="overflow:visible;fill:#EE7763;"/>
		<clipPath id="XMLID_27_">
			<use xlink:href="#XMLID_10_"  style="overflow:visible;"/>
		</clipPath>
		<polygon id="XMLID_17_" class="st19" points="117.4,1.6 118.7,2.5 118.3,3.2 115.6,2.4 116.6,0.9 		"/>
		<polygon id="XMLID_35_" class="st20" points="107.5,60 106.3,26.5 114.1,11.1 104.2,26.4 104.7,62.6 		"/>
		<polygon id="XMLID_60_" class="st20" points="124.1,43.1 124.7,16.3 125.2,43 		"/>
		<polygon id="XMLID_61_" class="st20" points="124,4 124,11.2 124.4,5.8 		"/>
		<polygon id="XMLID_62_" class="st20" points="125,8.1 125,13 125.5,8.6 		"/>
		<polygon id="XMLID_63_" class="st20" points="121.4,94.4 119.5,70.1 109.4,58.8 104.9,58.2 104.3,61.3 119.8,95.7 		"/>
		<polygon id="XMLID_21_" class="st20" points="117.4,94.5 124.8,91.5 125.6,99.4 116.9,100.7 		"/>
		<polygon id="XMLID_68_" class="st20" points="108.2,59.2 103.4,56.4 104.4,60.6 		"/>
		<polygon id="XMLID_116_" class="st19" points="124.1,45.9 112.4,92.4 121.3,100.1 127.4,93.6 		"/>
		<polygon id="XMLID_126_" class="st21" points="123.8,91.7 118.3,92.7 119,100.9 124.2,97.7 		"/>
	</g>
	<g id="XMLID_64_">
		<defs>
			<path id="XMLID_8_" d="M107.8,59.2l-13.1,4.8c-0.6,0.2-1.1,0.8-1.1,1.5l-2.4,32.2c0,0,0,0.1,0,0.1L90,164.2
				c0,0.3,0.1,0.6,0.2,0.9l7.7,13.3c0.3,0.5,0.9,0.8,1.5,0.8h10.3c0.5,0,0.9-0.2,1.2-0.5l7-7.5c0.3-0.3,0.4-0.7,0.5-1.1l0.6-15.7
				c0-0.4,0.2-0.8,0.5-1.1l2.6-2.8c0.3-0.3,0.5-0.8,0.5-1.2L119,70.9c0-0.4-0.2-0.7-0.4-1l-8.9-10.2
				C109.2,59.1,108.5,58.9,107.8,59.2z"/>
		</defs>
		<use xlink:href="#XMLID_8_"  style="overflow:visible;fill:#B04356;"/>
		<clipPath id="XMLID_29_">
			<use xlink:href="#XMLID_8_"  style="overflow:visible;"/>
		</clipPath>
		<path id="XMLID_65_" class="st22" d="M112,60c0,0-3.6-1-3.6,0s1.1,122,1.1,122L85,178.3V154l0.8-71.1l5.4-21.7l11.8-2.3l9-1V60z"
			/>
		<polygon id="XMLID_66_" class="st23" points="96.7,146.3 89.5,161.8 88.7,114.4 97.5,120.7 		"/>
		<path id="XMLID_152_" class="st23" d="M95.8,157.2c0-0.2-0.1-0.3-0.2-0.4c-2.6-0.5-4.8-0.1-6.5,1.2c-2.4,1.8-3.1,4.6-3.2,5.6
			c0,0.2,0.1,0.3,0.3,0.3l0,0c0.2,0,0.3-0.1,0.3-0.2c0.2-0.9,0.8-3.6,3-5.2c1.6-1.2,3.6-1.5,6.1-1.1
			C95.6,157.5,95.8,157.4,95.8,157.2L95.8,157.2z"/>
		<path id="XMLID_149_" class="st23" d="M92.2,156.9c0-0.2-0.1-0.3-0.2-0.4c-2.6-0.5-4.8-0.1-6.5,1.2c-2.4,1.8-3.1,4.6-3.2,5.6
			c0,0.2,0.1,0.3,0.3,0.3l0,0c0.2,0,0.3-0.1,0.3-0.2c0.2-0.9,0.8-3.6,3-5.2c1.6-1.2,3.6-1.5,6.1-1.1C92,157.2,92.1,157.1,92.2,156.9
			L92.2,156.9z"/>
		<g id="XMLID_131_" class="st24">
			<path id="XMLID_127_" class="st25" d="M89.1,135.5l19.3,0.8c0.4,0,0.7-0.1,1.1-0.2l12.6-5.2l4.6,44.4l-31.5,8.7
				c0,0-13.9-24.5-13.8-25.6C81.7,157.2,89.1,135.5,89.1,135.5z"/>
			<path id="XMLID_130_" class="st25" d="M89.1,147.9l19.3,0.8c0.4,0,0.7-0.1,1.1-0.2l12.6-5.2l4.6,44.4l-31.5,8.7
				c0,0-13.9-24.5-13.8-25.6C81.7,169.6,89.1,147.9,89.1,147.9z"/>
		</g>
		<path id="XMLID_96_" class="st26" d="M123.1,147.7l-5,5.2c-0.2,0.2-0.3,0.4-0.3,0.7l-0.5,15.3c0,0.2-0.1,0.5-0.3,0.7l-6.8,7.2
			c-0.2,0.2-0.5,0.3-0.7,0.3h-9.9c-0.3,0-0.7-0.2-0.9-0.5l-9-14.6l-0.9,6.8l8.6,12l14.6-0.3l9-10.1L123.1,147.7z"/>
		<polygon id="XMLID_119_" class="st22" points="118.8,68.2 114.3,81 119.8,89 		"/>
	</g>
	<g id="XMLID_70_">
		<defs>
			<polygon id="XMLID_71_" points="144,0 140,2.5 140,5.4 139,6.4 139,8.9 137.3,10.1 136.8,39.6 139.7,43.1 140.4,96.2 
				157.5,104.7 158.1,26.8 145.5,3.2 147,2.1 			"/>
		</defs>
		<use xlink:href="#XMLID_71_"  style="overflow:visible;fill:#EE7763;"/>
		<clipPath id="XMLID_36_">
			<use xlink:href="#XMLID_71_"  style="overflow:visible;"/>
		</clipPath>
		<polygon id="XMLID_79_" class="st27" points="146.4,1.6 145.1,2.5 145.5,3.2 148.2,2.4 147.2,0.9 		"/>
		<polygon id="XMLID_78_" class="st27" points="156.3,60 157.5,26.5 149.8,11.1 159.6,26.4 159.1,62.6 		"/>
		<polygon id="XMLID_76_" class="st28" points="140.2,3.8 140,23.8 139.6,5.6 		"/>
		<polygon id="XMLID_75_" class="st28" points="139.1,8.1 139.2,23.4 137.9,8.9 		"/>
		<polygon id="XMLID_136_" class="st28" points="139.2,43.7 139.2,22.5 139.7,43.1 		"/>
		<polygon id="XMLID_74_" class="st29" points="136.5,99.8 136.9,75.5 145.7,70.3 159.4,60.9 159.5,61.3 143.5,100.4 		"/>
		<polygon id="XMLID_129_" class="st30" points="140,91.7 145.6,92.7 144.8,100.9 139.7,97.7 		"/>
		<g id="XMLID_166_" class="st31">
			<path id="XMLID_165_" class="st32" d="M149.5,42.8c2.4,0.4,4.1,2.8,4.2,5.6c0,2.8-1.8,5.5-4.3,5.9c-2.9,0.5-5.6-1.9-5.7-5.5
				c0-3.5,2.4-6.1,5.3-6c-3.6-0.2-7,3.2-6.9,7.8c0.1,4.7,3.7,7.6,7.4,6.7c3.1-0.8,5.3-4.1,5.3-7.6C154.6,46.3,152.5,43.3,149.5,42.8
				z"/>
			<path id="XMLID_164_" class="st33" d="M152.1,49.4c0,1.8-1.2,3.4-2.7,3.6c-1.7,0.3-3.2-1.2-3.3-3.3c0-2.1,1.5-3.7,3.2-3.7
				C150.8,46.1,152.1,47.6,152.1,49.4z"/>
			<g id="XMLID_159_">
				<path id="XMLID_162_" class="st34" d="M148.9,44.3l0,0.3L148.9,44.3c-1.9,0.1-3.6,2-3.5,4.4c0,2.6,1.9,4.4,4,4.1
					c1.9-0.3,3.3-2.2,3.3-4.4c0-2-1.2-3.7-2.9-4.1l0,0.3l0-0.3c-0.1,0-0.3-0.1-0.4-0.1C149.1,44.3,149,44.3,148.9,44.3z"/>
				<g id="XMLID_167_">
					<path id="XMLID_168_" class="st35" d="M149,39.2l-0.1,4.3l0,0.8l0,0.1c-1.9,0.1-3.6,2-3.5,4.4c0,0.6,0.1,1.1,0.3,1.6
						c0-0.2,0-0.4-0.1-0.6c0-2.4,1.7-4.3,3.7-4.2c1.8,0.1,3.2,1.8,3.2,3.8c0,0.2,0,0.3,0,0.5c0.1-0.4,0.2-0.9,0.2-1.4
						c0-2-1.2-3.7-2.9-4.1l0-0.2c0,0,0,0,0,0l0-0.4l0.1-3.9h0.2v-0.5l0.4-1l-2.1-0.5L149,39.2L149,39.2z"/>
					<path id="XMLID_169_" class="st35" d="M145.8,51.3c-0.4-0.7-0.7-1.6-0.7-2.5c0-2.5,1.6-4.4,3.5-4.6l0-0.7l0-4.3l-0.7-1.3
						l-0.7-0.2l0.9,1.3l0,4.5c-2,0.4-3.6,2.5-3.6,5.1c0,3,2.2,5.1,4.6,4.9C147.7,53.7,146.4,52.8,145.8,51.3z"/>
					<path id="XMLID_170_" class="st35" d="M150.3,43.8l0-4.3l0.7-0.9l-0.5-0.1l-0.6,1l0,4.2l0,0.7c1.7,0.5,2.8,2.2,2.9,4.2
						c0,0.8-0.2,1.5-0.5,2.2c-0.4,1.4-1.4,2.5-2.7,2.8c2.1-0.5,3.6-2.7,3.6-5.1C153.1,46.4,152,44.5,150.3,43.8z"/>
				</g>
			</g>
		</g>
	</g>
	<g id="XMLID_178_">
		<path id="XMLID_186_" class="st35" d="M113.9,42.8c-2.4,0.4-4.1,2.8-4.2,5.6c0,2.8,1.8,5.5,4.3,5.9c2.9,0.5,5.6-1.9,5.7-5.5
			c0-3.5-2.4-6.1-5.3-6c3.6-0.2,7,3.2,6.9,7.8c-0.1,4.7-3.7,7.6-7.4,6.7c-3.1-0.8-5.3-4.1-5.3-7.6C108.8,46.3,110.9,43.3,113.9,42.8
			z"/>
		<path id="XMLID_185_" class="st35" d="M111.4,49.4c0,1.8,1.2,3.4,2.7,3.6c1.7,0.3,3.2-1.2,3.3-3.3c0-2.1-1.5-3.7-3.2-3.7
			C112.6,46.1,111.4,47.6,111.4,49.4z"/>
		<g id="XMLID_179_">
			<path id="XMLID_184_" class="st34" d="M114.6,44.3l0,0.3L114.6,44.3c1.9,0.1,3.6,2,3.5,4.4c0,2.6-1.9,4.4-4,4.1
				c-1.9-0.3-3.3-2.2-3.3-4.4c0-2,1.2-3.7,2.9-4.1l0,0.3l0-0.3c0.1,0,0.3-0.1,0.4-0.1C114.3,44.3,114.4,44.3,114.6,44.3z"/>
			<g id="XMLID_180_">
				<path id="XMLID_183_" class="st35" d="M115,39.2l-0.2,4.3l-0.1,0.8l0,0.1c1.9,0.1,3.5,2,3.5,4.4c0,0.6-0.1,1.1-0.3,1.6
					c0-0.2,0-0.4,0-0.6c0-2.4-1.7-4.3-3.7-4.2c-1.8,0.1-3.2,1.8-3.2,3.8c0,0.2,0,0.3,0,0.5c-0.1-0.4-0.2-0.9-0.2-1.4
					c0-2,1.2-3.7,2.9-4.1l0-0.2c0,0,0,0,0,0l0-0.4l0-3.9h0.2v-0.5l-0.7-1l2.3-0.5L115,39.2L115,39.2z"/>
				<path id="XMLID_182_" class="st35" d="M117.6,51.3c0.4-0.7,0.7-1.6,0.7-2.5c0-2.5-1.6-4.4-3.5-4.6l0-0.7l0-4.3l0.7-1.3l0.7-0.2
					l-0.9,1.3l0,4.5c2,0.4,3.6,2.5,3.6,5.1c0,3-2.2,5.1-4.6,4.9C115.7,53.7,117,52.8,117.6,51.3z"/>
				<path id="XMLID_181_" class="st35" d="M113.1,43.8l0-4.3l-0.7-0.9l0.5-0.1l0.6,1l0,4.2l0,0.7c-1.7,0.5-2.8,2.2-2.9,4.2
					c0,0.8,0.2,1.5,0.5,2.2c0.4,1.4,1.4,2.5,2.7,2.8c-2.1-0.5-3.6-2.7-3.6-5.1C110.3,46.4,111.4,44.5,113.1,43.8z"/>
			</g>
		</g>
	</g>
	<g id="XMLID_5_">
		<defs>
			<path id="XMLID_6_" d="M156,59.2l13.1,4.8c0.6,0.2,1.1,0.8,1.1,1.5l2.4,32.2c0,0,0,0.1,0,0.1l1.2,66.5c0,0.3-0.1,0.6-0.2,0.9
				l-7.7,13.3c-0.3,0.5-0.9,0.8-1.5,0.8h-10.3c-0.5,0-0.9-0.2-1.2-0.5l-7-7.5c-0.3-0.3-0.4-0.7-0.5-1.1l-0.6-15.7
				c0-0.4-0.2-0.8-0.5-1.1l-2.6-2.8c-0.3-0.3-0.5-0.8-0.5-1.2l3.5-78.3c0-0.4,0.2-0.7,0.4-1l8.9-10.2
				C154.6,59.1,155.3,58.9,156,59.2z"/>
		</defs>
		<use xlink:href="#XMLID_6_"  style="overflow:visible;fill:#B04356;"/>
		<clipPath id="XMLID_37_">
			<use xlink:href="#XMLID_6_"  style="overflow:visible;"/>
		</clipPath>
		<path id="XMLID_69_" class="st36" d="M158,59.4c0,0-2.5-0.4-2.5,0.7s-2,121.9-2,121.9l-22.5-3.9v-24.3l0.7-71.1l5.3-21.7l12-2.3
			l9.1-1V59.4z"/>
		<polygon id="XMLID_67_" class="st36" points="165.3,111.2 169.6,115 168.2,80.2 165.3,84.9 		"/>
		<path id="XMLID_100_" class="st37" d="M140.6,147.7l5,5.2c0.2,0.2,0.3,0.4,0.3,0.7l0.5,15.3c0,0.2,0.1,0.5,0.3,0.7l6.8,7.2
			c0.2,0.2,0.5,0.3,0.7,0.3h9.9c0.3,0,0.7-0.2,0.9-0.5l9-14.6l0.9,6.8l-8.6,12l-14.6-0.3l-9-10.1L140.6,147.7z"/>
		<path id="XMLID_111_" class="st38" d="M154.3,169.6l-0.1,0c-0.3,0-0.6-0.3-0.5-0.6l1.2-63.9c0-0.3,0.3-0.6,0.6-0.5l0.1,0
			c0.3,0,0.6,0.3,0.5,0.6l-1.2,63.9C154.8,169.3,154.6,169.6,154.3,169.6z"/>
		<g id="XMLID_132_" class="st39">
			<path id="XMLID_134_" class="st25" d="M174.5,135.5l-19.3,0.8c-0.4,0-0.7-0.1-1.1-0.2l-12.6-5.2l-4.6,44.4l31.5,8.7
				c0,0,13.9-24.5,13.8-25.6C181.9,157.2,174.5,135.5,174.5,135.5z"/>
			<path id="XMLID_133_" class="st25" d="M174.5,147.9l-19.3,0.8c-0.4,0-0.7-0.1-1.1-0.2l-12.6-5.2l-4.6,44.4l31.5,8.7
				c0,0,13.9-24.5,13.8-25.6S174.5,147.9,174.5,147.9z"/>
		</g>
	</g>
	<g id="XMLID_137_">
		<defs>
			<path id="XMLID_20_" d="M90.8,117.4l-2,0.1c-0.1,0-0.3,0.1-0.3,0.2l-4.4,4.9c0,0.1-0.2,0.2-0.3,0.2l-5.7-0.2
				c-0.2,0-0.4,0.1-0.3,0.3l0.1,5.2c0,0.2,0.2,0.3,0.3,0.3h3.2c0.2,0,0.3,0.1,0.3,0.3l-0.5,1.5c0,0.2-0.1,0.3-0.3,0.3l-2.6,0
				c-0.2,0-0.3,0.2-0.3,0.3l0,0.7c0,0,0,0,0,0l0.8,5.2c0,0,0,0.1,0.1,0.1l4.6,7.7c0,0,1.6,3.9,1.6,3.9l5.4,3.6l0-2.7l6.3-3.2
				c0.1-0.1,0.2-0.2,0.2-0.3l0.8-25.6c0-0.2-0.1-0.3-0.3-0.3C97.3,120.3,90.9,117.4,90.8,117.4z"/>
		</defs>
		<use xlink:href="#XMLID_20_"  style="overflow:visible;fill:#EAC65F;"/>
		<clipPath id="XMLID_38_">
			<use xlink:href="#XMLID_20_"  style="overflow:visible;"/>
		</clipPath>
		<path id="XMLID_139_" class="st40" d="M88.8,144.1l8.2,2.4l-7,6.8l-7.6-5.8l0.7-3.2l5.4-0.1C88.6,144,88.7,144.1,88.8,144.1z"/>
		<path id="XMLID_135_" class="st41" d="M90.8,117.4l-2.2,26.3c0,0.2-0.1,0.3-0.3,0.3l-5,0.8c-0.1,0-0.2,0-0.3,0l-4.7-0.2l-0.5-22.4
			l13.6-7.9L90.8,117.4z"/>
		<polygon id="XMLID_138_" class="st40" points="84.1,122.7 78.6,137.2 75.8,132.9 83,121.6 		"/>
		<path id="XMLID_141_" class="st40" d="M77.8,127.6c0,0,0,0.2,0.2,0.2c0.2,0,3.3,0,3.3,0c0.2,0,0.4,0.1,0.4,0.3l-0.1,0.8l-4,0
			L77.8,127.6z"/>
		<path id="XMLID_150_" class="st40" d="M93.6,158.1c0,0.2-0.2,0.3-0.4,0.3c-2.9-0.7-5-2.1-6.2-4.1c-1.7-2.9-1.1-6.1-0.8-7.2
			c0-0.2,0.2-0.3,0.4-0.2l0,0c0.2,0.1,0.3,0.2,0.2,0.4c-0.2,1-0.8,4,0.7,6.7c1.1,1.9,3,3.2,5.8,3.8
			C93.5,157.7,93.6,157.9,93.6,158.1L93.6,158.1z"/>
		<path id="XMLID_151_" class="st40" d="M99.6,153.7c0,0.2-0.1,0.4-0.3,0.4c-3,0.5-5.4,0-7.3-1.5c-2.6-2-3.3-5.2-3.5-6.3
			c0-0.2,0.1-0.4,0.3-0.4l0,0c0.2,0,0.3,0.1,0.4,0.3c0.2,1,0.8,4,3.2,5.9c1.7,1.3,4,1.8,6.8,1.3C99.4,153.4,99.6,153.5,99.6,153.7
			L99.6,153.7z"/>
	</g>
	<g id="XMLID_80_">
		<defs>
			<path id="XMLID_7_" d="M168.7,80.1l4.9,4c0.1,0,0.1,0.1,0.1,0.2l0.9,19.3c0,0.1,0,0.1,0.1,0.2l3.6,3c0.1,0.1,0.1,0.3,0,0.4
				l-4.9,5.6c0,0,0,0,0,0l-1.1,2c0,0.1-0.1,0.1-0.2,0.1h-2.1c-0.1,0-0.2-0.1-0.3-0.2l-1.4-34.4C168.2,80.1,168.5,80,168.7,80.1z"/>
		</defs>
		<use xlink:href="#XMLID_7_"  style="overflow:visible;fill:#65B0E2;"/>
		<clipPath id="XMLID_39_">
			<use xlink:href="#XMLID_7_"  style="overflow:visible;"/>
		</clipPath>
		<polygon id="XMLID_72_" class="st42" points="168.4,84.1 172.9,87.2 173.8,86.9 173.8,88.5 172.9,88.8 168.5,86.1 		"/>
		<polygon id="XMLID_81_" class="st42" points="168.6,88.9 173.1,91.9 174.1,91.5 174.2,93.1 173.1,93.6 168.6,90.8 		"/>
		<polygon id="XMLID_82_" class="st42" points="168.8,93.7 173.3,96.7 174.3,96.3 174.4,97.8 173.3,98.3 168.8,95.6 		"/>
		<path id="XMLID_83_" class="st43" d="M173.9,84.1l-0.7,0.1c-0.1,0-0.2,0.1-0.2,0.2l0.4,19.5c0,0.1,0.1,0.2,0.2,0.2l1.1-0.5
			l4.1,3.4l-0.6,0.1l-5.6,5.8c-0.1,0.1,0.2-0.3,0.1-0.2l-0.7,1.4c-0.1,0.2-0.1,0.4,0,0.5l0.8,0.1l-3.5,1c0,0-2.8-36.5-2.5-36.6
			c0.2-0.1,3.9,0.3,4.1,0.3C171.2,79.6,173.9,84.1,173.9,84.1z"/>
		<polygon id="XMLID_84_" class="st43" points="174.8,103.6 173.5,104.2 178.5,107.3 178.4,106.9 		"/>
		<polygon id="XMLID_86_" class="st43" points="169.2,79.5 167.9,80 173.1,84.3 174.3,84.2 		"/>
	</g>
	<g id="XMLID_91_">
		<polygon id="XMLID_95_" class="st44" points="142.9,104.6 143.9,105 153.9,100.4 169.2,104.8 169.8,103.9 153,98.1 143.3,103.9 		
			"/>
		<polygon id="XMLID_94_" class="st45" points="169.7,102.2 153.3,97.6 143.2,102.7 143,104.6 153.5,99.4 169.8,103.9 		"/>
		<polygon id="XMLID_93_" class="st45" points="153.3,97.6 153.5,99.4 143,104.6 143.2,102.7 		"/>
		<polygon id="XMLID_92_" class="st45" points="153.5,99.4 153.9,100.4 143.9,105 143,104.6 		"/>
	</g>
	<g id="XMLID_90_">
		<polygon id="XMLID_87_" class="st44" points="142.9,90.2 143.9,90.6 153.9,86 168.6,90.3 169.1,89.4 153,83.7 143.3,89.5 		"/>
		<polygon id="XMLID_85_" class="st45" points="169,87.7 153.6,83.3 143.2,88.2 143,90.2 153.5,84.9 169.1,89.4 		"/>
		<polygon id="XMLID_88_" class="st45" points="153.6,83.3 153.5,84.9 143,90.2 143.2,88.2 		"/>
		<polygon id="XMLID_89_" class="st45" points="153.5,84.9 153.9,86 143.9,90.6 143,90.2 		"/>
	</g>
	<polygon id="XMLID_97_" class="st45" points="165.9,103.9 165.8,101.1 169.7,102.2 169.8,103.9 169.2,104.8 	"/>
	<polygon id="XMLID_98_" class="st45" points="165.4,89.3 165.3,86.7 169,87.7 169.1,89.4 168.6,90.3 	"/>
	
		<linearGradient id="XMLID_40_" gradientUnits="userSpaceOnUse" x1="101.0346" y1="-16173.6875" x2="125.5245" y2="-16138.0547" gradientTransform="matrix(1 0 0 -1 0 -16126)">
		<stop  offset="9.803922e-003" style="stop-color:#EE7763;stop-opacity:0.2"/>
		<stop  offset="0.7059" style="stop-color:#C74F4F;stop-opacity:0.7647"/>
		<stop  offset="1" style="stop-color:#7A3448"/>
	</linearGradient>
	<path id="XMLID_99_" class="st46" d="M122.7,8.9L122.2,33c0,0.5-0.2,0.9-0.6,1.2l-12.7,9.4c-0.5,0.3-1.1,0-1.1-0.5l-0.4-15.2
		c0-0.3,0.1-0.5,0.2-0.7l11.2-21.8l2.8-0.3L122.7,8.9z"/>
	
		<linearGradient id="XMLID_41_" gradientUnits="userSpaceOnUse" x1="-96.1538" y1="14.778" x2="-81.679" y2="38.9583" gradientTransform="matrix(-1 0 0 1 58.8911 0)">
		<stop  offset="9.803922e-003" style="stop-color:#EE7763;stop-opacity:0.2"/>
		<stop  offset="0.331" style="stop-color:#C74F4F;stop-opacity:0.7647"/>
		<stop  offset="0.5304" style="stop-color:#A5444F;stop-opacity:0.8348"/>
		<stop  offset="0.7173" style="stop-color:#8D3B4C;stop-opacity:0.9006"/>
		<stop  offset="0.8799" style="stop-color:#7F3649;stop-opacity:0.9578"/>
		<stop  offset="1" style="stop-color:#7A3448"/>
	</linearGradient>
	<path id="XMLID_102_" class="st47" d="M141.4,8.9l0.5,24.1c0,0.5,0.2,0.9,0.6,1.2l12.7,9.4c0.5,0.3,1.1,0,1.1-0.5l0.4-15.1
		c0-0.3-0.1-0.6-0.2-0.9L145.3,5.3L142.5,5L141.4,8.9z"/>
	<g id="XMLID_105_">
		<defs>
			<path id="XMLID_103_" d="M129.9,41.3l-5.8,4.5l-2.5,39.1l10.4-0.6l10.2,0.6l-2.4-39.1l-5.7-4.4C132.8,40.4,131.1,40.4,129.9,41.3
				z"/>
		</defs>
		<use xlink:href="#XMLID_103_"  style="overflow:visible;fill:#153354;"/>
		<clipPath id="XMLID_42_">
			<use xlink:href="#XMLID_103_"  style="overflow:visible;"/>
		</clipPath>
		<polygon id="XMLID_112_" class="st48" points="141.3,73 137.5,73.4 137.9,82.9 143.4,85.5 		"/>
		<polygon id="XMLID_117_" class="st48" points="131.7,40 123.1,45.4 120.8,84.9 131.8,79.2 		"/>
		<polygon id="XMLID_118_" class="st49" points="132,60.8 141.4,68.4 142.6,65.9 132.7,58.7 		"/>
		<polygon id="XMLID_121_" class="st49" points="132.9,54.4 142.3,62 143.5,59.5 132.9,49.8 		"/>
		<polygon id="XMLID_120_" class="st50" points="140.2,50.4 131.6,75.8 139.8,81.6 142.5,83.9 		"/>
		<path id="XMLID_106_" class="st51" d="M129.9,41.3l-5.8,4.5l-2.5,39.1l10.4-0.6l10.2,0.6l-2.4-39.1l-5.7-4.4
			C132.8,40.4,131.1,40.4,129.9,41.3z"/>
		<rect id="XMLID_104_" x="130.9" y="36.1" class="st52" width="2.2" height="48.8"/>
	</g>
	<g id="XMLID_124_">
		<defs>
			<path id="XMLID_113_" d="M129.3,75.5l-7.6,7.6l-0.1,1.7l1.7,6l5.2-1.8c2.1-0.7,4.5-0.7,6.6,0l5.3,1.8l1.7-6l-0.1-1.7l-7.4-7.6
				C133.1,74.2,130.8,74.2,129.3,75.5z"/>
		</defs>
		<use xlink:href="#XMLID_113_"  style="overflow:visible;fill:#F3D68D;"/>
		<clipPath id="XMLID_43_">
			<use xlink:href="#XMLID_113_"  style="overflow:visible;"/>
		</clipPath>
		<path id="XMLID_123_" class="st53" d="M129.5,76.2l-7,6.9l-0.1,1.6L124,90l4.8-1.6c2-0.7,4.1-0.7,6.1,0l4.9,1.6l1.6-5.4l-0.1-1.5
			l-6.8-6.9C133,75.1,130.9,75.1,129.5,76.2z"/>
		<polygon id="XMLID_125_" class="st53" points="138,78.8 138,90.9 141.7,91.8 143.7,81.6 		"/>
		<path id="XMLID_128_" class="st53" d="M141.3,84.6H138c-3.3,0-6-2.7-6-6v-4.1l-1.2-0.8l-7.7,3.6l-2.3,7.9l0.8,0l-0.1,6.5l17.9,3.1
			l4.9-9.5L141.3,84.6z"/>
	</g>
	<path id="XMLID_115_" class="st54" d="M109.9,126.4l0.1,0c0.3,0,0.6-0.3,0.6-0.6L110,61.9c0-0.3-0.3-0.6-0.6-0.6l-0.1,0
		c-0.3,0-0.6,0.3-0.6,0.6l0.6,63.9C109.3,126.1,109.6,126.4,109.9,126.4z"/>
	<path id="XMLID_114_" class="st54" d="M155.6,82.6l-0.1,0c-0.3,0-0.6-0.3-0.5-0.6l0.4-21.4c0-0.3,0.3-0.6,0.6-0.5l0.1,0
		c0.3,0,0.6,0.3,0.5,0.6l-0.4,21.4C156.2,82.4,155.9,82.6,155.6,82.6z"/>
	
		<linearGradient id="XMLID_44_" gradientUnits="userSpaceOnUse" x1="121.9265" y1="-16161.5889" x2="120.3747" y2="-16145.9199" gradientTransform="matrix(1 0 0 -1 0 -16126)">
		<stop  offset="9.803922e-003" style="stop-color:#EE7763;stop-opacity:0.2"/>
		<stop  offset="0.331" style="stop-color:#C74F4F;stop-opacity:0.7647"/>
		<stop  offset="0.5304" style="stop-color:#A5444F;stop-opacity:0.8348"/>
		<stop  offset="0.7173" style="stop-color:#8D3B4C;stop-opacity:0.9006"/>
		<stop  offset="0.8799" style="stop-color:#7F3649;stop-opacity:0.9578"/>
		<stop  offset="1" style="stop-color:#7A3448"/>
	</linearGradient>
	<path id="XMLID_77_" class="st55" d="M119.3,35.9c0,0,2-1.4,2.4-1.8s0.5-1,0.5-1l0.4-17.8L119.3,35.9z"/>
	
		<linearGradient id="XMLID_45_" gradientUnits="userSpaceOnUse" x1="156.5536" y1="-16173.5127" x2="155.3704" y2="-16161.5645" gradientTransform="matrix(1 0 0 -1 0 -16126)">
		<stop  offset="9.803922e-003" style="stop-color:#EE7763;stop-opacity:0.2"/>
		<stop  offset="0.331" style="stop-color:#C74F4F;stop-opacity:0.7647"/>
		<stop  offset="0.5304" style="stop-color:#A5444F;stop-opacity:0.8348"/>
		<stop  offset="0.7173" style="stop-color:#8D3B4C;stop-opacity:0.9006"/>
		<stop  offset="0.8799" style="stop-color:#7F3649;stop-opacity:0.9578"/>
		<stop  offset="1" style="stop-color:#7A3448"/>
	</linearGradient>
	<path id="XMLID_73_" class="st56" d="M154,42.7l1.3,1c0.3,0.2,0.5,0.1,0.7,0.1c0.5-0.2,0.4-0.8,0.4-0.8l0.4-14.8L154,42.7z"/>
	<polygon id="XMLID_140_" class="st33" points="96.5,136.6 90.5,134.9 91.7,118.3 97.1,120.6 	"/>
	<g id="XMLID_142_">
		<defs>
			<path id="XMLID_144_" d="M95.9,157.2c0,0.2-0.2,0.3-0.4,0.3c-2.9-0.7-5-2.1-6.2-4.1c-1.7-2.9-1.1-6.1-0.8-7.2
				c0-0.2,0.2-0.3,0.4-0.2l0,0c0.2,0.1,0.3,0.2,0.2,0.4c-0.2,1-0.8,4,0.7,6.7c1.1,1.9,3,3.2,5.8,3.8C95.8,156.8,96,157,95.9,157.2
				L95.9,157.2z"/>
		</defs>
		<use xlink:href="#XMLID_144_"  style="overflow:visible;fill:#65B0E2;"/>
		<clipPath id="XMLID_46_">
			<use xlink:href="#XMLID_144_"  style="overflow:visible;"/>
		</clipPath>
		<path id="XMLID_146_" class="st57" d="M96.3,156.9c0,0.2-0.2,0.3-0.4,0.3c-2.9-0.7-5-2.1-6.2-4.1c-1.7-2.9-1.1-6.1-0.8-7.2
			c0-0.2,0.2-0.3,0.4-0.2l0,0c0.2,0.1,0.3,0.2,0.2,0.4c-0.2,1-0.8,4,0.7,6.7c1.1,1.9,3,3.2,5.8,3.8
			C96.3,156.6,96.4,156.8,96.3,156.9L96.3,156.9z"/>
	</g>
	<g id="XMLID_147_">
		<defs>
			<path id="XMLID_143_" d="M92.3,157c0,0.2-0.2,0.3-0.4,0.3c-2.9-0.7-5-2.1-6.2-4.1c-1.7-2.9,0.3-5,0.5-6c0-0.2,0.2-0.3,0.4-0.2
				l0,0c0.2,0.1,0.3,0.2,0.2,0.4c-0.2,1-2.1,2.9-0.6,5.5c1.1,1.9,3,3.2,5.8,3.8C92.2,156.6,92.3,156.8,92.3,157L92.3,157z"/>
		</defs>
		<use xlink:href="#XMLID_143_"  style="overflow:visible;fill:#65B0E2;"/>
		<clipPath id="XMLID_47_">
			<use xlink:href="#XMLID_143_"  style="overflow:visible;"/>
		</clipPath>
		<path id="XMLID_148_" class="st58" d="M92.6,156.7c0,0.2-0.2,0.3-0.4,0.3c-2.9-0.7-5-2.1-6.2-4.1c-1.7-2.9,0.3-5,0.5-6
			c0-0.2,0.2-0.3,0.4-0.2l0,0c0.2,0.1,0.3,0.2,0.2,0.4c-0.2,1-2.1,2.9-0.6,5.5c1.1,1.9,3,3.2,5.8,3.8
			C92.6,156.3,92.7,156.5,92.6,156.7L92.6,156.7z"/>
	</g>
</g>
</svg>
