<?xml version="1.0" encoding="utf-8"?>
<!-- Generator: Adobe Illustrator 19.0.0, SVG Export Plug-In . SVG Version: 6.00 Build 0)  -->
<svg version="1.1" id="Calque_1" xmlns="http://www.w3.org/2000/svg" xmlns:xlink="http://www.w3.org/1999/xlink" x="0px" y="0px"
	 viewBox="-169 292.9 256 256" style="enable-background:new -169 292.9 256 256;" xml:space="preserve">
<style type="text/css">
	.st0{fill:url(#XMLID_2_);}
	.st1{fill:url(#XMLID_3_);}
	.st2{fill:url(#XMLID_4_);}
	.st3{fill:url(#XMLID_5_);}
	.st4{fill:url(#XMLID_6_);}
	.st5{fill:url(#XMLID_7_);}
	.st6{fill:url(#XMLID_8_);}
	.st7{fill:url(#XMLID_9_);}
	.st8{fill:url(#XMLID_10_);}
	.st9{fill:url(#XMLID_11_);}
	.st10{fill:url(#XMLID_12_);}
	.st11{fill:url(#XMLID_13_);}
	.st12{fill:#DC2640;}
	.st13{clip-path:url(#SVGID_2_);fill:#EA516D;}
	.st14{clip-path:url(#SVGID_4_);fill:#B2163E;}
	.st15{clip-path:url(#SVGID_6_);fill:#B2163E;}
	.st16{clip-path:url(#SVGID_8_);fill:#EA516D;}
	.st17{fill:#1C78B8;}
	.st18{clip-path:url(#SVGID_10_);fill:#1C619A;}
	.st19{clip-path:url(#SVGID_12_);fill:#389BD6;}
	.st20{opacity:0.95;clip-path:url(#SVGID_14_);fill:#389BD6;enable-background:new    ;}
	.st21{clip-path:url(#SVGID_16_);fill:#1C619A;}
	.st22{opacity:0.53;clip-path:url(#SVGID_18_);fill:#192846;enable-background:new    ;}
	.st23{clip-path:url(#SVGID_20_);fill:#389BD6;}
	.st24{clip-path:url(#SVGID_22_);fill:#1C619A;}
	.st25{opacity:0.95;clip-path:url(#SVGID_24_);fill:#389BD6;enable-background:new    ;}
	.st26{opacity:0.53;clip-path:url(#SVGID_26_);fill:#192846;enable-background:new    ;}
	.st27{fill:#D1C8A3;}
	.st28{clip-path:url(#SVGID_28_);fill:#DC2640;}
	.st29{clip-path:url(#SVGID_30_);fill:#DC2640;}
	.st30{clip-path:url(#SVGID_32_);}
	.st31{fill:#F9AF13;}
	.st32{fill:#FEC803;}
	.st33{fill:#A59E7F;}
	.st34{fill:#E5A406;}
	.st35{fill:#E5A302;}
	.st36{fill:#CE9008;}
	.st37{fill:url(#XMLID_14_);}
	.st38{fill:#FFD44E;}
	.st39{fill:#BCB38F;}
	.st40{clip-path:url(#SVGID_34_);fill:#A59E7F;}
	.st41{clip-path:url(#SVGID_36_);fill:#E5A302;}
	.st42{clip-path:url(#SVGID_38_);fill:#E5A302;}
	.st43{clip-path:url(#SVGID_40_);fill:#CE9008;}
	.st44{clip-path:url(#SVGID_42_);fill:#CE9008;}
	.st45{fill:#E6E5B7;}
	.st46{clip-path:url(#SVGID_44_);fill:#DC2640;}
	.st47{clip-path:url(#SVGID_46_);fill:#DC2640;}
	.st48{clip-path:url(#SVGID_48_);}
	.st49{fill:url(#XMLID_15_);}
	.st50{clip-path:url(#SVGID_50_);fill:#A59E7F;}
	.st51{clip-path:url(#SVGID_52_);fill:#E5A302;}
	.st52{clip-path:url(#SVGID_54_);fill:#E5A302;}
	.st53{clip-path:url(#SVGID_56_);fill:#CE9008;}
	.st54{clip-path:url(#SVGID_58_);fill:#CE9008;}
	.st55{clip-path:url(#SVGID_60_);fill:#DC2640;}
	.st56{clip-path:url(#SVGID_62_);fill:#DC2640;}
	.st57{clip-path:url(#SVGID_64_);fill:#A59E7F;}
	.st58{clip-path:url(#SVGID_66_);fill:#B2163E;}
	.st59{clip-path:url(#SVGID_68_);fill:#96153F;}
	.st60{clip-path:url(#SVGID_70_);fill:#B2163E;}
	.st61{clip-path:url(#SVGID_72_);fill:#96153F;}
	.st62{fill:#0F1929;}
	.st63{fill:#192946;}
	.st64{opacity:0.9;fill:#1C78B8;enable-background:new    ;}
	.st65{clip-path:url(#SVGID_74_);fill:#96153F;}
	.st66{clip-path:url(#SVGID_76_);fill:#96153F;}
	.st67{clip-path:url(#SVGID_78_);fill:#96153F;}
	.st68{opacity:0.38;clip-path:url(#SVGID_80_);fill:#1C619A;enable-background:new    ;}
	.st69{opacity:0.2;fill:#C5D2EB;enable-background:new    ;}
	.st70{opacity:0.43;fill:#FFD44E;enable-background:new    ;}
	.st71{fill:#B2163E;}
	.st72{opacity:0.64;fill:#DC2640;enable-background:new    ;}
	.st73{opacity:0.39;fill:#4E2B12;enable-background:new    ;}
	.st74{fill:none;}
</style>
<g id="XMLID_716_">
	<g id="XMLID_709_">
		
			<linearGradient id="XMLID_2_" gradientUnits="userSpaceOnUse" x1="-94.5" y1="17379.502" x2="-94.5" y2="17332.7852" gradientTransform="matrix(1 0 0 1 0 -16967.8906)">
			<stop  offset="0.1688" style="stop-color:#42B387"/>
			<stop  offset="0.4094" style="stop-color:#5DBBA3;stop-opacity:0.7106"/>
			<stop  offset="0.6358" style="stop-color:#6EC2B7;stop-opacity:0.4382"/>
			<stop  offset="0.8392" style="stop-color:#78C6C3;stop-opacity:0.1934"/>
			<stop  offset="1" style="stop-color:#7BC8C7;stop-opacity:0"/>
		</linearGradient>
		<polygon id="XMLID_715_" class="st0" points="-89.5,391.7 -88.1,389.8 -89.3,384.5 -88.3,378.9 -94.5,390.3 -100.6,378.9 
			-99.7,384.5 -100.9,389.8 -99.4,391.7 -98.3,399.3 -100.2,406.9 -98.3,419.2 -94.5,428.7 -90.6,419.2 -88.8,406.9 -90.6,399.3 		
			"/>
		
			<linearGradient id="XMLID_3_" gradientUnits="userSpaceOnUse" x1="-94.5" y1="17382.0195" x2="-94.5" y2="17348.6387" gradientTransform="matrix(1 0 0 1 0 -16967.8906)">
			<stop  offset="0.1688" style="stop-color:#64C1C4"/>
			<stop  offset="0.5476" style="stop-color:#73C5C6;stop-opacity:0.5443"/>
			<stop  offset="1" style="stop-color:#7BC8C7;stop-opacity:0"/>
		</linearGradient>
		<polygon id="XMLID_714_" class="st1" points="-94.5,380.8 -106.2,374.4 -100.2,395.9 -98.9,409.7 -94.5,448.7 -90,409.7 
			-89.2,395.4 -82.8,374.4 		"/>
		
			<linearGradient id="XMLID_4_" gradientUnits="userSpaceOnUse" x1="-94.5" y1="17422.2031" x2="-94.5" y2="17332.668" gradientTransform="matrix(1 0 0 1 0 -16967.8906)">
			<stop  offset="0.1688" style="stop-color:#7BC8C7"/>
			<stop  offset="1" style="stop-color:#7BC8C7;stop-opacity:0"/>
		</linearGradient>
		<polygon id="XMLID_713_" class="st2" points="-94.5,377.7 -102.2,378.9 -97.1,391.9 -94.5,461.9 -91.8,391.9 -86.8,378.9 		"/>
		
			<linearGradient id="XMLID_5_" gradientUnits="userSpaceOnUse" x1="-94.5" y1="17392.5605" x2="-94.5" y2="17326.1094" gradientTransform="matrix(1 0 0 1 0 -16967.8906)">
			<stop  offset="0.1688" style="stop-color:#7BC8C7"/>
			<stop  offset="1" style="stop-color:#7BC8C7;stop-opacity:0"/>
		</linearGradient>
		<polygon id="XMLID_712_" class="st3" points="-94.5,367.8 -102.2,369 -97.1,382.1 -94.5,430.3 -91.8,382.1 -86.8,369 		"/>
		
			<radialGradient id="XMLID_6_" cx="-295.5193" cy="329.2523" r="16.2699" gradientTransform="matrix(0.6751 0 0 -1.9314 105.0444 1049.3071)" gradientUnits="userSpaceOnUse">
			<stop  offset="0.3586" style="stop-color:#42B387"/>
			<stop  offset="0.4901" style="stop-color:#4BB590;stop-opacity:0.795"/>
			<stop  offset="0.7192" style="stop-color:#5FBCA6;stop-opacity:0.4379"/>
			<stop  offset="1" style="stop-color:#7BC8C7;stop-opacity:0"/>
		</radialGradient>
		<path id="XMLID_711_" class="st4" d="M-85.6,382.9c0,14-4,67-8.8,67c-4.9,0-8.8-53.1-8.8-67c0-13.9,4,0.7,8.8,0.7
			S-85.6,369-85.6,382.9z"/>
		
			<radialGradient id="XMLID_7_" cx="-115.0506" cy="-531.6938" r="20.754" gradientTransform="matrix(1.0871 0 0 -0.8147 30.6215 -42.8473)" gradientUnits="userSpaceOnUse">
			<stop  offset="0.3586" style="stop-color:#42B387"/>
			<stop  offset="0.4901" style="stop-color:#4BB590;stop-opacity:0.795"/>
			<stop  offset="0.7192" style="stop-color:#5FBCA6;stop-opacity:0.4379"/>
			<stop  offset="1" style="stop-color:#7BC8C7;stop-opacity:0"/>
		</radialGradient>
		<path id="XMLID_710_" class="st5" d="M-76.3,373.9c0,7.5-8.1,36.1-18.1,36.1s-18.2-28.6-18.2-36.1s8.1,0.4,18.1,0.4
			S-76.3,366.4-76.3,373.9z"/>
	</g>
	<g id="XMLID_702_">
		
			<linearGradient id="XMLID_8_" gradientUnits="userSpaceOnUse" x1="13.9" y1="17379.7188" x2="13.9" y2="17333.8281" gradientTransform="matrix(1 0 0 1 0 -16967.8906)">
			<stop  offset="0.1688" style="stop-color:#42B387"/>
			<stop  offset="0.4094" style="stop-color:#5DBBA3;stop-opacity:0.7106"/>
			<stop  offset="0.6358" style="stop-color:#6EC2B7;stop-opacity:0.4382"/>
			<stop  offset="0.8392" style="stop-color:#78C6C3;stop-opacity:0.1934"/>
			<stop  offset="1" style="stop-color:#7BC8C7;stop-opacity:0"/>
		</linearGradient>
		<polygon id="XMLID_708_" class="st6" points="18.8,392.3 20.2,390.4 19,385.2 20,379.7 13.9,390.9 7.8,379.7 8.8,385.2 7.6,390.4 
			9,392.3 10.1,399.8 8.3,407.2 10.1,419.3 13.9,428.6 17.7,419.3 19.5,407.2 17.7,399.8 		"/>
		
			<linearGradient id="XMLID_9_" gradientUnits="userSpaceOnUse" x1="13.9" y1="17382.1914" x2="13.9" y2="17349.4023" gradientTransform="matrix(1 0 0 1 0 -16967.8906)">
			<stop  offset="0.1688" style="stop-color:#64C1C4"/>
			<stop  offset="0.5476" style="stop-color:#73C5C6;stop-opacity:0.5443"/>
			<stop  offset="1" style="stop-color:#7BC8C7;stop-opacity:0"/>
		</linearGradient>
		<polygon id="XMLID_707_" class="st7" points="13.9,381.6 2.4,375.3 8.2,396.4 9.5,410 13.9,448.3 18.3,410 19.1,395.9 25.4,375.3 
					"/>
		
			<linearGradient id="XMLID_10_" gradientUnits="userSpaceOnUse" x1="13.85" y1="17421.6641" x2="13.85" y2="17333.7129" gradientTransform="matrix(1 0 0 1 0 -16967.8906)">
			<stop  offset="0.1688" style="stop-color:#7BC8C7"/>
			<stop  offset="1" style="stop-color:#7BC8C7;stop-opacity:0"/>
		</linearGradient>
		<polygon id="XMLID_706_" class="st8" points="13.9,378.5 6.3,379.7 11.3,392.5 13.9,461.3 16.5,392.5 21.4,379.7 		"/>
		
			<linearGradient id="XMLID_11_" gradientUnits="userSpaceOnUse" x1="13.85" y1="17392.5469" x2="13.85" y2="17327.2715" gradientTransform="matrix(1 0 0 1 0 -16967.8906)">
			<stop  offset="0.1688" style="stop-color:#7BC8C7"/>
			<stop  offset="1" style="stop-color:#7BC8C7;stop-opacity:0"/>
		</linearGradient>
		<polygon id="XMLID_705_" class="st9" points="13.9,368.8 6.3,370 11.3,382.8 13.9,430.2 16.5,382.8 21.4,370 		"/>
		
			<radialGradient id="XMLID_12_" cx="-135.0087" cy="329.1516" r="15.9675" gradientTransform="matrix(0.6751 0 0 -1.9314 105.0444 1049.3071)" gradientUnits="userSpaceOnUse">
			<stop  offset="0.3586" style="stop-color:#42B387"/>
			<stop  offset="0.4901" style="stop-color:#4BB590;stop-opacity:0.795"/>
			<stop  offset="0.7192" style="stop-color:#5FBCA6;stop-opacity:0.4379"/>
			<stop  offset="1" style="stop-color:#7BC8C7;stop-opacity:0"/>
		</radialGradient>
		<path id="XMLID_704_" class="st10" d="M22.6,383.6c0,13.7-3.9,65.9-8.7,65.9s-8.7-52.2-8.7-65.9c0-13.7,3.9,0.7,8.7,0.7
			C18.7,384.3,22.6,369.9,22.6,383.6z"/>
		
			<radialGradient id="XMLID_13_" cx="-15.3818" cy="-532.3962" r="20.3827" gradientTransform="matrix(1.0871 0 0 -0.8147 30.6215 -42.8473)" gradientUnits="userSpaceOnUse">
			<stop  offset="0.3586" style="stop-color:#42B387"/>
			<stop  offset="0.4901" style="stop-color:#4BB590;stop-opacity:0.795"/>
			<stop  offset="0.7192" style="stop-color:#5FBCA6;stop-opacity:0.4379"/>
			<stop  offset="1" style="stop-color:#7BC8C7;stop-opacity:0"/>
		</radialGradient>
		<path id="XMLID_703_" class="st11" d="M31.7,374.8c0,7.4-8,35.4-17.8,35.4s-17.8-28.1-17.8-35.4c0-7.4,8,0.4,17.8,0.4
			S31.7,367.4,31.7,374.8z"/>
	</g>
	<g id="XMLID_698_">
		<g>
			<path id="XMLID_699_" class="st12" d="M-99.9,308.7v-5.2c0-0.6,0.3-1.1,0.8-1.4l3.3-1.7c0.4-0.2,0.7-0.6,0.8-1.1l0.4-1.8
				c0.1-0.6,0.6-1.1,1.2-1.2l2.9-0.7c0.5-0.1,1,0,1.4,0.3l2.3,2c0.3,0.2,0.5,0.6,0.5,1l1.5,10.5c0.1,1-0.7,1.9-1.7,1.8l-12.1-0.9
				C-99.3,310.2-99.9,309.5-99.9,308.7z"/>
		</g>
		<g>
			<defs>
				<path id="SVGID_1_" d="M-99.9,308.7v-5.2c0-0.6,0.3-1.1,0.8-1.4l3.3-1.7c0.4-0.2,0.7-0.6,0.8-1.1l0.4-1.8
					c0.1-0.6,0.6-1.1,1.2-1.2l2.9-0.7c0.5-0.1,1,0,1.4,0.3l2.3,2c0.3,0.2,0.5,0.6,0.5,1l1.5,10.5c0.1,1-0.7,1.9-1.7,1.8l-12.1-0.9
					C-99.3,310.2-99.9,309.5-99.9,308.7z"/>
			</defs>
			<clipPath id="SVGID_2_">
				<use xlink:href="#SVGID_1_"  style="overflow:visible;"/>
			</clipPath>
			<polygon id="XMLID_701_" class="st13" points="-89.6,295.4 -89.8,311.1 -82.4,309.5 -83.9,295.6 -89.3,293.9 			"/>
		</g>
		<g>
			<defs>
				<path id="SVGID_3_" d="M-99.9,308.7v-5.2c0-0.6,0.3-1.1,0.8-1.4l3.3-1.7c0.4-0.2,0.7-0.6,0.8-1.1l0.4-1.8
					c0.1-0.6,0.6-1.1,1.2-1.2l2.9-0.7c0.5-0.1,1,0,1.4,0.3l2.3,2c0.3,0.2,0.5,0.6,0.5,1l1.5,10.5c0.1,1-0.7,1.9-1.7,1.8l-12.1-0.9
					C-99.3,310.2-99.9,309.5-99.9,308.7z"/>
			</defs>
			<clipPath id="SVGID_4_">
				<use xlink:href="#SVGID_3_"  style="overflow:visible;"/>
			</clipPath>
			<polygon id="XMLID_700_" class="st14" points="-94.7,298.2 -96.7,307.9 -97.8,297.1 			"/>
		</g>
	</g>
	<g id="XMLID_694_">
		<g>
			<path id="XMLID_695_" class="st12" d="M20.5,308.7v-5.2c0-0.6-0.3-1.1-0.8-1.4l-3.3-1.7c-0.4-0.2-0.7-0.6-0.8-1.1l-0.4-1.8
				c-0.1-0.6-0.6-1.1-1.2-1.2l-3-0.7c-0.5-0.1-1,0-1.4,0.3l-2.3,2c-0.3,0.2-0.5,0.6-0.5,1l-1.5,10.5c-0.1,1,0.7,1.9,1.7,1.8
				l12.1-0.9C19.9,310.2,20.5,309.5,20.5,308.7z"/>
		</g>
		<g>
			<defs>
				<path id="SVGID_5_" d="M20.5,308.7v-5.2c0-0.6-0.3-1.1-0.8-1.4l-3.3-1.7c-0.4-0.2-0.7-0.6-0.8-1.1l-0.4-1.8
					c-0.1-0.6-0.6-1.1-1.2-1.2l-3-0.7c-0.5-0.1-1,0-1.4,0.3l-2.3,2c-0.3,0.2-0.5,0.6-0.5,1l-1.5,10.5c-0.1,1,0.7,1.9,1.7,1.8
					l12.1-0.9C19.9,310.2,20.5,309.5,20.5,308.7z"/>
			</defs>
			<clipPath id="SVGID_6_">
				<use xlink:href="#SVGID_5_"  style="overflow:visible;"/>
			</clipPath>
			<polygon id="XMLID_697_" class="st15" points="10.2,295.4 10.4,311.1 3,309.5 4.5,295.6 9.9,293.9 			"/>
		</g>
		<g>
			<defs>
				<path id="SVGID_7_" d="M20.5,308.7v-5.2c0-0.6-0.3-1.1-0.8-1.4l-3.3-1.7c-0.4-0.2-0.7-0.6-0.8-1.1l-0.4-1.8
					c-0.1-0.6-0.6-1.1-1.2-1.2l-3-0.7c-0.5-0.1-1,0-1.4,0.3l-2.3,2c-0.3,0.2-0.5,0.6-0.5,1l-1.5,10.5c-0.1,1,0.7,1.9,1.7,1.8
					l12.1-0.9C19.9,310.2,20.5,309.5,20.5,308.7z"/>
			</defs>
			<clipPath id="SVGID_8_">
				<use xlink:href="#SVGID_7_"  style="overflow:visible;"/>
			</clipPath>
			<polygon id="XMLID_696_" class="st16" points="15.2,298.2 17.3,307.9 25.9,304.7 			"/>
		</g>
	</g>
	<g id="XMLID_687_">
		<g>
			<path id="XMLID_688_" class="st17" d="M-117.8,319.9l0.8-6.1c0-0.2,0.1-0.4,0.2-0.6l4.7-6.6c0.3-0.4,0.8-0.6,1.3-0.5l18.9-1.3
				c0.3,0,0.5,0,0.8,0.2l13.4,7.2c0.8,0.1,1.3,1,1,1.7l-17.6,55c-0.1,0.4-0.4,0.7-0.8,0.8l-1.9,0.9c-0.5,0.2-0.8,0.7-0.8,1.3
				l0.8,20.4c0,0.2,0,0.4-0.1,0.6l-3.3,7.2c-0.5,1.1-2.2,1-2.5-0.2l-10.4-39.2c0-0.1,0-0.1,0-0.2l-4.5-40.3
				C-117.8,320.1-117.8,320-117.8,319.9z"/>
		</g>
		<g>
			<defs>
				<path id="SVGID_9_" d="M-117.8,319.9l0.8-6.1c0-0.2,0.1-0.4,0.2-0.6l4.7-6.6c0.3-0.4,0.8-0.6,1.3-0.5l18.9-1.3
					c0.3,0,0.5,0,0.8,0.2l13.4,7.2c0.8,0.1,1.3,1,1,1.7l-17.6,55c-0.1,0.4-0.4,0.7-0.8,0.8l-1.9,0.9c-0.5,0.2-0.8,0.7-0.8,1.3
					l0.8,20.4c0,0.2,0,0.4-0.1,0.6l-3.3,7.2c-0.5,1.1-2.2,1-2.5-0.2l-10.4-39.2c0-0.1,0-0.1,0-0.2l-4.5-40.3
					C-117.8,320.1-117.8,320-117.8,319.9z"/>
			</defs>
			<clipPath id="SVGID_10_">
				<use xlink:href="#SVGID_9_"  style="overflow:visible;"/>
			</clipPath>
			<path id="XMLID_693_" class="st18" d="M-109.4,306c0,0-1.9,0.5-2.1,2.1s5.9,87.6,10.3,91.3c4.4,3.7,4.3,3.8,4.3,3.8l-7.8,1.9
				l-18-52.8l0.8-42l9-9.1L-109.4,306z"/>
		</g>
		<g>
			<defs>
				<path id="SVGID_11_" d="M-117.8,319.9l0.8-6.1c0-0.2,0.1-0.4,0.2-0.6l4.7-6.6c0.3-0.4,0.8-0.6,1.3-0.5l18.9-1.3
					c0.3,0,0.5,0,0.8,0.2l13.4,7.2c0.8,0.1,1.3,1,1,1.7l-17.6,55c-0.1,0.4-0.4,0.7-0.8,0.8l-1.9,0.9c-0.5,0.2-0.8,0.7-0.8,1.3
					l0.8,20.4c0,0.2,0,0.4-0.1,0.6l-3.3,7.2c-0.5,1.1-2.2,1-2.5-0.2l-10.4-39.2c0-0.1,0-0.1,0-0.2l-4.5-40.3
					C-117.8,320.1-117.8,320-117.8,319.9z"/>
			</defs>
			<clipPath id="SVGID_12_">
				<use xlink:href="#SVGID_11_"  style="overflow:visible;"/>
			</clipPath>
			<path id="XMLID_692_" class="st19" d="M-91.8,304.7c-1.2,0.9,0.4,24.2,0.4,24.2l23.4-18.2C-68,310.7-90.6,303.8-91.8,304.7z"/>
		</g>
		<g>
			<defs>
				<path id="SVGID_13_" d="M-117.8,319.9l0.8-6.1c0-0.2,0.1-0.4,0.2-0.6l4.7-6.6c0.3-0.4,0.8-0.6,1.3-0.5l18.9-1.3
					c0.3,0,0.5,0,0.8,0.2l13.4,7.2c0.8,0.1,1.3,1,1,1.7l-17.6,55c-0.1,0.4-0.4,0.7-0.8,0.8l-1.9,0.9c-0.5,0.2-0.8,0.7-0.8,1.3
					l0.8,20.4c0,0.2,0,0.4-0.1,0.6l-3.3,7.2c-0.5,1.1-2.2,1-2.5-0.2l-10.4-39.2c0-0.1,0-0.1,0-0.2l-4.5-40.3
					C-117.8,320.1-117.8,320-117.8,319.9z"/>
			</defs>
			<clipPath id="SVGID_14_">
				<use xlink:href="#SVGID_13_"  style="overflow:visible;"/>
			</clipPath>
			<path id="XMLID_691_" class="st20" d="M-92.3,317.1h0.2c0.2,0,0.4-0.1,0.4-0.3l0.2-10.9c0-0.2-0.1-0.4-0.3-0.4H-92
				c-0.2,0-0.4,0.1-0.4,0.3l-0.3,10.9C-92.7,316.9-92.5,317.1-92.3,317.1z"/>
		</g>
		<g>
			<defs>
				<path id="SVGID_15_" d="M-117.8,319.9l0.8-6.1c0-0.2,0.1-0.4,0.2-0.6l4.7-6.6c0.3-0.4,0.8-0.6,1.3-0.5l18.9-1.3
					c0.3,0,0.5,0,0.8,0.2l13.4,7.2c0.8,0.1,1.3,1,1,1.7l-17.6,55c-0.1,0.4-0.4,0.7-0.8,0.8l-1.9,0.9c-0.5,0.2-0.8,0.7-0.8,1.3
					l0.8,20.4c0,0.2,0,0.4-0.1,0.6l-3.3,7.2c-0.5,1.1-2.2,1-2.5-0.2l-10.4-39.2c0-0.1,0-0.1,0-0.2l-4.5-40.3
					C-117.8,320.1-117.8,320-117.8,319.9z"/>
			</defs>
			<clipPath id="SVGID_16_">
				<use xlink:href="#SVGID_15_"  style="overflow:visible;"/>
			</clipPath>
			<polygon id="XMLID_690_" class="st21" points="-91.8,366.2 -100.3,368.6 -96.6,395.7 			"/>
		</g>
		<g>
			<defs>
				<path id="SVGID_17_" d="M-117.8,319.9l0.8-6.1c0-0.2,0.1-0.4,0.2-0.6l4.7-6.6c0.3-0.4,0.8-0.6,1.3-0.5l18.9-1.3
					c0.3,0,0.5,0,0.8,0.2l13.4,7.2c0.8,0.1,1.3,1,1,1.7l-17.6,55c-0.1,0.4-0.4,0.7-0.8,0.8l-1.9,0.9c-0.5,0.2-0.8,0.7-0.8,1.3
					l0.8,20.4c0,0.2,0,0.4-0.1,0.6l-3.3,7.2c-0.5,1.1-2.2,1-2.5-0.2l-10.4-39.2c0-0.1,0-0.1,0-0.2l-4.5-40.3
					C-117.8,320.1-117.8,320-117.8,319.9z"/>
			</defs>
			<clipPath id="SVGID_18_">
				<use xlink:href="#SVGID_17_"  style="overflow:visible;"/>
			</clipPath>
			<path id="XMLID_689_" class="st22" d="M-95.2,374.2c-9.2-2.7-16.9,1.8-16.9,1.8l0.4-8.8l21.7-1.1
				C-90,366.1-86.1,376.9-95.2,374.2z"/>
		</g>
	</g>
	<g id="XMLID_681_">
		<g>
			<path id="XMLID_682_" class="st17" d="M36,320.7l-0.8-6.1c0-0.2-0.1-0.4-0.2-0.6l-4.7-6.6c-0.3-0.4-0.8-0.6-1.3-0.5l-19-1.4
				l-14,7.4c-0.8,0.1-1.3,1-1,1.7l17.6,55.2c0.1,0.4,0.4,0.7,0.8,0.8l1.9,0.8c0.5,0.2,0.8,0.7,0.8,1.3l-0.8,20.4
				c0,0.2,0,0.4,0.1,0.6l3.3,7.2c0.5,1.1,2.2,1,2.5-0.2l10.4-39.2c0-0.1,0-0.1,0-0.2l4.5-40.3C36,320.9,36,320.8,36,320.7z"/>
		</g>
		<g>
			<defs>
				<path id="SVGID_19_" d="M36,320.7l-0.8-6.1c0-0.2-0.1-0.4-0.2-0.6l-4.7-6.6c-0.3-0.4-0.8-0.6-1.3-0.5l-19-1.4l-14,7.4
					c-0.8,0.1-1.3,1-1,1.7l17.6,55.2c0.1,0.4,0.4,0.7,0.8,0.8l1.9,0.8c0.5,0.2,0.8,0.7,0.8,1.3l-0.8,20.4c0,0.2,0,0.4,0.1,0.6
					l3.3,7.2c0.5,1.1,2.2,1,2.5-0.2l10.4-39.2c0-0.1,0-0.1,0-0.2l4.5-40.3C36,320.9,36,320.8,36,320.7z"/>
			</defs>
			<clipPath id="SVGID_20_">
				<use xlink:href="#SVGID_19_"  style="overflow:visible;"/>
			</clipPath>
			<path id="XMLID_686_" class="st23" d="M27.8,305.7c0,0,2,0.6,1.7,3.4c-0.3,2.8-7,86.2-9.8,90.7s-2,1.9-2,1.9l5.2,3.6l20.6-95.1
				L27.8,305.7z"/>
		</g>
		<g>
			<defs>
				<path id="SVGID_21_" d="M36,320.7l-0.8-6.1c0-0.2-0.1-0.4-0.2-0.6l-4.7-6.6c-0.3-0.4-0.8-0.6-1.3-0.5l-19-1.4l-14,7.4
					c-0.8,0.1-1.3,1-1,1.7l17.6,55.2c0.1,0.4,0.4,0.7,0.8,0.8l1.9,0.8c0.5,0.2,0.8,0.7,0.8,1.3l-0.8,20.4c0,0.2,0,0.4,0.1,0.6
					l3.3,7.2c0.5,1.1,2.2,1,2.5-0.2l10.4-39.2c0-0.1,0-0.1,0-0.2l4.5-40.3C36,320.9,36,320.8,36,320.7z"/>
			</defs>
			<clipPath id="SVGID_22_">
				<use xlink:href="#SVGID_21_"  style="overflow:visible;"/>
			</clipPath>
			<path id="XMLID_685_" class="st24" d="M10.9,304.9c0,0-1.3,0.2-1.5,2c-0.2,1.8,1.5,21.3,1.5,21.3l-19.3-17.3L10.9,304.9z"/>
		</g>
		<g>
			<defs>
				<path id="SVGID_23_" d="M36,320.7l-0.8-6.1c0-0.2-0.1-0.4-0.2-0.6l-4.7-6.6c-0.3-0.4-0.8-0.6-1.3-0.5l-19-1.4l-14,7.4
					c-0.8,0.1-1.3,1-1,1.7l17.6,55.2c0.1,0.4,0.4,0.7,0.8,0.8l1.9,0.8c0.5,0.2,0.8,0.7,0.8,1.3l-0.8,20.4c0,0.2,0,0.4,0.1,0.6
					l3.3,7.2c0.5,1.1,2.2,1,2.5-0.2l10.4-39.2c0-0.1,0-0.1,0-0.2l4.5-40.3C36,320.9,36,320.8,36,320.7z"/>
			</defs>
			<clipPath id="SVGID_24_">
				<use xlink:href="#SVGID_23_"  style="overflow:visible;"/>
			</clipPath>
			<path id="XMLID_684_" class="st25" d="M28.2,319.4h0.2c0.2,0,0.4-0.1,0.4-0.3l1.4-10.8c0-0.2-0.1-0.4-0.3-0.4h-0.2
				c-0.2,0-0.4,0.1-0.4,0.3L27.9,319C27.9,319.2,28,319.4,28.2,319.4z"/>
		</g>
		<g>
			<defs>
				<path id="SVGID_25_" d="M36,320.7l-0.8-6.1c0-0.2-0.1-0.4-0.2-0.6l-4.7-6.6c-0.3-0.4-0.8-0.6-1.3-0.5l-19-1.4l-14,7.4
					c-0.8,0.1-1.3,1-1,1.7l17.6,55.2c0.1,0.4,0.4,0.7,0.8,0.8l1.9,0.8c0.5,0.2,0.8,0.7,0.8,1.3l-0.8,20.4c0,0.2,0,0.4,0.1,0.6
					l3.3,7.2c0.5,1.1,2.2,1,2.5-0.2l10.4-39.2c0-0.1,0-0.1,0-0.2l4.5-40.3C36,320.9,36,320.8,36,320.7z"/>
			</defs>
			<clipPath id="SVGID_26_">
				<use xlink:href="#SVGID_25_"  style="overflow:visible;"/>
			</clipPath>
			<path id="XMLID_683_" class="st26" d="M15.7,374.2c9.2-2.7,16.9,1.8,16.9,1.8l-0.4-8.8l-21.7-1.1
				C10.5,366.1,6.5,376.9,15.7,374.2z"/>
		</g>
	</g>
	<g id="XMLID_659_">
		<g>
			<polyline id="XMLID_660_" class="st27" points="-41,318.9 -41,319.9 -41,352.2 -41,318.9 -54.4,318.9 -65.6,309.7 -116.4,316.8 
				-117.8,320.1 -134.2,323.2 -136.9,320.9 -138.7,320.9 -143.2,371 -146.4,373 -148,419.4 -143,422 -128.7,416.4 -119.9,378 
				-116.7,375.3 -115.2,371.4 -92.6,368 -86.8,369.6 -71.8,362.9 -54.7,362.9 -44.9,351.9 -41,351.9 			"/>
		</g>
		<g>
			<defs>
				<polyline id="SVGID_27_" points="-41,318.9 -41,319.9 -41,352.2 -41,318.9 -54.4,318.9 -65.6,309.7 -116.4,316.8 -117.8,320.1 
					-134.2,323.2 -136.9,320.9 -138.7,320.9 -143.2,371 -146.4,373 -148,419.4 -143,422 -128.7,416.4 -119.9,378 -116.7,375.3 
					-115.2,371.4 -92.6,368 -86.8,369.6 -71.8,362.9 -54.7,362.9 -44.9,351.9 -41,351.9 				"/>
			</defs>
			<clipPath id="SVGID_28_">
				<use xlink:href="#SVGID_27_"  style="overflow:visible;"/>
			</clipPath>
			<polygon id="XMLID_680_" class="st28" points="-146.7,422.7 -129.4,415.8 -129.1,410.5 -146.2,417.6 			"/>
		</g>
		<g>
			<defs>
				<polyline id="SVGID_29_" points="-41,318.9 -41,319.9 -41,352.2 -41,318.9 -54.4,318.9 -65.6,309.7 -116.4,316.8 -117.8,320.1 
					-134.2,323.2 -136.9,320.9 -138.7,320.9 -143.2,371 -146.4,373 -148,419.4 -143,422 -128.7,416.4 -119.9,378 -116.7,375.3 
					-115.2,371.4 -92.6,368 -86.8,369.6 -71.8,362.9 -54.7,362.9 -44.9,351.9 -41,351.9 				"/>
			</defs>
			<clipPath id="SVGID_30_">
				<use xlink:href="#SVGID_29_"  style="overflow:visible;"/>
			</clipPath>
			<polygon id="XMLID_679_" class="st29" points="-146.1,414.7 -128.8,407.8 -127.4,402.4 -145.6,409.6 			"/>
		</g>
		<g>
			<defs>
				<polyline id="SVGID_31_" points="-41,318.9 -41,319.9 -41,352.2 -41,318.9 -54.4,318.9 -65.6,309.7 -116.4,316.8 -117.8,320.1 
					-134.2,323.2 -136.9,320.9 -138.7,320.9 -143.2,371 -146.4,373 -148,419.4 -143,422 -128.7,416.4 -119.9,378 -116.7,375.3 
					-115.2,371.4 -92.6,368 -86.8,369.6 -71.8,362.9 -54.7,362.9 -44.9,351.9 -41,351.9 				"/>
			</defs>
			<clipPath id="SVGID_32_">
				<use xlink:href="#SVGID_31_"  style="overflow:visible;"/>
			</clipPath>
			<g id="XMLID_666_" class="st30">
				<polygon id="XMLID_678_" class="st31" points="-54.4,320 -72,362.7 -85.2,370.6 -115.4,370.2 -115.6,368.6 -117.8,314.2 
					-65.4,308.5 				"/>
				<polygon id="XMLID_677_" class="st32" points="-115.6,368.6 -118.4,373.6 -122.3,377 -130.5,414.7 -143.2,419.9 -147.9,417.8 
					-149,420.1 -144.5,425.2 -131.9,424.1 -125.9,414.6 -115.2,371.4 				"/>
				<polygon id="XMLID_676_" class="st31" points="-115.4,370.2 -117.2,374.2 -120.5,376.8 -129.4,415.8 -143.5,421.3 -148.6,418.6 
					-148.3,420.3 -139,423.6 -126.1,417.6 -118.1,389.6 -115.2,371.4 				"/>
				<polygon id="XMLID_675_" class="st33" points="-71.8,362.2 -67,362.3 -67,364.1 -71.9,364.2 				"/>
				<polygon id="XMLID_674_" class="st31" points="-72,362.2 -87.1,368.6 -92.7,367.1 -115.4,370.2 -115.2,371.8 -85.7,374 
					-72,363.3 				"/>
				<polygon id="XMLID_673_" class="st34" points="-116.4,317 -115.6,368.6 -117.8,320.3 				"/>
				<path id="XMLID_672_" class="st35" d="M-65.6,310.3"/>
				<polygon id="XMLID_671_" class="st36" points="-71.8,362.2 -81.1,350.3 -115.6,368.6 -91.8,366.2 				"/>
				
					<linearGradient id="XMLID_14_" gradientUnits="userSpaceOnUse" x1="-91.9" y1="456.6318" x2="-91.9" y2="492.0175" gradientTransform="matrix(1 0 0 -1 0 841.67)">
					<stop  offset="0" style="stop-color:#CE9008"/>
					<stop  offset="0.1502" style="stop-color:#C98C0B"/>
					<stop  offset="0.3144" style="stop-color:#BC7E0F"/>
					<stop  offset="0.4852" style="stop-color:#A86913"/>
					<stop  offset="0.6596" style="stop-color:#8D4D14"/>
					<stop  offset="0.6912" style="stop-color:#884813"/>
					<stop  offset="0.7556" style="stop-color:#764015"/>
					<stop  offset="0.854" style="stop-color:#603514"/>
					<stop  offset="0.9389" style="stop-color:#532E13"/>
					<stop  offset="1" style="stop-color:#4E2B12"/>
				</linearGradient>
				<polygon id="XMLID_670_" class="st37" points="-74.2,361.7 -81.8,352.4 -109.6,366.8 -90.4,364.8 				"/>
				<polygon id="XMLID_669_" class="st38" points="-81.1,350.3 -65.6,310.3 -54.4,320 -71.8,362.2 				"/>
				<polygon id="XMLID_668_" class="st39" points="-136.9,320.4 -141.2,372.9 -144.5,374.9 -146.2,417.6 -142.8,377 -139.3,374.6 
					-134.2,323 				"/>
				<polygon id="XMLID_667_" class="st33" points="-122.9,320.5 -115.6,368.6 -117.8,320 				"/>
			</g>
		</g>
		<g>
			<defs>
				<polyline id="SVGID_33_" points="-41,318.9 -41,319.9 -41,352.2 -41,318.9 -54.4,318.9 -65.6,309.7 -116.4,316.8 -117.8,320.1 
					-134.2,323.2 -136.9,320.9 -138.7,320.9 -143.2,371 -146.4,373 -148,419.4 -143,422 -128.7,416.4 -119.9,378 -116.7,375.3 
					-115.2,371.4 -92.6,368 -86.8,369.6 -71.8,362.9 -54.7,362.9 -44.9,351.9 -41,351.9 				"/>
			</defs>
			<clipPath id="SVGID_34_">
				<use xlink:href="#SVGID_33_"  style="overflow:visible;"/>
			</clipPath>
			<polygon id="XMLID_665_" class="st40" points="-141.2,372.9 -139.3,374.6 -142.8,377 -144.5,374.9 			"/>
		</g>
		<g>
			<defs>
				<polyline id="SVGID_35_" points="-41,318.9 -41,319.9 -41,352.2 -41,318.9 -54.4,318.9 -65.6,309.7 -116.4,316.8 -117.8,320.1 
					-134.2,323.2 -136.9,320.9 -138.7,320.9 -143.2,371 -146.4,373 -148,419.4 -143,422 -128.7,416.4 -119.9,378 -116.7,375.3 
					-115.2,371.4 -92.6,368 -86.8,369.6 -71.8,362.9 -54.7,362.9 -44.9,351.9 -41,351.9 				"/>
			</defs>
			<clipPath id="SVGID_36_">
				<use xlink:href="#SVGID_35_"  style="overflow:visible;"/>
			</clipPath>
			<polygon id="XMLID_664_" class="st41" points="-129.3,415.8 -128.6,416.4 -143,422 -148,419.3 -148.2,418.8 -143.1,421.1 			"/>
		</g>
		<g>
			<defs>
				<polyline id="SVGID_37_" points="-41,318.9 -41,319.9 -41,352.2 -41,318.9 -54.4,318.9 -65.6,309.7 -116.4,316.8 -117.8,320.1 
					-134.2,323.2 -136.9,320.9 -138.7,320.9 -143.2,371 -146.4,373 -148,419.4 -143,422 -128.7,416.4 -119.9,378 -116.7,375.3 
					-115.2,371.4 -92.6,368 -86.8,369.6 -71.8,362.9 -54.7,362.9 -44.9,351.9 -41,351.9 				"/>
			</defs>
			<clipPath id="SVGID_38_">
				<use xlink:href="#SVGID_37_"  style="overflow:visible;"/>
			</clipPath>
			<polygon id="XMLID_663_" class="st42" points="-86.8,369.7 -87,368.6 -92.7,367.1 -115.4,370.2 -115.2,371.4 -92.6,368 			"/>
		</g>
		<g>
			<defs>
				<polyline id="SVGID_39_" points="-41,318.9 -41,319.9 -41,352.2 -41,318.9 -54.4,318.9 -65.6,309.7 -116.4,316.8 -117.8,320.1 
					-134.2,323.2 -136.9,320.9 -138.7,320.9 -143.2,371 -146.4,373 -148,419.4 -143,422 -128.7,416.4 -119.9,378 -116.7,375.3 
					-115.2,371.4 -92.6,368 -86.8,369.6 -71.8,362.9 -54.7,362.9 -44.9,351.9 -41,351.9 				"/>
			</defs>
			<clipPath id="SVGID_40_">
				<use xlink:href="#SVGID_39_"  style="overflow:visible;"/>
			</clipPath>
			<polygon id="XMLID_662_" class="st43" points="-92.7,367.1 -92.6,368 -86.8,369.7 -87,368.6 			"/>
		</g>
		<g>
			<defs>
				<polyline id="SVGID_41_" points="-41,318.9 -41,319.9 -41,352.2 -41,318.9 -54.4,318.9 -65.6,309.7 -116.4,316.8 -117.8,320.1 
					-134.2,323.2 -136.9,320.9 -138.7,320.9 -143.2,371 -146.4,373 -148,419.4 -143,422 -128.7,416.4 -119.9,378 -116.7,375.3 
					-115.2,371.4 -92.6,368 -86.8,369.6 -71.8,362.9 -54.7,362.9 -44.9,351.9 -41,351.9 				"/>
			</defs>
			<clipPath id="SVGID_42_">
				<use xlink:href="#SVGID_41_"  style="overflow:visible;"/>
			</clipPath>
			<polygon id="XMLID_661_" class="st44" points="-143,421.1 -143,422 -148,419.3 -148.2,418.8 			"/>
		</g>
	</g>
	<g id="XMLID_635_">
		<g>
			<polyline id="XMLID_636_" class="st45" points="-41,318.9 -41,319.9 -41,352.2 -41,318.9 -27.6,318.9 -16.4,309.7 34.4,316.8 
				35.8,320.1 52.2,323.2 54.9,320.9 56.7,320.9 61.2,371 64.4,373 66,419.4 61,422 46.7,416.4 37.9,378 34.7,375.3 33.2,371.4 
				10.6,368 4.8,369.6 -10.2,362.9 -27.3,362.9 -37.1,351.9 -41,351.9 			"/>
		</g>
		<g>
			<defs>
				<polyline id="SVGID_43_" points="-41,318.9 -41,319.9 -41,352.2 -41,318.9 -27.6,318.9 -16.4,309.7 34.4,316.8 35.8,320.1 
					52.2,323.2 54.9,320.9 56.7,320.9 61.2,371 64.4,373 66,419.4 61,422 46.7,416.4 37.9,378 34.7,375.3 33.2,371.4 10.6,368 
					4.8,369.6 -10.2,362.9 -27.3,362.9 -37.1,351.9 -41,351.9 				"/>
			</defs>
			<clipPath id="SVGID_44_">
				<use xlink:href="#SVGID_43_"  style="overflow:visible;"/>
			</clipPath>
			<polygon id="XMLID_658_" class="st46" points="64.5,421.2 47.3,414.3 46.9,409 64.1,416.1 			"/>
		</g>
		<g>
			<defs>
				<polyline id="SVGID_45_" points="-41,318.9 -41,319.9 -41,352.2 -41,318.9 -27.6,318.9 -16.4,309.7 34.4,316.8 35.8,320.1 
					52.2,323.2 54.9,320.9 56.7,320.9 61.2,371 64.4,373 66,419.4 61,422 46.7,416.4 37.9,378 34.7,375.3 33.2,371.4 10.6,368 
					4.8,369.6 -10.2,362.9 -27.3,362.9 -37.1,351.9 -41,351.9 				"/>
			</defs>
			<clipPath id="SVGID_46_">
				<use xlink:href="#SVGID_45_"  style="overflow:visible;"/>
			</clipPath>
			<polygon id="XMLID_657_" class="st47" points="63.9,413.2 46.7,406.3 45.3,400.9 63.5,408.1 			"/>
		</g>
		<g>
			<defs>
				<polyline id="SVGID_47_" points="-41,318.9 -41,319.9 -41,352.2 -41,318.9 -27.6,318.9 -16.4,309.7 34.4,316.8 35.8,320.1 
					52.2,323.2 54.9,320.9 56.7,320.9 61.2,371 64.4,373 66,419.4 61,422 46.7,416.4 37.9,378 34.7,375.3 33.2,371.4 10.6,368 
					4.8,369.6 -10.2,362.9 -27.3,362.9 -37.1,351.9 -41,351.9 				"/>
			</defs>
			<clipPath id="SVGID_48_">
				<use xlink:href="#SVGID_47_"  style="overflow:visible;"/>
			</clipPath>
			<g id="XMLID_645_" class="st48">
				<polygon id="XMLID_656_" class="st38" points="-27.6,320 -10,362.7 3.2,370.6 33.4,370.2 33.6,368.6 35.8,314.2 -16.6,308.5 
									"/>
				<polygon id="XMLID_655_" class="st32" points="33.6,368.6 36.4,373.6 40.3,377 48.5,414.7 61.2,419.9 65.9,417.8 67,420.1 
					62.5,425.2 49.9,424.1 43.9,414.6 33.2,371.4 				"/>
				<polygon id="XMLID_654_" class="st31" points="33.4,370.2 35.2,374.2 38.5,376.8 47.4,415.8 61.5,421.3 66.6,418.6 66.3,420.3 
					57,423.6 44.1,417.6 36.1,389.6 33.2,371.4 				"/>
				<polygon id="XMLID_653_" class="st33" points="-10.2,362.2 -15,362.3 -15,364.1 -10.1,364.2 				"/>
				<polygon id="XMLID_652_" class="st31" points="-10,362.2 5.1,368.6 10.7,367.1 33.4,370.2 33.2,371.8 3.7,374 -10,363.3 				"/>
				<polygon id="XMLID_651_" class="st38" points="34.4,317 33.6,368.6 35.8,320.3 				"/>
				<path id="XMLID_650_" class="st35" d="M-16.4,310.3"/>
				<polygon id="XMLID_649_" class="st36" points="-10.2,362.2 -0.9,350.3 33.6,368.6 9.8,366.2 				"/>
				
					<linearGradient id="XMLID_15_" gradientUnits="userSpaceOnUse" x1="9.9" y1="464.0374" x2="9.9" y2="489.8584" gradientTransform="matrix(1 0 0 -1 0 841.67)">
					<stop  offset="0" style="stop-color:#CE9008"/>
					<stop  offset="0.1502" style="stop-color:#C98C0B"/>
					<stop  offset="0.3144" style="stop-color:#BC7E0F"/>
					<stop  offset="0.4852" style="stop-color:#A86913"/>
					<stop  offset="0.6596" style="stop-color:#8D4D14"/>
					<stop  offset="0.6912" style="stop-color:#884813"/>
					<stop  offset="0.7556" style="stop-color:#764015"/>
					<stop  offset="0.854" style="stop-color:#603514"/>
					<stop  offset="0.9389" style="stop-color:#532E13"/>
					<stop  offset="1" style="stop-color:#4E2B12"/>
				</linearGradient>
				<polygon id="XMLID_648_" class="st49" points="-7.8,361.7 -0.2,352.4 27.6,366.8 8.4,364.8 				"/>
				<polygon id="XMLID_647_" class="st35" points="-0.9,350.3 -16.4,310.3 -27.6,320 -10.2,362.2 				"/>
				<polygon id="XMLID_646_" class="st39" points="54.9,320.4 59.2,372.9 62.5,374.9 64.2,417.6 60.8,377 57.3,374.6 52.2,323 				
					"/>
			</g>
		</g>
		<g>
			<defs>
				<polyline id="SVGID_49_" points="-41,318.9 -41,319.9 -41,352.2 -41,318.9 -27.6,318.9 -16.4,309.7 34.4,316.8 35.8,320.1 
					52.2,323.2 54.9,320.9 56.7,320.9 61.2,371 64.4,373 66,419.4 61,422 46.7,416.4 37.9,378 34.7,375.3 33.2,371.4 10.6,368 
					4.8,369.6 -10.2,362.9 -27.3,362.9 -37.1,351.9 -41,351.9 				"/>
			</defs>
			<clipPath id="SVGID_50_">
				<use xlink:href="#SVGID_49_"  style="overflow:visible;"/>
			</clipPath>
			<polygon id="XMLID_644_" class="st50" points="59.2,372.9 57.3,374.6 60.8,377 62.5,374.9 			"/>
		</g>
		<g>
			<defs>
				<polyline id="SVGID_51_" points="-41,318.9 -41,319.9 -41,352.2 -41,318.9 -27.6,318.9 -16.4,309.7 34.4,316.8 35.8,320.1 
					52.2,323.2 54.9,320.9 56.7,320.9 61.2,371 64.4,373 66,419.4 61,422 46.7,416.4 37.9,378 34.7,375.3 33.2,371.4 10.6,368 
					4.8,369.6 -10.2,362.9 -27.3,362.9 -37.1,351.9 -41,351.9 				"/>
			</defs>
			<clipPath id="SVGID_52_">
				<use xlink:href="#SVGID_51_"  style="overflow:visible;"/>
			</clipPath>
			<polygon id="XMLID_643_" class="st51" points="47.3,415.8 46.6,416.4 61,422 66,419.3 66.2,418.8 61.1,421.1 			"/>
		</g>
		<g>
			<defs>
				<polyline id="SVGID_53_" points="-41,318.9 -41,319.9 -41,352.2 -41,318.9 -27.6,318.9 -16.4,309.7 34.4,316.8 35.8,320.1 
					52.2,323.2 54.9,320.9 56.7,320.9 61.2,371 64.4,373 66,419.4 61,422 46.7,416.4 37.9,378 34.7,375.3 33.2,371.4 10.6,368 
					4.8,369.6 -10.2,362.9 -27.3,362.9 -37.1,351.9 -41,351.9 				"/>
			</defs>
			<clipPath id="SVGID_54_">
				<use xlink:href="#SVGID_53_"  style="overflow:visible;"/>
			</clipPath>
			<polygon id="XMLID_642_" class="st52" points="4.8,369.7 5,368.6 10.7,367.1 33.4,370.2 33.2,371.4 10.6,368 			"/>
		</g>
		<g>
			<defs>
				<polyline id="SVGID_55_" points="-41,318.9 -41,319.9 -41,352.2 -41,318.9 -27.6,318.9 -16.4,309.7 34.4,316.8 35.8,320.1 
					52.2,323.2 54.9,320.9 56.7,320.9 61.2,371 64.4,373 66,419.4 61,422 46.7,416.4 37.9,378 34.7,375.3 33.2,371.4 10.6,368 
					4.8,369.6 -10.2,362.9 -27.3,362.9 -37.1,351.9 -41,351.9 				"/>
			</defs>
			<clipPath id="SVGID_56_">
				<use xlink:href="#SVGID_55_"  style="overflow:visible;"/>
			</clipPath>
			<polygon id="XMLID_641_" class="st53" points="10.7,367.1 10.6,368 4.8,369.7 5,368.6 			"/>
		</g>
		<g>
			<defs>
				<polyline id="SVGID_57_" points="-41,318.9 -41,319.9 -41,352.2 -41,318.9 -27.6,318.9 -16.4,309.7 34.4,316.8 35.8,320.1 
					52.2,323.2 54.9,320.9 56.7,320.9 61.2,371 64.4,373 66,419.4 61,422 46.7,416.4 37.9,378 34.7,375.3 33.2,371.4 10.6,368 
					4.8,369.6 -10.2,362.9 -27.3,362.9 -37.1,351.9 -41,351.9 				"/>
			</defs>
			<clipPath id="SVGID_58_">
				<use xlink:href="#SVGID_57_"  style="overflow:visible;"/>
			</clipPath>
			<polygon id="XMLID_640_" class="st54" points="61,421.1 61,422 66,419.3 66.2,418.8 			"/>
		</g>
		<g>
			<defs>
				<polyline id="SVGID_59_" points="-41,318.9 -41,319.9 -41,352.2 -41,318.9 -27.6,318.9 -16.4,309.7 34.4,316.8 35.8,320.1 
					52.2,323.2 54.9,320.9 56.7,320.9 61.2,371 64.4,373 66,419.4 61,422 46.7,416.4 37.9,378 34.7,375.3 33.2,371.4 10.6,368 
					4.8,369.6 -10.2,362.9 -27.3,362.9 -37.1,351.9 -41,351.9 				"/>
			</defs>
			<clipPath id="SVGID_60_">
				<use xlink:href="#SVGID_59_"  style="overflow:visible;"/>
			</clipPath>
			<polygon id="XMLID_639_" class="st55" points="-33.7,318.9 -22.1,332.6 -18.1,342.1 -40.9,327.8 -40.8,318.9 			"/>
		</g>
		<g>
			<defs>
				<polyline id="SVGID_61_" points="-41,318.9 -41,319.9 -41,352.2 -41,318.9 -27.6,318.9 -16.4,309.7 34.4,316.8 35.8,320.1 
					52.2,323.2 54.9,320.9 56.7,320.9 61.2,371 64.4,373 66,419.4 61,422 46.7,416.4 37.9,378 34.7,375.3 33.2,371.4 10.6,368 
					4.8,369.6 -10.2,362.9 -27.3,362.9 -37.1,351.9 -41,351.9 				"/>
			</defs>
			<clipPath id="SVGID_62_">
				<use xlink:href="#SVGID_61_"  style="overflow:visible;"/>
			</clipPath>
			<polygon id="XMLID_638_" class="st56" points="-14.6,351.4 -40.9,333.1 -40.9,339.5 -36.1,339.9 -21.8,356.5 -14.5,359.4 
				-12.9,362.9 -10,362.9 			"/>
		</g>
		<g>
			<defs>
				<polyline id="SVGID_63_" points="-41,318.9 -41,319.9 -41,352.2 -41,318.9 -27.6,318.9 -16.4,309.7 34.4,316.8 35.8,320.1 
					52.2,323.2 54.9,320.9 56.7,320.9 61.2,371 64.4,373 66,419.4 61,422 46.7,416.4 37.9,378 34.7,375.3 33.2,371.4 10.6,368 
					4.8,369.6 -10.2,362.9 -27.3,362.9 -37.1,351.9 -41,351.9 				"/>
			</defs>
			<clipPath id="SVGID_64_">
				<use xlink:href="#SVGID_63_"  style="overflow:visible;"/>
			</clipPath>
			<polygon id="XMLID_637_" class="st57" points="-39.2,318.9 -22.1,362.1 -9.2,363.6 -27.6,318.9 			"/>
		</g>
	</g>
	<g id="XMLID_629_">
		<g>
			<path id="XMLID_630_" class="st12" d="M-23.3,357.4l-12.6-14.9c-0.7-0.9-1.9-1.4-3-1.4h-2h-2c-1.2,0-2.3,0.5-3,1.4l-12.7,14.9
				c-0.6,0.7-1.3,1.1-2.2,1.3l-3.3,0.7c-1.8,0.4-3.1,2-3.1,3.9v43.6c0,0.3,0,0.7,0.1,1l11.4,44.1c0.2,0.6,0.4,1.1,0.8,1.6l11,12.7
				c1.6,1.8,4.4,1.8,6,0l10.9-12.7c0.4-0.5,0.7-1,0.8-1.6l11.3-44.1c0.1-0.3,0.1-0.6,0.1-1v-43.7c0-1.9-1.3-3.5-3.1-3.9l-3.2-0.7
				C-22,358.5-22.8,358.1-23.3,357.4z"/>
		</g>
		<g>
			<defs>
				<path id="SVGID_65_" d="M-23.3,357.4l-12.6-14.9c-0.7-0.9-1.9-1.4-3-1.4h-2h-2c-1.2,0-2.3,0.5-3,1.4l-12.7,14.9
					c-0.6,0.7-1.3,1.1-2.2,1.3l-3.3,0.7c-1.8,0.4-3.1,2-3.1,3.9v43.6c0,0.3,0,0.7,0.1,1l11.4,44.1c0.2,0.6,0.4,1.1,0.8,1.6l11,12.7
					c1.6,1.8,4.4,1.8,6,0l10.9-12.7c0.4-0.5,0.7-1,0.8-1.6l11.3-44.1c0.1-0.3,0.1-0.6,0.1-1v-43.7c0-1.9-1.3-3.5-3.1-3.9l-3.2-0.7
					C-22,358.5-22.8,358.1-23.3,357.4z"/>
			</defs>
			<clipPath id="SVGID_66_">
				<use xlink:href="#SVGID_65_"  style="overflow:visible;"/>
			</clipPath>
			<path id="XMLID_634_" class="st58" d="M-40.9,341.1c-11.3,51.3-1.1,78.4-1.1,117l-25.2-5.9l-2.3-91.9l24.1-22.4L-40.9,341.1z"/>
		</g>
		<g>
			<defs>
				<path id="SVGID_67_" d="M-23.3,357.4l-12.6-14.9c-0.7-0.9-1.9-1.4-3-1.4h-2h-2c-1.2,0-2.3,0.5-3,1.4l-12.7,14.9
					c-0.6,0.7-1.3,1.1-2.2,1.3l-3.3,0.7c-1.8,0.4-3.1,2-3.1,3.9v43.6c0,0.3,0,0.7,0.1,1l11.4,44.1c0.2,0.6,0.4,1.1,0.8,1.6l11,12.7
					c1.6,1.8,4.4,1.8,6,0l10.9-12.7c0.4-0.5,0.7-1,0.8-1.6l11.3-44.1c0.1-0.3,0.1-0.6,0.1-1v-43.7c0-1.9-1.3-3.5-3.1-3.9l-3.2-0.7
					C-22,358.5-22.8,358.1-23.3,357.4z"/>
			</defs>
			<clipPath id="SVGID_68_">
				<use xlink:href="#SVGID_67_"  style="overflow:visible;"/>
			</clipPath>
			<polygon id="XMLID_633_" class="st59" points="-59.2,358.4 -68,413 -68,357 			"/>
		</g>
		<g>
			<defs>
				<path id="SVGID_69_" d="M-23.3,357.4l-12.6-14.9c-0.7-0.9-1.9-1.4-3-1.4h-2h-2c-1.2,0-2.3,0.5-3,1.4l-12.7,14.9
					c-0.6,0.7-1.3,1.1-2.2,1.3l-3.3,0.7c-1.8,0.4-3.1,2-3.1,3.9v43.6c0,0.3,0,0.7,0.1,1l11.4,44.1c0.2,0.6,0.4,1.1,0.8,1.6l11,12.7
					c1.6,1.8,4.4,1.8,6,0l10.9-12.7c0.4-0.5,0.7-1,0.8-1.6l11.3-44.1c0.1-0.3,0.1-0.6,0.1-1v-43.7c0-1.9-1.3-3.5-3.1-3.9l-3.2-0.7
					C-22,358.5-22.8,358.1-23.3,357.4z"/>
			</defs>
			<clipPath id="SVGID_70_">
				<use xlink:href="#SVGID_69_"  style="overflow:visible;"/>
			</clipPath>
			<polygon id="XMLID_632_" class="st60" points="-23.5,358.4 -15,410.7 -15,357.3 			"/>
		</g>
		<g>
			<defs>
				<path id="SVGID_71_" d="M-23.3,357.4l-12.6-14.9c-0.7-0.9-1.9-1.4-3-1.4h-2h-2c-1.2,0-2.3,0.5-3,1.4l-12.7,14.9
					c-0.6,0.7-1.3,1.1-2.2,1.3l-3.3,0.7c-1.8,0.4-3.1,2-3.1,3.9v43.6c0,0.3,0,0.7,0.1,1l11.4,44.1c0.2,0.6,0.4,1.1,0.8,1.6l11,12.7
					c1.6,1.8,4.4,1.8,6,0l10.9-12.7c0.4-0.5,0.7-1,0.8-1.6l11.3-44.1c0.1-0.3,0.1-0.6,0.1-1v-43.7c0-1.9-1.3-3.5-3.1-3.9l-3.2-0.7
					C-22,358.5-22.8,358.1-23.3,357.4z"/>
			</defs>
			<clipPath id="SVGID_72_">
				<use xlink:href="#SVGID_71_"  style="overflow:visible;"/>
			</clipPath>
			<path id="XMLID_631_" class="st61" d="M-26,352.8l5.2,15.2c0,0,5-1.5,10,6.4c4.1,6.6-4.2-15.7-5-15.9
				C-16.5,358.3-26,352.8-26,352.8z"/>
		</g>
	</g>
	<path id="XMLID_628_" class="st45" d="M-28.5,359.2l-11.3-13.8c-0.3-0.4-0.8-0.6-1.3-0.7l0,0c-0.1,0-0.1,0-0.2,0l0,0
		c-0.5,0-1,0.3-1.3,0.7L-54,359.2c-0.3,0.3-0.4,0.7-0.4,1.1l-1.4,53.2c0,1,0.8,1.9,1.8,1.9h12.5h12.9c1,0,1.8-0.8,1.8-1.9l-1.3-53.2
		C-28.1,359.9-28.3,359.5-28.5,359.2z"/>
	<g id="XMLID_625_">
		<path id="XMLID_627_" class="st62" d="M-41.8,346.1L-41.8,346.1c-0.2,0-0.4,0.1-0.5,0.2l-11.2,13.9c-0.1,0.1-0.1,0.2-0.1,0.3
			l-1.4,52.7c0,0.3,0.2,0.6,0.6,0.6h12.9h0.3v-67.1C-41.2,346.4-41.5,346.1-41.8,346.1z"/>
		<path id="XMLID_626_" class="st63" d="M-29.1,360.2l-11.1-13.9c-0.1-0.1-0.3-0.2-0.4-0.2l0,0c-0.3,0-0.6,0.2-0.6,0.6v66.6
			c0,0.3,0.3,0.6,0.6,0.6h12.5c0.3,0,0.6-0.3,0.6-0.6l-1.3-52.7C-29,360.5-29,360.3-29.1,360.2z"/>
	</g>
	<polygon id="XMLID_624_" class="st64" points="-28.8,364.9 -41.3,400 -27.7,412.4 	"/>
	<g id="XMLID_618_">
		<g>
			<path id="XMLID_619_" class="st17" d="M-37.5,398.9l-3.3-0.9c-0.3-0.1-0.6-0.1-0.9,0l-3.3,0.9c-1.5,0.4-2.7,1.4-3.5,2.7
				l-7.5,12.8c-0.2,0.3-0.2,0.6-0.2,1L-45,542.1c0,0.3,0.1,0.6,0.3,0.8l2.1,2.7c0.6,0.8,1.9,0.8,2.6,0l2.1-2.7
				c0.2-0.2,0.3-0.5,0.3-0.8l11.2-126.7c0-0.3,0-0.7-0.2-1l-7.5-12.8C-34.8,400.2-36,399.3-37.5,398.9z"/>
		</g>
		<g>
			<defs>
				<path id="SVGID_73_" d="M-37.5,398.9l-3.3-0.9c-0.3-0.1-0.6-0.1-0.9,0l-3.3,0.9c-1.5,0.4-2.7,1.4-3.5,2.7l-7.5,12.8
					c-0.2,0.3-0.2,0.6-0.2,1L-45,542.1c0,0.3,0.1,0.6,0.3,0.8l2.1,2.7c0.6,0.8,1.9,0.8,2.6,0l2.1-2.7c0.2-0.2,0.3-0.5,0.3-0.8
					l11.2-126.7c0-0.3,0-0.7-0.2-1l-7.5-12.8C-34.8,400.2-36,399.3-37.5,398.9z"/>
			</defs>
			<clipPath id="SVGID_74_">
				<use xlink:href="#SVGID_73_"  style="overflow:visible;"/>
			</clipPath>
			<polygon id="XMLID_623_" class="st65" points="-46.5,523.7 -41.2,531.7 -35.9,523.7 -36.6,531 -41.2,540.8 -45.9,531 			"/>
		</g>
		<g>
			<defs>
				<path id="SVGID_75_" d="M-37.5,398.9l-3.3-0.9c-0.3-0.1-0.6-0.1-0.9,0l-3.3,0.9c-1.5,0.4-2.7,1.4-3.5,2.7l-7.5,12.8
					c-0.2,0.3-0.2,0.6-0.2,1L-45,542.1c0,0.3,0.1,0.6,0.3,0.8l2.1,2.7c0.6,0.8,1.9,0.8,2.6,0l2.1-2.7c0.2-0.2,0.3-0.5,0.3-0.8
					l11.2-126.7c0-0.3,0-0.7-0.2-1l-7.5-12.8C-34.8,400.2-36,399.3-37.5,398.9z"/>
			</defs>
			<clipPath id="SVGID_76_">
				<use xlink:href="#SVGID_75_"  style="overflow:visible;"/>
			</clipPath>
			<polygon id="XMLID_622_" class="st66" points="-48.3,509.8 -41.2,517.8 -34.1,509.8 -35,517.1 -41.2,526.8 -47.5,517.1 			"/>
		</g>
		<g>
			<defs>
				<path id="SVGID_77_" d="M-37.5,398.9l-3.3-0.9c-0.3-0.1-0.6-0.1-0.9,0l-3.3,0.9c-1.5,0.4-2.7,1.4-3.5,2.7l-7.5,12.8
					c-0.2,0.3-0.2,0.6-0.2,1L-45,542.1c0,0.3,0.1,0.6,0.3,0.8l2.1,2.7c0.6,0.8,1.9,0.8,2.6,0l2.1-2.7c0.2-0.2,0.3-0.5,0.3-0.8
					l11.2-126.7c0-0.3,0-0.7-0.2-1l-7.5-12.8C-34.8,400.2-36,399.3-37.5,398.9z"/>
			</defs>
			<clipPath id="SVGID_78_">
				<use xlink:href="#SVGID_77_"  style="overflow:visible;"/>
			</clipPath>
			<polygon id="XMLID_621_" class="st67" points="-49.9,494.7 -41.2,502.7 -32.5,494.7 -33.6,501.9 -41.2,511.7 -48.9,502 			"/>
		</g>
		<g>
			<defs>
				<path id="SVGID_79_" d="M-37.5,398.9l-3.3-0.9c-0.3-0.1-0.6-0.1-0.9,0l-3.3,0.9c-1.5,0.4-2.7,1.4-3.5,2.7l-7.5,12.8
					c-0.2,0.3-0.2,0.6-0.2,1L-45,542.1c0,0.3,0.1,0.6,0.3,0.8l2.1,2.7c0.6,0.8,1.9,0.8,2.6,0l2.1-2.7c0.2-0.2,0.3-0.5,0.3-0.8
					l11.2-126.7c0-0.3,0-0.7-0.2-1l-7.5-12.8C-34.8,400.2-36,399.3-37.5,398.9z"/>
			</defs>
			<clipPath id="SVGID_80_">
				<use xlink:href="#SVGID_79_"  style="overflow:visible;"/>
			</clipPath>
			<path id="XMLID_620_" class="st68" d="M-41.5,398.7c-0.9,2.5-0.3,142.2,0.3,151.8c0.3,4.1-8.1-9.3-8.1-9.3l-12.3-136.3l14.2-10.9
				c0,0,5.2,2.6,6.6,3.9"/>
		</g>
	</g>
	<polygon id="XMLID_617_" class="st69" points="-40.9,378.1 -28.2,384.6 -28.3,379.8 -41,374.2 	"/>
	<polygon id="XMLID_616_" class="st69" points="-42,370 -28.7,377.2 -29,370.9 -42,364.8 	"/>
	<path id="XMLID_615_" class="st70" d="M-80.4,349.6l-0.2-0.1c-0.2-0.1-0.3-0.3-0.2-0.5l14.7-37.4c0.1-0.2,0.3-0.3,0.5-0.2l0.2,0.1
		c0.2,0.1,0.3,0.3,0.2,0.5l-14.7,37.4C-80,349.6-80.2,349.7-80.4,349.6z"/>
	<path id="XMLID_614_" class="st71" d="M-41.3,437h-0.2c-0.2,0-0.4-0.2-0.4-0.4l0.1-91.6c0-0.2,0.2-0.4,0.4-0.4h0.2
		c0.2,0,0.4,0.2,0.4,0.4l-0.1,91.6C-40.9,436.8-41.1,437-41.3,437z"/>
	<path id="XMLID_613_" class="st70" d="M-11.3,322.4l0.2-0.1c0.2-0.1,0.3-0.3,0.2-0.5l-4-10.1c-0.1-0.2-0.3-0.3-0.5-0.2l-0.2,0.1
		c-0.2,0.1-0.3,0.3-0.2,0.5l4,10.1C-11.7,322.4-11.5,322.4-11.3,322.4z"/>
	<path id="XMLID_612_" class="st72" d="M-15.9,399.4h0.2c0.2,0,0.3-0.2,0.3-0.4l-6.4-39c0-0.2-0.2-0.3-0.4-0.3h-0.2
		c-0.2,0-0.3,0.2-0.3,0.4l6.4,39C-16.3,399.3-16.1,399.4-15.9,399.4z"/>
	<path id="XMLID_611_" class="st70" d="M33.1,360.3h-0.2c-0.2,0-0.4-0.2-0.4-0.4l0.9-40.1c0-0.2,0.2-0.4,0.4-0.4H34
		c0.2,0,0.4,0.2,0.4,0.4l-0.9,40.1C33.5,360.1,33.3,360.3,33.1,360.3z"/>
	<polygon id="XMLID_610_" class="st31" points="-54.4,320 -72.3,361.7 -71.8,362.2 	"/>
	<g id="XMLID_606_">
		<circle id="XMLID_609_" class="st71" cx="-41.3" cy="404.2" r="4.8"/>
		<circle id="XMLID_608_" class="st71" cx="-41.3" cy="413.9" r="3.2"/>
		<circle id="XMLID_607_" class="st71" cx="-41.3" cy="421.9" r="2.6"/>
	</g>
	<polygon id="XMLID_605_" class="st73" points="-74.2,361.7 -95.5,359.7 -81.8,352.4 	"/>
	<polygon id="XMLID_604_" class="st73" points="27.6,366.8 -4.2,357.3 -0.2,352.4 	"/>
	<polygon id="XMLID_603_" class="st71" points="-48.1,318.9 -59.9,332.8 -64,342.1 -40.9,327.8 -40.8,318.9 	"/>
	<polygon id="XMLID_602_" class="st71" points="-67.2,351.4 -40.9,333.1 -40.9,339.5 -45.7,339.9 -60,356.5 -67.2,359.4 
		-68.9,362.9 -71.7,362.9 	"/>
	<path id="XMLID_601_" class="st45" d="M-41.1,340.3h0.2c0.2,0,0.4-0.2,0.4-0.4v-19.1c0-0.2-0.2-0.4-0.4-0.4h-0.2
		c-0.2,0-0.4,0.2-0.4,0.4v19.1C-41.4,340.1-41.3,340.3-41.1,340.3z"/>
	<g id="XMLID_434_">
		<path id="XMLID_600_" class="st35" d="M-96.3,321.9c6.3-0.5,11.8,3.2,11.5,9.3c-0.4,7.2-8.2,13-16.3,12.3
			c-6.8-0.6-10.3-6-8.6-11.6c1.4-4.8,6.5-8.9,12.1-9.8c-7,1.1-13.3,6.2-15.3,12.3c-2.3,7.2,1.6,14.8,10.5,16.4
			c10.9,1.9,21.8-6.2,21.9-16.4C-80.5,326.1-88.1,321.2-96.3,321.9z"/>
		<path id="XMLID_599_" class="st35" d="M-91,333.4c-0.5,4.2-4.9,7.5-9.5,7.2c-4.2-0.3-6.6-3.5-5.6-7.1c0.9-3.3,4.4-6.1,8.2-6.3
			C-93.9,326.9-90.6,329.5-91,333.4z"/>
		<g id="XMLID_586_">
			<path id="XMLID_598_" class="st74" d="M-98.3,324.5l-0.1,0.5L-98.3,324.5c-4.1,0.7-7.8,3.8-8.7,7.4c-1.1,4.2,1.6,8,6.6,8.3
				c5.6,0.3,11-3.8,11.5-8.8c0.4-4.2-3-7.1-7.4-7.1l-0.1,0.5l0.1-0.5c-0.3,0-0.7,0-1.1,0.1C-97.7,324.4-98,324.5-98.3,324.5z"/>
			<g id="XMLID_594_">
				<path id="XMLID_597_" class="st35" d="M-94.7,323.1l1.1-6.5l2.1-1.9l-1.4,0.2l-1.9,1.9l-1.1,6.2l-0.2,1.1
					c4.7,0.1,7.9,3.1,7.5,7.3c-0.2,1.8-0.9,3.5-2.2,5c-1.8,3.2-5.5,5.4-9.4,5.3c6.6,0.2,12.8-4.7,13.2-10.5
					C-86.7,326.7-90.3,323.6-94.7,323.1z"/>
				<path id="XMLID_596_" class="st35" d="M-96.9,317.1l-1.2,6.1l-0.2,1.2l0,0v0.1c-4.1,0.7-7.7,3.8-8.7,7.4
					c-0.2,0.9-0.3,1.8-0.2,2.6c0-0.3,0.1-0.6,0.2-1c1-3.7,5-6.8,9.3-7.2c4.7-0.4,8.5,2.6,8.1,7c0,0.4-0.1,0.8-0.2,1.2
					c0.5-1,0.8-2,0.9-3.1c0.4-4.2-2.9-7.1-7.5-7.1l0.1-0.4l0,0l0.2-1l1.1-6.3h0.1l0,0l1.7-1.7l-4.6,0.9L-96.9,317.1L-96.9,317.1z"/>
				<path id="XMLID_595_" class="st35" d="M-107.3,336.1c-0.4-1.3-0.6-2.7-0.2-4.2c1-3.6,4.7-6.7,8.6-7.6l0.2-1l1.2-6l-1-1.3
					l-1.3,0.2l1.4,1.2l-1.3,6.3c-4.1,1.3-7.7,4.5-8.8,8.2c-1.3,4.7,1.5,9.2,7.1,9.8C-104.7,341.2-106.9,338.9-107.3,336.1z"/>
			</g>
			<path id="XMLID_593_" class="st32" d="M13.2,321.9c-6.3-0.5-11.8,3.2-11.5,9.3c0.4,7.2,8.2,13,16.3,12.3
				c6.9-0.6,10.3-6.1,8.6-11.6c-1.4-4.8-6.5-8.9-12.1-9.8c7,1.1,13.3,6.2,15.3,12.3c2.3,7.2-1.6,14.8-10.5,16.4
				c-10.9,1.9-21.8-6.2-21.9-16.4C-2.6,326.1,5,321.2,13.2,321.9z"/>
			<path id="XMLID_592_" class="st32" d="M7.9,333.4c0.5,4.2,4.9,7.5,9.5,7.2c4.2-0.3,6.6-3.5,5.6-7.1c-0.9-3.3-4.4-6.1-8.2-6.3
				C10.8,326.9,7.5,329.5,7.9,333.4z"/>
			<g id="XMLID_588_">
				<path id="XMLID_591_" class="st32" d="M11.6,323.1l-1.1-6.5l-2.1-1.9l1.4,0.3l1.9,1.9l1.1,6.2l0.2,1.1c-4.7,0.1-7.9,3.1-7.5,7.3
					c0.2,1.8,0.9,3.5,2.2,5c1.8,3.2,5.5,5.4,9.4,5.3c-6.6,0.2-12.8-4.7-13.2-10.5C3.6,326.7,7.2,323.6,11.6,323.1z"/>
				<path id="XMLID_590_" class="st32" d="M13.9,317.1l1.2,6.1l0.2,1.2l0,0v0.1c4.1,0.7,7.7,3.8,8.7,7.4c0.2,0.9,0.3,1.8,0.2,2.6
					c0-0.3-0.1-0.6-0.2-1c-1-3.7-5-6.8-9.3-7.2c-4.7-0.4-8.5,2.6-8.1,7c0,0.4,0.1,0.8,0.2,1.2c-0.5-1-0.8-2-0.9-3.1
					c-0.4-4.2,2.9-7.1,7.5-7.1l-0.1-0.4l0,0l-0.2-1l-1.1-6.3h-0.1l0,0l-1.7-1.7l4.6,0.9L13.9,317.1L13.9,317.1z"/>
				<path id="XMLID_589_" class="st32" d="M24.2,336.1c0.4-1.3,0.6-2.7,0.2-4.2c-1-3.6-4.7-6.7-8.6-7.6l-0.2-1l-1.2-6l1-1.3l1.3,0.2
					l-1.4,1.2l1.3,6.3c4.1,1.3,7.7,4.5,8.8,8.2c1.3,4.7-1.5,9.2-7.1,9.8C21.6,341.2,23.9,338.9,24.2,336.1z"/>
			</g>
		</g>
	</g>
</g>
</svg>
