<?xml version="1.0" encoding="utf-8"?>
<!-- Generator: Adobe Illustrator 19.0.0, SVG Export Plug-In . SVG Version: 6.00 Build 0)  -->
<svg version="1.1" id="Calque_1" xmlns="http://www.w3.org/2000/svg" xmlns:xlink="http://www.w3.org/1999/xlink" x="0px" y="0px"
	 viewBox="0 0 256 256" style="enable-background:new 0 0 256 256;" xml:space="preserve">
<style type="text/css">
	.st0{fill:#1D090A;}
	.st1{fill:#4A1312;}
	.st2{fill:#771710;}
	.st3{fill:#B81D1A;}
	.st4{fill:#322A38;}
	.st5{fill:#9A1A15;}
	.st6{fill:#B7978E;}
	.st7{fill:#D8BEB9;}
	.st8{fill:#8F615B;}
	.st9{fill:#54485F;}
	.st10{fill:#46B8AF;}
	.st11{fill:#1E969B;}
	.st12{fill:#907879;}
	.st13{fill:#6A5464;}
</style>
<g id="TEMP_Oeil">
	<path id="XMLID_709_" class="st0" d="M156.5,13.4c1.8,0.2,3.6,0.7,5.5,1.1c3.7,0.7,7.4,1.6,11.1,2.3c0.4,0.1,0.7,0.3,0.8,0.7
		c0.4,0.9,0.8,1.7,1.2,2.5c0,0.1,0,0.1,0,0.2c3.4,7.4,6.9,14.8,10.3,22.2c0.2,0.4,0.4,0.8,0.6,1.1c0.1,0.3,0.2,0.6,0.5,0.9
		c0.2,0.9,0.7,1.6,1.1,2.4c0.1,0.4,0.3,0.9,0.6,1.2c0.2,0.5,0.3,0.9,0.5,1.4c0.7,1.2,1,2.6,1.9,3.7c0,0.4,0.2,0.8,0.4,1.2
		c0.8,1.7,1.6,3.5,2.4,5.2c0.3,0.5,0.4,1.1,0.8,1.6c0.2,0.8,0.6,1.5,1,2.2c0,0.3,0.2,0.6,0.3,0.8c0.5,1.2,1,2.4,1.6,3.5
		c1.1,2.4,2.1,4.8,3.3,7.1c0.2,0.5,0.3,0.9,0,1.4c-0.6,1.1-1,2.3-1.6,3.4c-1.3,2.8-2.6,5.6-3.8,8.4c-0.3,0.6-0.6,1.2-0.8,1.8
		c-0.2,0.5-0.4,1-0.6,1.4c-0.8,1.8-1.6,3.6-2.4,5.3c-0.3,0.3-0.8,0-1.2,0.3c-0.9-0.1-1.7,0.1-2.6,0.2c-0.3,0-0.6,0.1-0.9,0
		c-0.1-0.2-0.3-0.3-0.6-0.2c0,0,0,0,0,0c0-0.3-0.2-0.4-0.5-0.3c0,0,0,0,0,0c-0.2-0.6-0.9-0.7-1.3-1c-1-0.7-2-1.4-3-2
		c-0.4-0.3-0.8-0.6-1.2-0.8c-0.6-0.5-1,0.2-1.5,0.4c-1.5,0.8-3,1.6-4.5,2.5c-0.2,0.1-0.5,0.2-0.7,0.3c-0.3,0.2-0.7,0.3-1,0.5
		c-0.5-0.1-0.9,0.2-1.3,0.4c-0.5,0.3-0.8,0.3-0.8-0.4c0-0.3,0-0.9-0.5-0.7c-1.1,0.6-2.3,0.9-3.1,2c-0.8,1.2-1.8,2.3-2.6,3.5
		c-1.2,1.7-2.5,3.2-3.5,4.9c-0.2,0.1-0.3,0.3-0.5,0.4c-0.1-0.2-0.2-0.3-0.4-0.1c-0.6,0.9-1.6,1.6-1.7,2.8c-0.1,2.2-0.2,4.4-0.3,6.6
		c-0.1,2-0.2,4-0.3,6c-0.2,3.2-0.3,6.4-0.5,9.6c-0.1,2-0.2,3.9-0.3,5.9c-0.1,3.2-0.3,6.5-0.5,9.7c-0.1,2-0.2,4-0.3,6
		c-0.1,3.3-0.3,6.6-0.5,10c-0.1,2-0.1,3.9-0.3,5.9c0,0,0,0.1,0,0.1c-0.6,0.1-1.2,0.4-1.8,0.7c-0.7,0.3-1.4,0.6-2.1,0.8
		c-0.4,0.2-0.6,0.4-0.6,0.9c0.1,7.6-0.1,15.1-0.2,22.7c0,3.5,0,6.9-0.1,10.4c-0.1,4.2,0,8.4-0.1,12.6c0,1.9,0.2,3.6,0.9,5.3
		c0.3,1,0.5,2,1,2.9c0,0.2,0,0.3,0,0.5c0,0.7-0.1,1.5-0.1,2.2c-0.1,3.2-0.3,6.5-0.5,9.7c-0.1,2-0.2,4-0.3,6.1
		c-0.2,3.6-0.4,7.2-0.5,10.8c-0.3,0.2-0.6,0.5-0.8,0.7c-0.6-0.2-0.4-0.7-0.5-1c-1.6-6.6-3.1-13.3-4.6-19.9c-0.5-2.3-1.2-4.5-1.2-6.8
		c-0.1-4,0.1-8-0.1-12c-0.2-3.9,0-7.9-0.2-11.8c-0.2-4.1,0-8.1-0.2-12.2c-0.2-3.9,0-7.8-0.1-11.7c-0.2-7-0.1-14-0.2-21
		c0-0.7,0.1-1.4-0.2-2.2c-0.1-4.1,0.1-8.2-0.1-12.2c-0.1-1.7-0.1-1.7,1.6-1.3c0.1,0,0.2,0,0.3,0c1.3,0.5,2.6,0.8,3.9,1.2
		c0.6,0.2,0.8,0,1-0.5c1.3-3.5,2.7-6.9,4-10.4c0.2-0.5,0.5-1,0.5-1.6c0.2-3,0.4-5.9,0.7-8.9c0.3-3.6,0.5-7.1,0.7-10.7
		c0-0.4-0.1-0.5-0.4-0.5c-1.2,0.1-2.4-0.1-3.7-0.2c-2.2-0.1-4.3-0.2-6.4-0.8c-0.7-0.1-1.4-0.3-2.1-0.4c-0.4-0.1-0.6-0.2-0.6-0.7
		c0-0.9-0.4-1.7-0.3-2.6c0-0.2,0-0.4-0.3-0.4c-0.3-0.1-0.7-0.3-1-0.4c-0.1-0.3-0.4-0.1-0.5-0.2c-0.1,0-0.2-0.1-0.3-0.1
		c-1.6-0.7-1.6-0.7-2,1c0,0.1,0,0.2-0.1,0.3c-0.5,2.7-1.1,5.4-1.7,8.2c-0.2,0.9-0.3,1.8-0.5,2.7c-0.3,1.6-0.6,3.2-0.9,4.8
		c-0.1,0.4-0.4,0.5-0.8,0.4c-0.5-0.1-1-0.3-1.5-0.3c0-1.3,0.1-2.5,0.1-3.7c0-3.1,0.2-6.2,0.2-9.3c0-2.8,0.3-5.6,0.2-8.4
		c0-0.3,0.1-0.6,0.2-0.8c0.9-2.4,1.9-4.9,2.9-7.3c1-0.2,1.9,0.4,2.9,0.2c1.1-0.3,2.3-0.3,3.5-0.3c3.7-0.1,7.4-0.6,11-1.2
		c2.3-0.4,4.7-0.6,6.9-1.7c0.5-0.2,0.7-0.5,0.9-1c1.3-5,1.8-10.1,2-15.2c0.1-0.6,0.3-1.1,0.2-1.7c-0.3-0.7-0.1-1.4-0.2-2.1
		c0-1.3,0.1-2.7,0-4c-0.2-3.4-0.4-6.8-0.7-10.3c-0.1-1.4-0.2-2.9-0.8-4.2c-0.1-0.4-0.1-0.9-0.2-1.3c-0.1-0.5-0.2-1-0.3-1.5
		c-0.1-0.8-0.5-1.5-0.8-2.3c-1.3-3.4-2.1-6.9-3.6-10.2c-0.8-1.9-1.4-3.9-2.7-5.5c-0.2-0.5-0.5-0.9-0.7-1.4c-0.2-0.6-0.5-1.1-0.8-1.6
		c-1.6-2.4-3.1-4.9-4.8-7.2c-1.8-2.4-3.9-4.5-6.9-5.4c-0.2-0.3-0.2-0.6-0.1-0.9c0.3-0.8,0.6-1.5,0.9-2.3c0.2-0.5,0.5-0.9,0.9-1.2
		c1.3-1.2,2.7-1.6,4.2-0.5c0.2,0.1,0.5,0.1,0.7,0.2c0.4,0.2,0.9,0.3,1.2,0.6c1.2,1.1,2.3,2.3,3.5,3.3c1.1,0.9,2,2,3.1,2.9
		c0.1,0.1,0.2,0.2,0.3,0.3c0.5,0.4,0.9,1.2,1.3,1.1c0.5-0.2,0.5-1.1,0.7-1.6c0.5-1,0.7-1.8-0.5-2.5c-0.2-0.1-0.3-0.3-0.4-0.4
		C156,13.7,156.1,13.5,156.5,13.4z M172.3,34c0-0.1,0.1-0.3,0.2-0.4c0.9-0.8,1-1.4,0.4-2.3c-1.4-2.1-2.8-4.2-4.3-6.2
		c-2.6-3.5-5.5-6.6-8.6-9.6c-0.3-0.3-0.6-0.5-1-0.7c-0.4,1.6-0.8,3.2-1.3,4.7c-0.2,0.6-0.1,1,0.2,1.5c1.1,1.6,2.2,3.2,3.2,4.9
		c1.6,2.7,3.7,5.2,4.8,8.2c0.4,1.1,0.9,2.2,1.3,3.3c0.3,0.9,0.7,1.7,1.1,2.7c1.3-1.1,2.5-2,3.7-3C173.5,35.9,173.5,35.8,172.3,34z
		 M171.8,65.3c0.3,1.2,0,2.4,0.4,3.6c0.1-0.2,0.3-0.3,0.4-0.5c0,0.4,0.5,0.7,0.1,1.1c-1.1,1.2-0.8,2.7-0.9,4
		c-0.2,2.1-0.2,4.3-0.4,6.5c-0.1,1.1-0.1,2.2-0.2,3.3c-0.1,1.2-0.3,2.4-0.2,3.8c1.1-0.6,2.1-1.1,3.2-1.6c3-1.3,5.6-3.2,8-5.4
		c1.8-1.6,3-3.6,4.3-5.6c0.4-0.6,0.6-1.2,0.6-2c0-2.2-0.4-4.4-0.6-6.6c-0.3-2.5-1-4.9-1.5-7.4c-0.1-0.5-0.3-0.5-0.7-0.3
		c-0.8,0.4-1.6,0.9-2.4,1.3c-0.9,0.4-1.7,1.1-2.7,1.5c-0.4,0.1-0.8,0.2-1.1-0.3c0.8-0.5,1.7-1,2.5-1.4c1.7-0.9,1.7-0.9,1.2-2.7
		c0.4-0.5,1-0.6,1.5-0.9c0.5-0.3,0.7-0.7,0.6-1.2c-0.8-2.6-1.7-5.2-2.7-7.7c-1.6-3.7-3.2-7.3-5.1-10.8c-0.4-0.7-0.7-0.4-1.1-0.1
		c-1.8,1.5-3.7,3-5.5,4.5c-0.5,0.4-0.6,0.8-0.4,1.5c0.6,1.3,1.2,2.7,1.5,4c0.3,1.5,0.3,3.1,0.4,4.7c0.1,1.9,0.3,3.7,0.4,5.6
		C171.3,59.4,171.6,62.4,171.8,65.3z"/>
	<path id="XMLID_708_" class="st1" d="M57.4,80c-0.6-1.3-1.2-2.6-1.8-3.9c-0.2-0.4-0.3-0.7,0-1.1c4.4,0,8.8,0,13.2,0
		c0.1,0.2,0.3,0.3,0.4,0.5c0.9,1.6,2.1,3,3.3,4.4c1.4,1.5,3,2.5,4.6,3.6c1.9,1.4,4,2.2,6.1,3.2c0.6,0.3,1.2,0.5,1.9,0.8
		c0-0.6,0-1.1,0-1.5c-0.2-2-0.3-4-0.5-6.1c-0.2-3.6-0.5-7.1-0.7-10.7c0.1-1.3,0.2-2.6,0.3-3.9c0.1-1.1,0.1-2.1,0.2-3.2
		c0.1-1.7,0.2-3.4,0.4-5.1c0.2-2.7,0.4-5.4,0.6-8.1c0.1-1.6,0.2-3.3,0.9-4.8c0.6-1.3,1-2.6,1.6-3.9c0.3-0.9,0.7-1.8,1-2.7
		c0.1-0.2,0.3-0.5,0.4-0.7c0.9-2.2,1.6-4.5,3-6.5c1.1-1.5,2-3.1,3-4.7c1.8-2.6,3.1-5.5,5.4-7.8c0.6-0.4,1.2-0.9,1.6-1.5
		c0.5-0.4,0.9-0.8,1.4-1.2c1.5-1.5,3.1-2.7,4.5-4.3c0.5,0,0.9-0.2,1.3-0.4c2.5-1,2.5-1,4.6,0.4c0.3,0.2,0.6,0.5,0.8,0.8
		c0.3,0.9,0.7,1.8,1,2.6c0.2,0.5,0.1,0.9-0.4,1.2c-1.4,0.3-2.6,1-3.6,1.9c-3.1,3-5.4,6.6-7.6,10.3c-0.4,0.5-0.7,1.1-0.9,1.7
		c-0.2,0.4-0.4,0.9-0.6,1.2c-1.7,2.4-2.6,5.2-3.6,7.9c-1.1,2.7-1.9,5.6-2.8,8.3c-0.2,0.6-0.6,1.1-0.5,1.7c-0.3,0.6-0.3,1.2-0.5,1.8
		c-0.8,2.6-1,5.4-1.2,8.1C94,60,94,61.4,93.8,62.8c-0.2,2.5-0.4,5-0.2,7.5c-0.1,0.7-0.1,1.5-0.1,2.2c0,1.4,0.3,2.7,0.3,4.1
		c0,4.4,0.9,8.7,1.9,13c0.1,0.4,0.3,0.6,0.7,0.8c1.9,0.9,3.9,1.3,6,1.6c1.3,0.2,2.5,0.6,3.8,0.6c1.3,0.1,2.5,0.4,3.8,0.4
		c2.5,0.1,4.9,0.4,7.4,0.4c1.1,0,2.3-0.1,3.5-0.1c0.7,1.7,1.3,3.5,2,5.2c-3,1.4-6,2.9-9.1,4.2c-0.6,0.2-0.4,0.6-0.1,0.9
		c0.8,1,1.2,2,1,3.3c0,1.2-0.1,2.3-0.1,3.5c0,0.6-0.3,0.8-0.8,0.9c-0.8,0.2-1.6,0.3-2.5,0.5c-2.3,0.5-4.6,0.6-6.9,0.7
		c-0.9,0-1.7,0.1-2.6,0.1c-0.2,0-0.5-0.1-0.5,0.4c0.1,1.4,0.2,2.9,0.3,4.3c0.2,2.6,0.4,5.2,0.6,7.8c0.1,1.9,0.1,3.8,0.4,5.6
		c0.1,0.9-0.1,1.9,0.3,2.8c1.5,3.8,2.9,7.5,4.4,11.3c0.2,0.4,0.3,0.5,0.7,0.4c1.2-0.4,2.3-0.7,3.5-1.1c0.7-0.2,1.5-0.4,2.2-0.6
		c0.1,0,0.2,0,0.3,0c-0.3,5,0,9.9-0.2,14.9c-0.1,3.2,0,6.4-0.1,9.5c-0.2,8.1-0.2,16.2-0.4,24.2c-0.1,2.9-0.2,5.9-0.2,8.8
		c0,5.1-0.1,10.2-0.1,15.3c0,3.7-0.1,7.4-0.1,11c0,2.7-0.7,5.2-1.3,7.8c-1.3,5.9-2.7,11.8-4.1,17.8c-0.2,1-0.5,1.9-0.7,2.9
		c-0.1,0.4-0.2,0.4-0.5,0.2c0,0,0-0.1,0-0.1c0-0.2,0-0.3,0-0.5c1.5-6.4,3-12.8,4.5-19.3c0.5-2,1.1-4,1.3-6c0.2-1.9,0.1-3.9,0.2-5.9
		c0.1-4.5,0-9,0-13.5c0-0.8,0.3-1.5,0.2-2.2c-0.1-0.5-0.3-0.6-0.6-0.3c-0.4,0.3-0.7,0.6-0.9,1.2c-0.4,1.8-1.3,3.4-2,5.1
		c-0.9,2-1.3,4.2-1.7,6.3c-0.3,1.4-0.7,2.7-1,4.1c-0.2,0.9-0.9,1.5-0.9,2.4c0,0.6-0.2,1-0.5,1.5c-0.3,0.5-0.4,1.1-0.4,1.7
		c0,0.7-0.1,1.3-0.7,1.7c0-0.2-0.1-0.3-0.1-0.5c-0.1-1.9-0.3-3.7,0.6-5.5c0.1-0.3,0.2-0.7,0.3-1c0.3-0.4,0.3-0.8,0.4-1.2
		c0.4-1.3,1.1-2.6,1.1-4c-0.1-5.6,0.1-11.3-0.1-16.9c-0.2-6.1,0-12.3-0.2-18.4c-0.1-4.1,0-8.3,0-12.4c0-0.5-0.1-0.7-0.6-0.9
		c-1-0.3-1.9-0.7-2.8-1.1c-2-0.8-1.9-0.8-2-2.9c-0.2-3.6-0.4-7.1-0.6-10.7c-0.1-1.1,0-2.2-0.1-3.2c-0.2-1.6-0.1-3.3-0.2-4.9
		c-0.1-1.8-0.2-3.5-0.4-5.3c0.1-0.8,0.1-1.5-0.2-2.3c0.1-2-0.2-4-0.3-6c-0.1-3.2-0.3-6.3-0.5-9.5c-0.1-2.1-0.2-4.1-0.3-6.2
		c-0.2-2.8-0.2-5.5-0.4-8.3c-0.1-1.4-0.3-2.8-1.5-3.7c-0.5-1-1.2-1.8-1.9-2.7c-1.1-1.4-1.9-3-3.3-4.2c-0.2-0.9-0.8-1.4-1.3-2.1
		c-1.2-1.7-2.4-3.3-3.6-5c-0.5-0.7-0.9-0.6-1.3,0c-0.7,0.9-1.3,1.8-1.9,2.7c-1.5-0.8-2.9-1.7-4.5-2.4c-0.4-0.4-0.9-0.6-1.5-0.8
		c-0.5,0.1-0.9,0.4-1.2,0.8c-1,0.6-2,1.3-3,2.1c-0.5,0.3-1.2,0.6-1.6,1c-1,1.1-2.2,0.8-3.4,0.6C67.1,97,66.7,97,66.4,97
		c-0.2-0.1-0.3-0.2-0.5-0.2c-0.8,0.1-1-0.4-1.2-0.9c-0.8-1.7-1.6-3.4-2.4-5.1c-0.3-0.7-0.5-1.4-1-2C60.2,85.8,58.7,82.9,57.4,80z"/>
	<path id="XMLID_707_" class="st2" d="M135.3,93.3c-1,2.4-1.9,4.9-2.9,7.3c-0.1,0.3-0.2,0.5-0.2,0.8c0.1,2.8-0.2,5.6-0.2,8.4
		c0,3.1-0.2,6.2-0.2,9.3c0,1.2-0.1,2.5-0.1,3.7c-0.2,7.3-0.4,14.5-0.5,21.8c-0.1,2.4-0.1,4.9-0.2,7.3c-0.4,0-0.5,0.2-0.5,0.5
		c0,1.2-0.1,2.3-0.1,3.5c-0.2,2.4-0.1,4.8-0.1,7.3c-0.1,4.4-0.2,8.8-0.3,13.3c-0.1,4.3-0.1,8.7-0.4,13c-0.1,2.4,0,4.7-0.1,7.1
		c-0.1,1.2-0.7,1.8-1.4,2.5c-0.1-4.5,0-8.9-0.1-13.3c-0.2-6.1,0-12.2,0-18.2c0-17.8,0-35.5,0-53.3c0-5.5,0-11,0-16.5
		c0-0.8-0.1-1.5-0.4-2.3c-0.3-0.7-0.5-1.4-0.7-2.1c0.4-1.1,0.1-2.1,0.1-3.2c0-0.7,0.2-1.2,0.8-1.5c0.2,0.3,0,0.8,0.5,1
		c0.3,0.2,0.2,0.6,0.2,0.9c0,1.1,0.1,2.2,0,3.3c0.2-0.1,0.3-0.2,0.3-0.4c0.5-1.3,1-2.6,1.6-3.8c0.6-1.4,1.5-2.6,2-4.1
		c1.1-2.9,2.2-5.9,3.4-8.7c0.4-0.9,0.8-1.9,1-2.9c0.6-3,0.2-6,0.5-9c0.2-2,0.1-4.1,0.1-6.1c0.1-4,0.2-8.1,0.4-12.1
		c0.1-1.9-0.3-3.9-0.5-5.8c-0.2-2-0.5-4-0.7-6c-0.2-2.1-0.6-4.3-0.8-6.4c-0.1-1.4-0.1-3-1.7-3.8c-0.1-0.1-0.2-0.2-0.3-0.2
		c-1.7-1.4-3.5-2.7-5.2-4.1c-0.6-0.5-0.6-0.7,0.1-1c1.8-0.7,3.5-1.5,5.3-2.2c0.1,0.1,0.2,0.1,0.3,0.2c1.5,2,3,4,4.5,6
		c0.5,0.8,1.3,1.4,1.4,2.4c0.2,1.9,0.5,3.9,0.7,5.8c0.2,1.6,0.4,3.2,0.6,4.8c0.1,0.7,0.1,1.3,0.2,2c0.2,0.6,0,1.3,0.3,1.8
		c0,0.4,0,0.7,0.1,1.1c0.3,2.3,0.7,4.5,0.6,6.8c-0.1,1.6,0,3.3,0,4.9c0,4.4-0.3,8.9-0.1,13.3c0,0.5,0,1-0.1,1.5
		c-0.2,0.6-0.2,1.1,0,1.7l0,0c0,0.7,0,1.3,0,2c-0.1,2.4-0.5,4.6-1.5,6.9c-1.1,2.5-2.1,5-2.9,7.5c-0.4,0.9-0.8,1.9-1.2,2.8
		c-0.2,0.5-0.3,1-0.5,1.5C136,91.3,135.7,92.3,135.3,93.3z"/>
	<path id="XMLID_706_" class="st3" d="M126.8,93.4c0.2,0.7,0.4,1.4,0.7,2.1c0.3,0.7,0.4,1.5,0.4,2.3c0,5.5,0,11,0,16.5
		c-0.4,0-0.4,0.3-0.6,0.6c-0.4,0.9-0.3,1.9-0.6,2.8c-0.4,1.4-0.7,2.8-0.9,4.2c-0.2,1.1,0.1,2.3-0.2,3.3c-0.4,1.5-0.5,3-0.6,4.5
		c0,0.3,0,0.7-0.5,0.7c-0.1-2.6-0.1-5.1-0.2-7.7c0.1-1.1-0.1-2.2-0.1-3.2c-0.1-2.3-0.1-4.6-0.1-6.9c-0.1-3.2-0.3-6.4-0.2-9.6
		c0.1-1.7-0.3-3.2-1.1-4.7c-0.7-1.7-1.3-3.5-2-5.2c-0.5-1.4-1-2.8-1.7-4.2c-0.3-1-0.7-1.9-1.1-2.9c0,0-0.1-0.1-0.1-0.1l0,0
		c-0.6-2-1.5-4-2.2-6c-0.9-2.6-2.3-5-2-8c0.1-0.7,0-1.4-0.1-2.2c0-1.1,0-2.2,0-3.3c0-0.3,0-0.6,0-0.9c-0.1-6.1-0.1-12.2-0.2-18.3
		c0-0.7,0-1.4,0.1-2.1c0.2-2.1,0.6-4.2,0.7-6.4c0.2-0.9,0.3-1.9,0.4-2.9c0.4-2.8,0.7-5.7,1.1-8.5c0.1-1,0-2.1,0.6-2.9
		c0.1,0.2,0.3,0.2,0.5,0.2c1.4-0.1,2.9,0.3,4.3,0.2c0.4,0,0.7,0,0.6,0.6c-0.4,1.9-0.6,3.8-0.9,5.7c-0.4,2.8-0.9,5.5-1.3,8.3
		c-0.3,2.4-0.9,4.7-0.9,7.1c0,2.4,0,4.9,0.2,7.3c0.1,2.7,0,5.5,0.1,8.3c0.2,3.4,0,6.9,0.2,10.3c0.1,1.7,0.3,3.4,1,5
		c1.1,2.6,2.2,5.2,3.1,7.9C124.5,88.3,125.6,90.8,126.8,93.4z"/>
	<path id="XMLID_705_" class="st3" d="M98.9,140.8c0.2,0.7,0.2,1.5,0.2,2.3c-0.3,1.7-0.6,3.4-0.8,5.1c-0.1,0.4-0.2,0.8-0.5,1.1
		c-1.1,1.1-2.2,2.2-3.3,3.3c-0.3,0.4-0.5,0.3-0.8,0c-1.8-1.9-3.6-3.8-5.4-5.6c-0.2-0.2-0.4-0.4-0.4-0.8c-0.1-2.5-0.2-5-0.3-7.5
		c-0.1-4.6-0.2-9.1-0.4-13.7c-0.2-5.7-0.4-11.5-0.6-17.2c-0.1-3.3-0.2-6.5-0.3-9.8c0.3,0.1,0.6,0.2,0.9,0.4c1.2,0.6,2.3,1.1,3.5,1.7
		c1.4,1.2,2.2,2.8,3.3,4.2c0.7,0.9,1.4,1.7,1.9,2.7c0,0.3,0,0.6,0,0.8c0.2,5.7,0.3,11.3,0.5,17c0.1,3.7,0.2,7.3,0.3,11
		c0,0.2,0,0.3,0.1,0.5C97.6,137.8,98.3,139.3,98.9,140.8z"/>
	<path id="XMLID_704_" class="st4" d="M134.3,17.5c-0.1-0.1-0.2-0.1-0.3-0.2c-0.4-0.4-0.9-0.7-1.4-1c-1.6-0.9-2.9-2.4-5-2
		c-0.1,0-0.3,0-0.4,0c-0.1,0-0.3,0-0.4,0.1c-1.7,1.1-3.4,2-4.9,3.3c-2.1-0.5-4.3-1-6.2-2.1c0.5-0.3,0.6-0.7,0.4-1.2
		c-0.4-0.9-0.7-1.7-1-2.6c-0.1-0.4-0.5-0.6-0.8-0.8c-2.1-1.5-2.1-1.5-4.6-0.4c-0.4,0.2-0.9,0.4-1.3,0.4c-0.3,0-0.5-0.2-0.5-0.5
		c2.1-2.3,4.4-4.4,7.2-5.9c3.1-1.8,6.3-3.2,9.7-4.1c2.8-0.7,5.5-0.4,8.3,0.2c5.8,1.3,10.8,4,15,8.2c0.4,0.4,0.9,0.7,1.5,0.6
		c2.3-0.4,3.8,1.1,5.5,2.2c0.1,0.1,0.2,0.2,0.4,0.3c0.7,0.3,1.2,0.7,1.3,1.5c-0.4,0.1-0.6,0.3-0.3,0.7c-0.4,0-0.4,0.4-0.5,0.6
		c-0.4,0.9-0.7,1.7-1,2.6c-1.1-0.9-2-2-3.1-2.9c-1.2-1-2.4-2.2-3.5-3.3c-0.4-0.3-0.8-0.4-1.2-0.6c-0.2-0.1-0.5-0.1-0.7-0.2
		c-1.6-1-2.9-0.6-4.2,0.5c-0.4,0.4-0.8,0.7-0.9,1.2c-0.3,0.8-0.6,1.6-0.9,2.3c-0.1,0.3-0.2,0.6,0.1,0.9
		C138.3,16.2,136.3,17,134.3,17.5z"/>
	<path id="XMLID_703_" class="st5" d="M68.8,75c-4.4,0-8.8,0-13.2,0c1-2.2,2-4.3,3-6.5c0.7-1.4,1.3-2.9,2-4.3c0.3-0.8,0.7-1.5,1-2.3
		c0.4-0.5,0.6-1,0.7-1.6c0.8-1.7,1.6-3.5,2.4-5.2c0.2-0.4,0.3-0.8,0.5-1.1c0.8-1.7,1.7-3.4,2.4-5.2c0.4-0.3,0.4-0.8,0.7-1.2
		c0.4-1.1,1.1-2,1.3-3.1c0.5-0.7,0.8-1.6,1.2-2.4c0.1-0.1,0.1-0.2,0.2-0.4c2.5-5.5,5.1-10.9,7.6-16.4c0.8-1.7,1.7-3.4,2.3-5.1
		c0.6-0.9,0.9-1.9,1.4-2.8c0.1-0.3,0.2-0.5,0.6-0.6c1.9-0.2,3.8-0.7,5.6-1.1c2.5-0.5,5.1-1,7.6-1.6c0.2,0,0.4-0.1,0.6-0.2
		c-0.4,0.6-0.9,0.9-1.4,1.4c-2.9,2.7-5.6,5.6-8,8.7c-1.8,2.4-3.5,4.8-5.1,7.3c-0.7,1.1-0.7,1.1,0.3,1.8c0.2,0.1,0.4,0.3,0.6,0.4
		c-0.4,0.6-0.8,1.3-1.3,1.9c-0.4-0.3-0.8-0.6-1.2-0.9c-0.2-0.1-0.3-0.3-0.5,0c-0.6,1.1-1.3,2.2-1.9,3.3c-1.1,2.2-2.2,4.5-3.2,6.8
		c-1.3,2.8-2.4,5.7-3.3,8.7c-0.2,0.6-0.7,1.3-0.5,1.7c0.2,0.6,1.1,0.6,1.6,1c-0.1,0.6-0.3,1.2-0.4,1.8c-0.4-0.2-0.8-0.4-1.2-0.7
		c-0.4-0.3-0.6-0.2-0.7,0.3c-0.4,1.2-0.6,2.4-0.9,3.6c-0.4,1.6-0.7,3.2-0.9,4.9c-0.2,1.5-0.5,2.9-0.6,4.4C68,72,67.7,73.7,68.8,75z"
		/>
	<path id="XMLID_702_" class="st1" d="M160.5,106.2c1-1.8,2.4-3.3,3.5-4.9c0.8-1.2,1.7-2.3,2.6-3.5c0.8-1.1,2-1.4,3.1-2
		c0.5-0.3,0.5,0.3,0.5,0.7c0,0.7,0.2,0.7,0.8,0.4c0.4-0.2,0.8-0.5,1.3-0.4c-0.6,0.4-1.3,0.7-1.9,1c-0.6-0.1-0.7,0.2-0.7,0.7
		c-0.1,2.9-0.2,5.9-0.3,8.8c-0.1,3.4-0.2,6.8-0.3,10.3c-0.1,3.6-0.2,7.1-0.3,10.7c-0.1,3.4-0.2,6.8-0.3,10.3
		c-0.1,2.5-0.2,5.1-0.2,7.6c0,0.5-0.2,0.9-0.5,1.3c-1.7,1.7-3.3,3.4-4.9,5.1c-0.2,0.2-0.4,0.3-0.4,0.6c-0.1,0-0.1,0-0.2,0
		c-1-1.3-2.3-2.3-3.4-3.5c-0.2-0.2-0.5-0.5-0.5-0.8c-0.3-1.9-0.6-3.8-0.8-5.7c-0.1-0.5-0.3-1.1,0-1.7c0.7-1.5,1.4-3.1,2.1-4.6
		c0.1-0.3,0.3-0.5,0.2-0.9c0-1.3,0.1-2.5,0.1-3.8c0.1-5.8,0.3-11.7,0.5-17.5C160.4,111.7,160.6,108.9,160.5,106.2z"/>
	<path id="XMLID_701_" class="st1" d="M111.3,113.6c1-0.2,2.1-0.4,3.2-0.6c0,3.1,0.1,6.1-0.1,9.1c0,0.6-0.1,1.2-0.1,1.8
		c0.1,5.2-0.2,10.5-0.2,15.7c0,0.5-0.2,0.7-0.6,0.8c-0.7,0.1-1.4,0.3-2.1,0.4c-0.8,0.1-1.5,0.2-2.3,0.5c-0.5,0.2-0.6,0-0.8-0.4
		c-1.1-2.5-2.2-5-3.3-7.5c-0.2-0.4-0.5-0.8-0.5-1.3c-0.1-1.4,0-2.8-0.2-4.2c-0.1-1.2-0.1-2.4-0.2-3.6c-0.2-3.1-0.4-6.2-0.5-9.3
		c0-0.3,0-0.5,0.4-0.5C106.6,114.3,109,114.1,111.3,113.6z"/>
	<path id="XMLID_700_" class="st5" d="M124.6,130.6c0.5,0,0.4-0.4,0.5-0.7c0.1-1.5,0.2-3,0.6-4.5c0.3-1.1,0-2.2,0.2-3.3
		c0.2-1.4,0.5-2.8,0.9-4.2c0.3-0.9,0.2-1.9,0.6-2.8c0.1-0.3,0.2-0.6,0.6-0.6c0,17.8,0,35.5,0,53.3c0,6.1-0.1,12.2,0,18.2
		c0.1,4.4,0,8.8,0.1,13.3c0.7-0.8,1.3-1.4,1.4-2.5c0.1-2.4,0-4.7,0.1-7.1c0.2-4.3,0.2-8.7,0.4-13c0.1-4.4,0.2-8.8,0.3-13.3
		c0.1-2.4,0-4.8,0.1-7.3c0.1-1.2,0.1-2.3,0.1-3.5c0-0.3,0.1-0.5,0.5-0.5c0,2.4-0.1,4.8-0.1,7.2c-0.3,12.4-0.6,24.9-0.9,37.3
		c0,1.6-1.1,2.4-2.1,3.4c-0.4-0.5-0.8-1-1.2-1.5c-0.4-0.4-0.6-0.9-0.6-1.5c-0.1-5.2-0.2-10.4-0.4-15.6c-0.1-3.4-0.2-6.8-0.2-10.2
		c0-0.1,0-0.2,0-0.3c0-0.1,0-0.1,0-0.2c0-0.1,0-0.2,0-0.3c0-0.1,0-0.1,0-0.2c-0.1-5.9-0.3-11.8-0.4-17.8c-0.2-6.8-0.3-13.7-0.5-20.5
		C124.6,131.3,124.6,131,124.6,130.6z"/>
	<path id="XMLID_699_" class="st6" d="M76.5,159.5c-0.3-0.5-0.1-1-0.2-1.5c-0.3,0-0.5,0.2-0.7,0.4c-0.5,0.4-0.7,0.2-0.7-0.3
		c0-1.3-0.1-2.5-0.2-3.8c-0.2-3.5-0.3-6.9-0.4-10.4c-0.2-5.4-0.5-10.9-0.7-16.3c0-0.6-0.1-1.1-0.1-1.7c0-0.4,0.1-0.4,0.5-0.3
		c0.4,0.2,1.3,0.6,1.3,0.6s-0.1-0.1,0.5,0.2c1.3,0.7,2.6,1.3,3.9,1.9c0.1,0.1,0.4,0,0.6-0.1c0.1,1.2,0,2.5,0.2,3.7
		c0.1,0.9,0.1,1.8,0.1,2.7c0.2,3.1,0.4,6.1,0.6,9.2c0.1,2.2,0.1,4.5,0.4,6.7c0.1,1.1-0.1,2.3,0.3,3.4c-0.4-0.1-0.7,0.1-1,0.3
		c-0.9,0.7-1.8,1.5-2.8,2.1C77.1,157.1,76.2,157.9,76.5,159.5C76.6,159.4,76.5,159.5,76.5,159.5z"/>
	<path id="XMLID_698_" class="st7" d="M83.1,33.5c-0.2-0.1-0.4-0.3-0.6-0.4c-1-0.8-1-0.7-0.3-1.8c1.6-2.5,3.3-4.9,5.1-7.3
		c2.4-3.1,5.1-6,8-8.7c0.5-0.4,1-0.8,1.4-1.4c0.6,0,0.8-0.5,1.2-0.8c0.6-0.6,0.8-0.3,1,0.3c0.2,0.6,0.4,1.1,0.7,1.7
		c0.2,1,0.7,1.9,1,2.9c-2.2,2.3-3.5,5.2-5.4,7.8c-1.1,1.5-2,3.1-3,4.7c-1.4,2-2.1,4.3-3,6.5c-0.1,0.3-0.2,0.5-0.4,0.7
		C87,36.3,85.1,34.9,83.1,33.5z"/>
	<path id="XMLID_697_" class="st6" d="M86.5,186.8c-0.3-0.1-0.4-0.4-0.5-0.6c-3.3-5-6.7-9.9-10-14.9c-0.4-0.5-0.5-1.1-0.5-1.7
		c0-2-0.1-4-0.3-6.1c-0.1-0.8,0-1.5,0.8-2c0.3-0.2,0.5-0.4,0.7-0.6c1.6-1.3,3.1-2.6,4.7-3.9c0.2-0.2,0.5-0.5,0.8-0.1
		c0,0.3-0.1,0.7,0,1c0.1,1.5,0.2,3,0.3,4.6c0.1,2.3,0.2,4.6,0.4,6.9c0,0.4,0.2,0.8,0.4,1.2c0.9,1.4,1.8,2.7,2.8,4.1
		c0.4,0.6,0.6,1.3,0.6,2c0,3.2,0,6.3,0,9.5C86.6,186.3,86.7,186.6,86.5,186.8z"/>
	<path id="XMLID_696_" class="st6" d="M72.4,95.5c0.9-0.8,1.9-1.4,3-2.1c0,0.3,0.1,0.6,0.1,0.9c0,3.1,0,6.2,0,9.3
		c0,0.7,0.2,1.1,0.9,1.3c0.9,0.2,1.8,0.4,2.6,0.8c-0.2,1.6,0.1,3.3,0.2,4.9c0.1,3,0.4,6.1,0.6,9.1c0.1,2.2,0.3,4.5,0.4,6.7
		c-0.3,0.3-0.6,0.1-0.9-0.1c-1.3-0.6-2.4-1.3-3.8-1.8c-0.3-0.3-0.6-0.5-1-0.6c-0.8-0.3-1-0.9-1-1.7c-0.2-4.9-0.3-9.7-0.5-14.6
		C72.7,103.6,72.4,99.5,72.4,95.5z"/>
	<path id="XMLID_695_" class="st8" d="M86.5,186.8c0.2-0.2,0.1-0.5,0.1-0.8c0-3.2,0-6.3,0-9.5c0-0.7-0.2-1.4-0.6-2
		c-0.9-1.3-1.8-2.7-2.8-4.1c-0.2-0.4-0.4-0.7-0.4-1.2c-0.1-2.3-0.2-4.6-0.4-6.9c-0.1-1.5-0.2-3-0.3-4.6c0-0.3,0-0.7,0-1
		c1.2,0.4,2.3,0.9,3.5,1.3c0.7,0.1,1,0.4,1.1,1.2c0.1,2.3,0.3,4.6,0.4,6.9c0,0.5,0.2,0.9,0.4,1.2c1.2,2.1,2.4,4.1,3.6,6.2
		c0.3,0.4,0.3,0.8,0.3,1.3c-0.1,2.7-0.1,5.4-0.4,8.1c-0.2,2-1.4,4.1-3.8,4.5C86.6,187.7,86.6,187.2,86.5,186.8z"/>
	<path id="XMLID_694_" class="st9" d="M170.6,158.3c0,0,0-0.1,0.1-0.1c0.2-0.1,0.3-0.1,0.5-0.2c1-0.2,1.8-0.6,2.7-1
		c0.8-0.4,1.3-0.2,1.8,0.4c-0.1,0.5-0.1,1-0.2,1.5c-0.1,2-0.1,4.1-0.2,6.1c0,0.2-0.1,0.4-0.1,0.7c-0.2,1.4-0.9,2.6-1.4,3.8
		c-1.8,4.5-3.7,9-5.6,13.6c-0.2,0.5-0.2,0.9,0,1.4c0.4,1,0.9,1.9,1.1,2.9c-0.6-0.1-1.4-0.2-1.7-0.7c-0.8-1.2-1.6-2.4-1.6-3.9
		c0-2.7-0.1-5.4-0.3-8.1c0-0.2,0.1-0.4,0.2-0.5c0.8-1.4,1.7-2.8,2.5-4.2c0.6-1.1,1.7-2.1,1.8-3.5C170.4,163.6,170.5,161,170.6,158.3
		z"/>
	<path id="XMLID_693_" class="st8" d="M81.9,154c-0.4-1.1-0.2-2.3-0.3-3.4c-0.2-2.2-0.3-4.5-0.4-6.7c-0.2-3.1-0.4-6.1-0.6-9.2
		c-0.1-0.9,0-1.8-0.1-2.7c-0.2-1.2-0.1-2.4-0.2-3.7c1.2-0.3,2.3-0.7,3.5-1c0,0,0.1,0,0.1,0c1-0.3,1-0.3,1.1,0.7
		c0.3,5.6,0.6,11.2,0.9,16.9c0.2,3.8,0.4,7.5,0.6,11.3c-0.3,0.2-1-0.6-1,0.4c0-0.5-0.3-0.9-0.8-1.1C83.7,155,82.8,154.5,81.9,154z"
		/>
	<path id="XMLID_692_" class="st1" d="M102.6,209.9c0.2-3.2-0.2-6.5-0.4-9.7c-0.1-1.1-0.1-2.2-0.1-3.3c-0.2-2.7-0.2-5.4-0.4-8.2
		c-0.2-3.5-0.4-6.9-0.6-10.4c-0.1-1.6-0.1-3.2-0.2-4.7c0-0.2,0-0.4,0-0.6c0-0.3-0.1-0.7-0.1-1c-0.1-0.7,0.4-0.4,0.7-0.4
		c0.3,0.1,0.6,0.2,0.9,0.3c0.1,0,0.2,0,0.2,0c0.2,0.1,0.3,0.2,0.5,0.2c0.9,0.1,1.1,0.5,1.1,1.4c0,2.8,0,5.5,0.1,8.3
		c0.1,5.8,0.2,11.6,0.4,17.5c0.1,4.9,0.1,9.7,0.2,14.6c0,0.2,0,0.4,0,0.6c0.2,1.2,0.1,2.3-0.4,3.4c-0.3,0.8-0.7,1.7-1,2.5
		c-0.3-3.3-0.4-6.6-0.6-9.9C102.8,210.2,102.9,210,102.6,209.9z"/>
	<path id="XMLID_691_" class="st2" d="M120.6,114.7c-0.5-2.5-1-4.9-1.5-7.4c-0.1-0.5-0.2-0.9-0.3-1.4c0-0.6-0.3-0.7-0.8-0.4
		c-0.6,0.3-1.2,0.6-1.8,0.8c-0.5,0.2-1,0.3-1.5,0.5c0.2-1.3-0.2-2.3-1-3.3c-0.3-0.3-0.5-0.6,0.1-0.9c3.1-1.3,6-2.8,9.1-4.2
		c0.7,1.5,1.1,3,1.1,4.7c-0.1,3.2,0.1,6.4,0.2,9.6c0.1,2.3,0,4.6,0.1,6.9c0.1,1.1,0.2,2.2,0.1,3.2c-0.5,0-1,0.1-1.5,0.3
		c-0.3,0.1-0.7,0.1-0.8-0.4c-0.5-2.5-1-5.1-1.5-7.6C120.5,115,120.6,114.8,120.6,114.7z"/>
	<path id="XMLID_690_" class="st9" d="M185.4,42.4c-3.4-7.4-6.9-14.8-10.3-22.2c0,0,0-0.1,0-0.2c1.4,0.5,3.1,0.6,4.3,1.5
		c1.2,0.9,1.9,2.3,2.9,3.4c0.3,0.4,0.6,0.8,0.9,1.1c2.7,2.4,3.6,5.7,4.3,9.1c0.2,1.1,0.9,2.3,0.7,3.3c-0.2,1-1.3,1.8-2,2.8
		C185.9,41.6,185.5,41.9,185.4,42.4z"/>
	<path id="XMLID_689_" class="st6" d="M80.9,20.1c-0.6,1.8-1.5,3.4-2.3,5.1c-2.5,5.5-5.1,10.9-7.6,16.4c-0.1,0.1-0.1,0.2-0.2,0.4
		c-0.9-1.1-1.8-2.2-2.6-3.3c-0.2-0.2-0.2-0.5-0.1-0.8c0.7-2.7,1.4-5.3,2.1-8c0.1-0.3,0.2-0.6,0.4-0.8c2-2.4,3.9-4.9,5.9-7.3
		c0.2-0.3,0.5-0.6,0.9-0.7C78.6,20.8,79.7,20.3,80.9,20.1z"/>
	<path id="XMLID_688_" class="st8" d="M80.1,126.4c-0.1-2.2-0.2-4.5-0.4-6.7c-0.2-3-0.5-6.1-0.6-9.1c-0.1-1.6-0.3-3.3-0.2-4.9
		c1.2,0.1,2.4-0.1,3.5-0.5c1.3-0.1,1.2-0.1,1.3,1.2c0.3,5.7,0.6,11.5,1,17.2c0,0.3,0,0.6,0.1,0.9c0.2,0.9-0.2,1.2-1,1.2
		C82.5,126,81.3,126.2,80.1,126.4z"/>
	<path id="XMLID_687_" class="st10" d="M111.3,113.6c-2.4,0.4-4.8,0.6-7.1,0.9c-0.3,0-0.4,0.2-0.4,0.5c0.1,3.1,0.3,6.2,0.5,9.3
		c0.1,1.2,0.1,2.4,0.2,3.6c0.1,1.4,0.1,2.8,0.2,4.2c0,0.5,0.3,0.9,0.5,1.3c1.1,2.5,2.2,5,3.3,7.5c0.2,0.4,0.2,0.6,0.8,0.4
		c0.7-0.2,1.5-0.3,2.3-0.5c0,1,0.1,2.1,0.1,3.1c-1.2,0.4-2.3,0.7-3.5,1.1c-0.4,0.1-0.6,0-0.7-0.4c-1.5-3.8-2.9-7.5-4.4-11.3
		c-0.4-0.9-0.2-1.9-0.3-2.8c-0.2-1.9-0.2-3.8-0.4-5.6c-0.2-2.6-0.4-5.2-0.6-7.8c-0.1-1.4-0.2-2.9-0.3-4.3c0-0.4,0.2-0.4,0.5-0.4
		c0.9,0,1.7-0.1,2.6-0.1c2.3-0.1,4.6-0.2,6.9-0.7C111.3,112.3,111.3,113,111.3,113.6z"/>
	<path id="XMLID_686_" class="st3" d="M62.3,90.7c0.8,1.7,1.6,3.4,2.4,5.1c0.3,0.6,0.5,1.1,1.2,0.9c0.1,0,0.3,0.1,0.5,0.2
		c-0.2,0.8-0.8,0.3-1.2,0.5c-1.9,0.1-3.9,0.2-5.8,0.3c-0.2,0-0.4,0.1-0.5,0.2c-0.6,0.9-1.3,1.8-1.9,2.7c-0.4,0.5-0.7,0.9-1.2,1.5
		c-1-1.6-2-3.2-3-4.8c-0.3-0.4-0.3-0.8-0.4-1.3c-0.1-1.1,0.2-1.9,1.2-2.5c0.3-0.2,0.6-0.5,0.8-0.7c0.8-0.6,1.6-1.1,2.3-1.8
		c0.4-0.3,0.8-0.5,1.3-0.4C59.5,90.7,60.9,90.7,62.3,90.7z"/>
	<path id="XMLID_685_" class="st10" d="M104.4,217.8c0.5-1.1,0.6-2.2,0.4-3.4c0-0.2,0-0.4,0-0.6c-0.1-4.9-0.1-9.7-0.2-14.6
		c-0.1-5.8-0.2-11.6-0.4-17.5c-0.1-2.8-0.1-5.5-0.1-8.3c0-0.9-0.2-1.3-1.1-1.4c-0.2,0-0.4-0.1-0.5-0.2c0-0.6,0-1.2-0.1-1.8
		c0.9,0.4,1.9,0.8,2.8,1.1c0.5,0.2,0.6,0.5,0.6,0.9c0,4.1-0.1,8.3,0,12.4c0.2,6.1,0,12.3,0.2,18.4c0.2,5.6,0,11.3,0.1,16.9
		c0,1.4-0.7,2.6-1.1,4c-0.1,0.4-0.2,0.9-0.4,1.2C104.4,222.6,104.6,220.2,104.4,217.8z"/>
	<path id="XMLID_684_" class="st1" d="M188.5,105.8c-0.3,0-0.3-0.3-0.3-0.5c-0.2-1.1-0.3-2.3-0.5-3.4c-0.1-0.6,0-1.2,0.4-1.7
		c0.3-0.4,0.5-0.8,0.7-1.2c0.3-0.5,0.6-0.8,1.2-0.9c1.9,0.1,3.7,0.2,5.6,0.3c0.4,0,0.7,0.2,0.9,0.5c0.6,0.8,1.2,1.6,1.9,2.3
		c1.3,1.2,0.9,2.3-0.1,3.5c-0.1,0.1-0.1,0.2-0.2,0.3c-0.2,0.5-0.6,0.6-1.1,0.6C194.1,105.7,191.3,105.8,188.5,105.8z"/>
	<path id="XMLID_683_" class="st3" d="M66,99c0.5-0.1,0.7,0.2,1,0.5c1.3,1.6,1.6,3.3,1.1,5.2c-0.2,0.6,0.1,1.5-0.4,1.8
		c-0.5,0.3-1.3,0.1-2,0.1c-2.3,0-4.6-0.1-6.9-0.2c-0.4,0-0.7-0.1-0.9-0.5c-0.1-0.2-0.2-0.4-0.3-0.6c-1-1.1-1.1-2.2,0.1-3.2
		c0.3-0.4,0.7-0.8,1-1.2c0.7-1.3,1.8-1.7,3.2-1.7C63.3,99.3,64.6,99.1,66,99z"/>
	<path id="XMLID_682_" class="st1" d="M193.4,59.5c-0.8-1.7-1.6-3.5-2.4-5.2c1.4-0.3,2.8-0.6,4.2-0.8c1.1-0.2,2.2-0.7,3.3-0.4
		c0.8,0.3,1.5,0.5,2.3,0.7c1.4,0.7,2.1,1.9,2.4,3.4c0.4,1.9,0.8,3.8,1.2,5.7c0,0.4,0.2,0.8,0,1.3c-0.4-0.5-0.8-0.9-1.1-1.3
		c-1.1-1.4-2.2-2.7-3.3-4.1c-0.3-0.4-0.6-0.5-1.1-0.4C197.2,58.7,195.3,59.1,193.4,59.5z"/>
	<path id="XMLID_681_" class="st3" d="M64.8,55.1c-0.8,1.7-1.6,3.5-2.4,5.2c-1.9-0.4-3.8-0.8-5.7-1.2c-0.3-0.1-0.5,0-0.7,0.3
		c-1.1,1.4-2.3,2.9-3.4,4.3c-0.3,0.4-0.6,0.8-1,1.2c-0.2-0.3-0.1-0.6-0.1-0.9c0.5-2.3,0.9-4.7,1.6-7c0.3-1.2,1-2.1,2.4-2.4
		c0.6-0.1,1.2-0.3,1.8-0.5c0.1,0,0.3,0,0.3-0.1c0,0,0,0,0,0c0.6,0,1.1,0,1.6,0.1C61,54.4,62.9,54.7,64.8,55.1z"/>
	<path id="XMLID_680_" class="st3" d="M57.4,80c1.3,2.9,2.8,5.7,3.9,8.7c-0.5,0.1-1.1,0.2-1.6,0.2c-2-0.2-3.7,0.6-5.1,1.9
		c-0.6,0.3-1.1,0.7-1.9,1.1c0.1-1.4,0.2-2.7,0.2-4c0-1.3,0.5-2.3,1.2-3.3C55.4,83,56.4,81.5,57.4,80z"/>
	<path id="XMLID_679_" class="st1" d="M190.6,53.1c-0.9-1.1-1.2-2.5-1.9-3.7c-0.2-0.4-0.4-0.9-0.5-1.4c0.6-0.5,1.1-0.9,1.7-1.4
		c0.5-0.4,1.1-0.8,1.8-0.8c1.4-0.1,2.7,0.4,3.7,1.3c1.5,1.3,2.8,3,4.1,4.6c0.1,0.1,0.2,0.2,0,0.2c-0.7-0.2-1.4-0.3-2.2-0.5
		c-0.4-0.1-0.7,0-1.1,0.1C194.3,52.1,192.5,52.6,190.6,53.1z"/>
	<path id="XMLID_678_" class="st3" d="M67.7,48.7c-0.6,1.8-1.5,3.5-2.4,5.2c-1.9-0.6-3.8-1.1-5.7-1.7c-0.3-0.1-0.6-0.2-1,0
		c-0.8,0.2-1.5,0.3-2.4,0.5c1.5-1.8,2.8-3.6,4.5-4.9c1.1-0.9,2.5-1.7,4.2-1.2c0.5,0.1,0.8,0.5,1.2,0.7
		C66.6,47.8,67.2,48.3,67.7,48.7z"/>
	<path id="XMLID_677_" class="st8" d="M78.1,93.4c1.6,0.7,3,1.6,4.5,2.4c0.1,0.4,0.5,0.3,0.7,0.5c-0.1,1.9,0.2,3.8,0.2,5.7
		c0,0.2,0,0.5,0.1,0.7c0.1,1.1,0.1,1.1-1.1,1.3c-1.2,0.2-2.5,0.8-3.7-0.1c-0.1-1.2-0.2-2.5-0.2-3.7C78.4,98,78.2,95.7,78.1,93.4z"/>
	<path id="XMLID_676_" class="st3" d="M61.7,61.9c-0.3,0.8-0.7,1.5-1,2.3c-0.9,0.1-1.4,0.5-1.5,1.5c0,0.5-0.2,1-0.3,1.4
		c-0.1,0.5-0.2,1-0.6,1.4c-0.5,0.4-1,0.8-1.6,1.2c-0.6,0.4-1.2,0.5-1.7-0.2c-0.5-0.7-1.1-1.4-1.7-2c-0.8-1-0.8-1-0.1-2.1
		c0.9-1.3,1.9-2.6,2.8-3.9c0.2-0.3,0.4-0.5,0.9-0.4C58.4,61.4,60,61.6,61.7,61.9z"/>
	<path id="XMLID_675_" class="st1" d="M195,88.1c1.3-2.8,2.6-5.6,3.8-8.4c1.3,1.8,2.5,3.6,3.8,5.4c0.2,0.2,0.2,0.5,0.2,0.7
		c0.1,1.7,0.3,3.4,0.3,5.2c-0.7-0.4-1.3-0.7-1.8-1c-0.9-0.6-1.8-1.5-2.8-1.6C197.4,88.1,196.2,88,195,88.1z"/>
	<path id="XMLID_674_" class="st1" d="M160.1,106.6c-1.2,1.2-1.4,2.6-1.4,4.2c-0.1,3.8-0.4,7.6-0.6,11.4c-0.1,1.1-0.1,2.3-0.2,3.4
		c-0.2,3.7-0.3,7.5-0.6,11.2c-0.1,2-0.2,3.9-0.3,5.9c0,0.4-0.1,0.8-0.2,1.2c-0.1,2.8-0.2,5.6-0.4,8.4c-0.2,3.2-0.4,6.4-0.5,9.6
		c-0.1,2-0.3,4-0.3,6c0,0.6-0.2,0.9-0.8,1c0.2-2,0.2-3.9,0.3-5.9c0.2-3.3,0.4-6.6,0.5-10c0.1-2,0.2-4,0.3-6c0.2-3.2,0.4-6.5,0.5-9.7
		c0.1-2,0.2-3.9,0.3-5.9c0.2-3.2,0.3-6.4,0.5-9.6c0.1-2,0.2-4,0.3-6c0.1-2.2,0.3-4.4,0.3-6.6c0-1.2,1-1.9,1.7-2.8
		C159.9,106.3,160,106.4,160.1,106.6z"/>
	<path id="XMLID_673_" class="st1" d="M154.9,170.9c0.5-0.1,0.8,0,0.6,0.6c-0.3,1.3-0.2,2.7-0.3,4c-0.2,2.7-0.2,5.4-0.4,8.1
		c-0.2,3.2-0.3,6.4-0.5,9.6c-0.2,3.1-0.3,6.2-0.5,9.2c-0.2,3.2-0.4,6.3-0.5,9.5c-0.1,2.6-0.3,5.2-0.5,7.9c-0.3-0.4-0.4-0.8-0.5-1.1
		c0-0.1,0-0.2,0-0.3c0-2.3,0.2-4.5,0.3-6.8c0.1-2.1,0.2-4.2,0.3-6.3c0.2-3.2,0.3-6.3,0.5-9.5c0.1-2,0.2-4,0.3-6.1
		c0.1-3.2,0.3-6.4,0.5-9.5c0.1-2,0.2-4,0.3-6c0.1-1,0-2.1,0-3.1C154.8,171,154.8,171,154.9,170.9z"/>
	<path id="XMLID_672_" class="st5" d="M162.2,152.8c0-0.3,0.2-0.4,0.4-0.6c1.6-1.7,3.3-3.4,4.9-5.1c0.4-0.4,0.5-0.8,0.5-1.3
		c0-2.5,0.1-5.1,0.2-7.6c0.1-3.4,0.2-6.8,0.3-10.3c0.1-3.6,0.2-7.1,0.3-10.7c0.1-3.4,0.2-6.8,0.3-10.3c0.1-2.9,0.2-5.9,0.3-8.8
		c0-0.5,0.2-0.8,0.7-0.7c-0.2,0.3-0.2,0.7-0.2,1.1c0,1.8-0.1,3.7-0.2,5.5c-0.2,6.3-0.4,12.6-0.6,18.9c-0.2,5-0.3,10.1-0.5,15.1
		c-0.1,2.7-0.2,5.3-0.3,8c0,0.3-0.1,0.5-0.3,0.7c-1.8,1.9-3.6,3.8-5.4,5.7C162.7,152.7,162.6,153,162.2,152.8z"/>
	<path id="XMLID_671_" class="st7" d="M107.7,10.4c0,0.3,0.2,0.5,0.5,0.5c-1.4,1.6-3,2.9-4.5,4.3c-0.4,0.4-0.9,0.8-1.4,1.2
		c-0.4-0.9-0.7-1.8-1.1-2.7c-0.1-0.2-0.2-0.5-0.3-0.7c-0.6-1.7-0.6-1.7,0.9-2.6c1-0.5,1.9-1.3,3.2-1.1c0.8,0.1,1.5,0.2,2.1,0.8
		C107.3,10.3,107.5,10.4,107.7,10.4z"/>
	<path id="XMLID_670_" class="st3" d="M81.9,154c0.9,0.5,1.8,1,2.8,1.4c0.5,0.2,0.8,0.5,0.8,1.1c0,0.6,0.1,1.1,0.1,1.7
		c-1.2-0.4-2.3-0.9-3.5-1.3c-0.4-0.4-0.6-0.1-0.8,0.1c-1.6,1.3-3.1,2.6-4.7,3.9c0-0.5,0-0.9-0.1-1.4c0,0,0-0.1,0-0.1
		c-0.3-1.5,0.5-2.3,1.6-3c1-0.6,1.9-1.4,2.8-2.1C81.3,154,81.5,153.9,81.9,154z"/>
	<path id="XMLID_669_" class="st3" d="M78.8,104c1.2,0.9,2.4,0.3,3.7,0.1c0,0.4,0,0.8,0,1.2c-1.1,0.4-2.3,0.6-3.5,0.5
		c-0.8-0.4-1.7-0.6-2.6-0.8c-0.8-0.2-0.9-0.5-0.9-1.3c0-3.1,0-6.2,0-9.3c0-0.3,0-0.6-0.1-0.9c0.4-0.4,0.7-0.7,1.2-0.8
		c-0.1,3.4,0.1,6.8,0.1,10.1c0,0.3,0,0.5,0.4,0.6C77.6,103.6,78.1,103.9,78.8,104z"/>
	<path id="XMLID_668_" class="st2" d="M83.3,96.3c-0.2-0.2-0.6-0.1-0.7-0.5c0.6-0.9,1.3-1.8,1.9-2.7c0.5-0.7,0.8-0.7,1.3,0
		c1.2,1.6,2.4,3.3,3.6,5c0.5,0.7,1.2,1.2,1.3,2.1c-1.2-0.6-2.3-1.1-3.5-1.7c-0.3-0.1-0.6-0.3-0.9-0.4C85.4,97.4,84.3,96.8,83.3,96.3
		z"/>
	<path id="XMLID_667_" class="st1" d="M150.4,254.6c0.2-3.6,0.3-7.2,0.5-10.8c0.1-2,0.2-4,0.3-6.1c0.2-3.2,0.4-6.5,0.5-9.7
		c0-0.7,0.1-1.5,0.1-2.2c0.9,1.6,0.6,3.3,0.4,4.9c-0.1,1.4-0.1,2.7-0.2,4.1c-0.2,2.7-0.2,5.4-0.4,8.1c-0.2,3.2-0.4,6.4-0.5,9.5
		C151.1,253.2,151.3,254.1,150.4,254.6z"/>
	<path id="XMLID_666_" class="st10" d="M61.7,61.9c-1.6-0.3-3.3-0.5-4.9-0.8c-0.4-0.1-0.6,0-0.9,0.4C54.9,62.7,54,64,53,65.3
		c-0.2-0.5-0.3-1.1-0.5-1.6c1.1-1.4,2.3-2.9,3.4-4.3c0.2-0.2,0.4-0.3,0.7-0.3c1.9,0.4,3.8,0.8,5.7,1.2C62.2,60.8,62,61.4,61.7,61.9z
		"/>
	<path id="XMLID_665_" class="st10" d="M66,99c-1.4,0.1-2.8,0.3-4.1,0.3c-1.4-0.1-2.5,0.4-3.2,1.7c-0.2,0.5-0.6,0.8-1,1.2
		c-0.3-0.5-0.5-0.9-0.8-1.4c0.6-0.9,1.3-1.8,1.9-2.7c0.1-0.2,0.3-0.2,0.5-0.2c1.9-0.1,3.9-0.2,5.8-0.3C65.4,98,65.7,98.5,66,99z"/>
	<path id="XMLID_664_" class="st11" d="M199.1,99.9c-0.2,0.5-0.6,0.8-0.7,1.3c-0.6-0.8-1.3-1.5-1.9-2.3c-0.2-0.3-0.5-0.5-0.9-0.5
		c-1.9-0.1-3.7-0.2-5.6-0.3c0.4-0.4,0-0.8,0-1.2c0.3-0.3,0.8,0,1.2-0.3c1.7,0.1,3.3,0.2,5,0.3c0.4,0,0.8,0,1.1,0.4
		C197.8,98.2,198.5,99.1,199.1,99.9z"/>
	<path id="XMLID_663_" class="st3" d="M80.1,126.4c1.2-0.2,2.4-0.4,3.6-0.6c0,0.5,0,1,0.1,1.5c-1.2,0.3-2.3,0.7-3.5,1
		c-0.2,0-0.4,0.1-0.6,0.1c-1.3-0.6-4.4-2.1-4.4-2.1s0.1-1.5,0.1-1.7c1.3,0.4,2.5,1.2,3.8,1.8C79.5,126.4,79.8,126.6,80.1,126.4z"/>
	<path id="XMLID_662_" class="st10" d="M54.6,90.8c1.5-1.2,3.1-2,5.1-1.9c0.5,0,1-0.1,1.6-0.2c0.5,0.6,0.7,1.3,1,2
		c-1.4,0-2.8,0-4.2,0c-0.5,0-0.9,0.1-1.3,0.4c-0.7,0.6-1.5,1.2-2.3,1.8C54.5,92.2,54.6,91.5,54.6,90.8z"/>
	<path id="XMLID_661_" class="st10" d="M58.7,52.3c0.3-0.2,0.6-0.1,1,0c1.9,0.6,3.8,1.1,5.7,1.7c-0.2,0.4-0.3,0.8-0.5,1.1
		c-1.9-0.3-3.8-0.7-5.7-1.1c-0.6-0.1-1.1-0.1-1.6-0.1C57.6,53.2,58.4,52.9,58.7,52.3z"/>
	<path id="XMLID_660_" class="st3" d="M69.7,44.4c-0.3,1.1-1,2.1-1.3,3.1c-0.3-0.2-0.7-0.5-1-0.7c-0.6-0.7-1.4-0.8-2.4-1
		C66.5,44.9,68,44.4,69.7,44.4z"/>
	<path id="XMLID_659_" class="st12" d="M120.6,114.7c-0.5-2.5-1-4.9-1.5-7.4c-0.1-0.5-0.2-0.9-0.3-1.4c0-0.6-0.3-0.7-0.8-0.4
		c-0.6,0.3-1.2,0.6-1.8,0.8c0,5.8-0.1,11.6-0.1,17.4c-0.1,15.3-0.1,30.6-0.2,45.8c0,6.9-0.1,13.8-0.1,20.7c0,3,0,6.1,0,9.1
		c0,4.6,0,9.2,0,13.8c0,0.3-0.1,0.7,0.2,0.9c0,0,0,0,0,0c0,0.1,0,0.1,0,0.2c0.3,0.1,0.6,0.2,0.7-0.4c0.1-0.6,0.3-1.2,0.4-1.9
		c0.5-2.2,1.1-4.3,1.4-6.5c0.5-2.2,1.3-4.3,1.3-6.5c0.1-6.6,0.1-13.1,0.1-19.7c0.1-8.6,0.1-17.1,0.2-25.7
		c0.1-12.7,0.2-25.4,0.2-38.1C120.4,115.2,120.2,114.9,120.6,114.7z"/>
	<path id="XMLID_658_" class="st5" d="M186.5,44.4c-0.2-0.3-0.4-0.6-0.5-0.9c1.8,0.1,3.5,0.5,5,1.5c-0.2,0.1-0.4,0.2-0.6,0.2
		c-0.1,0-0.2,0-0.3,0C188.9,44.5,187.7,44.5,186.5,44.4z"/>
	<path id="XMLID_657_" class="st10" d="M58.2,68.5c0.5-0.3,0.5-0.9,0.6-1.4c0.1-0.5,0.3-1,0.3-1.4c0.1-0.9,0.6-1.4,1.5-1.5
		c-0.7,1.4-1.3,2.9-2,4.3C58.5,68.5,58.3,68.5,58.2,68.5z"/>
	<path id="XMLID_656_" class="st10" d="M197.7,67.5c0,0,0,0.1,0,0.1c-0.2,0-0.3,0-0.5,0c-0.6-1.1-1.2-2.3-1.6-3.5
		c0.4,0.1,0.7,0.1,1.1,0.2c0.3,0.4,0.2,0.8,0.4,1.2C197.3,66.2,197.2,67,197.7,67.5z"/>
	<path id="XMLID_655_" class="st5" d="M101,13.1c0.1,0.2,0.2,0.5,0.3,0.7c-0.5,0.5-1.1,0.9-1.6,1.4c-0.2-0.6-0.4-1.1-0.7-1.7
		C99.7,13.3,100.3,13.2,101,13.1z"/>
	<path id="XMLID_654_" class="st10" d="M67.3,46.9c0.3,0.2,0.7,0.5,1,0.7c-0.2,0.4-0.3,0.9-0.7,1.2c-0.5-0.4-1.1-0.9-1.6-1.3
		C66.5,47.1,66.9,47,67.3,46.9z"/>
	<path id="XMLID_653_" class="st7" d="M106.5,255.7c0,0,0,0.1,0,0.1c-0.4,0.1-0.6-0.1-0.8-0.4c0,0,0.1-0.1,0.1-0.1
		C106.1,255.5,106.3,255.6,106.5,255.7z"/>
	<path id="XMLID_652_" class="st8" d="M114.2,143.5c-0.1,0-0.2,0-0.3,0C114,143.2,114.1,143.2,114.2,143.5z"/>
	<path id="XMLID_651_" class="st10" d="M57.5,53.9c-0.1,0.2-0.2,0.2-0.3,0.1C57.2,54,57.3,53.8,57.5,53.9z"/>
	<path id="XMLID_650_" class="st7" d="M125.5,170c0,0.1,0,0.1,0,0.2C125.4,170.2,125.4,170.1,125.5,170z"/>
	<path id="XMLID_649_" class="st7" d="M125.5,170.6c0,0.1,0,0.1,0,0.2C125.4,170.7,125.4,170.6,125.5,170.6z"/>
	<path id="XMLID_648_" class="st7" d="M105.8,255.5c-0.1-0.1-0.1-0.1-0.2-0.2c0,0,0,0,0.1-0.1C105.7,255.3,105.8,255.3,105.8,255.5
		C105.8,255.4,105.8,255.4,105.8,255.5z"/>
	<path id="XMLID_647_" class="st13" d="M142.5,66.5c-0.1-4.4,0.2-8.9,0.1-13.3c0-1.6,0-3.3,0-4.9c0.1-2.3-0.4-4.5-0.6-6.8
		c0-0.4,0-0.7-0.1-1.1c1.5-1.6,3-3.1,4.4-4.7c0.3-0.3,0.5-0.8,0.6-1.3c0.1-0.9,0.2-1.7,0.3-2.6c0-0.4,0.2-0.6,0.6-0.6
		c1.8-0.1,3.6-0.4,5.5-0.3c1.2,1.7,1.8,3.7,2.7,5.5c1.5,3.3,2.3,6.8,3.6,10.2c0.3,0.8,0.6,1.5,0.8,2.3c-0.3-0.3-0.6-0.1-0.9,0
		c-1.5,0.5-2.9,1-4.4,1.5c-0.5,0.2-0.7,0.4-0.9,1c-0.6,2.3-1.2,4.6-1.7,7c-0.1,0.4-0.2,0.7-0.5,0.9
		C148.7,61.6,145.6,64.1,142.5,66.5z"/>
	<path id="XMLID_646_" class="st13" d="M138.1,86.1c0.8-2.6,1.8-5.1,2.9-7.5c1-2.2,1.4-4.5,1.5-6.9c0.2-0.1,0.4-0.2,0.5-0.3
		c2.4-2,4.6-4.1,7-6c1.6-1.3,3.1-2.8,4.7-4.1c0.2-0.2,0.5-0.4,0.5-0.7c0.5-2.1,1.1-4.3,1.7-6.4c0.2-0.8,0.5-1.3,1.4-1.5
		c0.9-0.2,1.8-0.5,2.6-0.8c0.6,1.3,0.6,2.8,0.8,4.2c0.3,3.4,0.5,6.8,0.7,10.3c0.1,1.3,0,2.7,0,4c-2.3,0.7-4.5,1.4-6.8,2
		c-0.6,0.2-0.9,0.5-1.1,1.1c-1.1,3.4-2.2,6.9-3.4,10.3c-0.1,0.4-0.3,0.8-0.9,0.8c-1.3,0.1-2.6,0.4-4,0.6
		C143.6,85.4,140.9,85.7,138.1,86.1z"/>
	<path id="XMLID_645_" class="st4" d="M177.9,60.9c0.2,0.5,0.7,0.4,1.1,0.3c1-0.3,1.8-1,2.7-1.5c0.8-0.4,1.6-0.9,2.4-1.3
		c0.4-0.2,0.6-0.2,0.7,0.3c0.6,2.4,1.2,4.9,1.5,7.4c0.3,2.2,0.7,4.4,0.6,6.6c0,0.7-0.2,1.4-0.6,2c-1.3,2-2.5,4-4.3,5.6
		c-2.4,2.2-5,4.1-8,5.4c-1,0.4-2,1-3.2,1.6c-0.1-1.4,0.1-2.6,0.2-3.8c0.1-1.1,0.1-2.2,0.2-3.3c0.2-2.1,0.2-4.3,0.4-6.5
		c0.1-1.4-0.2-2.9,0.9-4c0.4-0.4-0.1-0.8-0.1-1.1c1.5-2.4,3.1-4.8,4.7-7.1C177.4,61.1,177.7,61,177.9,60.9z"/>
	<path id="XMLID_644_" class="st13" d="M136.2,186.6c0-3.5,0-7,0-10.4c0-0.3,0.1-0.7-0.2-1c0-7.2,0-14.3,0-21.5c0-10-0.1-20-0.2-30
		c0-2.5,0-5.1-0.1-7.6c0-0.3,0.1-0.6-0.2-0.7c0.6-2.7,1.1-5.4,1.7-8.2c0-0.1,0-0.2,0.1-0.3c0.4-1.7,0.4-1.7,2-1
		c0.1,0,0.2,0.1,0.3,0.1c-0.2,0.2-0.2,0.5-0.2,0.8c0,6.1-0.1,12.1,0,18.2c0.3,15.8,0.1,31.6,0.2,47.4c-0.3,0-0.4,0.2-0.5,0.5
		c-0.5,2.1-1.3,4.1-1.5,6.2c-0.2,2.3-0.8,4.6-0.9,7C136.6,186.3,136.5,186.6,136.2,186.6z"/>
	<path id="XMLID_643_" class="st4" d="M171.8,65.3c-0.2-3-0.4-5.9-0.6-8.9c-0.1-1.8-0.3-3.7-0.4-5.6c-0.1-1.6-0.1-3.2-0.4-4.7
		c-0.3-1.4-0.9-2.7-1.5-4c-0.3-0.6-0.2-1.1,0.4-1.5c1.9-1.5,3.7-3,5.5-4.5c0.4-0.3,0.7-0.6,1.1,0.1c1.9,3.5,3.6,7.2,5.1,10.8
		c1.1,2.5,1.9,5.1,2.7,7.7c0.2,0.5-0.1,1-0.6,1.2c-0.5,0.3-1.1,0.4-1.5,0.9c-1.9,0.8-3.6,1.9-5.5,2.7c-0.1,0-0.2,0.2-0.3,0.3
		C174.5,61.7,173.1,63.5,171.8,65.3z"/>
	<path id="XMLID_642_" class="st13" d="M135.3,93.3c0.4-1,0.6-2,1.2-2.9c1.4,0.1,2.8-0.3,4.2-0.6c4-0.7,7.9-1.6,11.9-2.5
		c0.6-0.1,1.1-0.4,1.6-0.9c0.7-0.7,0.9-1.6,1.2-2.4c0.9-2.5,1.8-5,2.2-7.6c0.2-1,0.5-1.4,1.4-1.5c1.2-0.1,2.2-0.8,3.4-0.9
		c-0.2,5.1-0.7,10.2-2,15.2c-0.1,0.5-0.4,0.8-0.9,1c-2.2,1.1-4.5,1.3-6.9,1.7c-3.6,0.6-7.3,1.1-11,1.2c-1.1,0-2.3,0-3.5,0.3
		C137.2,93.7,136.3,93.1,135.3,93.3z"/>
	<path id="XMLID_641_" class="st4" d="M184.2,95.6c-0.1,3.3-0.2,6.6-0.4,9.9c-0.2,4.1-0.3,8.1-0.5,12.1c-0.1,1.7,0,3.3-0.2,5
		c-0.1,0.6-0.2,1-0.8,1.2c-0.3,0.1-0.6,0.4-0.9,0.5c-0.3,0-0.6,0.2-0.8,0.3c-1.2,0.5-2.3,1.1-3.5,1.7c-0.1-0.9,0.1-1.7,0.1-2.6
		c0-2.4,0.2-4.7,0.3-7.1c0.1-3.1,0.3-6.1,0.4-9.2c0-0.7,0-1.4,0.2-2.1c0.7-0.2,1.5-0.5,2.2-0.7c0.8-0.1,1-0.6,1-1.3
		c0-3.3,0-6.6,0-9.9C182.2,94.3,183.2,94.9,184.2,95.6z"/>
	<path id="XMLID_640_" class="st13" d="M134.3,17.5c2.1-0.5,4-1.2,5.9-2.2c3,0.9,5,3,6.9,5.4c1.7,2.3,3.2,4.8,4.8,7.2
		c-1.9,0-3.7,0-5.6,0c-1,0-1.7,0.6-1.9,1.6c-0.3,1.2-0.6,2.4-0.9,3.6c-0.2,1-0.6,1.8-1.4,2.4c-0.4,0.3-0.6,0.6-0.5,1.1
		c-0.2-1.6-0.4-3.2-0.6-4.8c-0.2-1.9-0.5-3.8-0.7-5.8c-0.1-1-0.8-1.7-1.4-2.4C137.3,21.5,135.8,19.5,134.3,17.5z"/>
	<path id="XMLID_639_" class="st4" d="M167.1,37.6c-0.4-1.1-0.9-2.2-1.3-3.3c-1.1-3.1-3.2-5.5-4.8-8.2c-1-1.7-2.1-3.3-3.2-4.9
		c-0.3-0.5-0.4-0.9-0.2-1.5c0.5-1.6,0.9-3.1,1.3-4.7c0.4,0.1,0.7,0.4,1,0.7c3.1,3,6,6.1,8.6,9.6c1.5,2,2.9,4.1,4.3,6.2
		c0.6,0.9,0.5,1.6-0.4,2.3c-0.1,0.1-0.2,0.2-0.2,0.4c-0.4,0-0.6,0.3-0.9,0.5C169.9,35.5,168.5,36.6,167.1,37.6z"/>
	<path id="XMLID_638_" class="st11" d="M144.2,112.8c0-0.7,0.2-1.3,0.1-2c2.1,0.6,4.3,0.7,6.4,0.8c1.2,0,2.4,0.3,3.7,0.2
		c0.3,0,0.5,0.1,0.4,0.5c-0.3,3.6-0.4,7.1-0.7,10.7c-0.2,3-0.5,5.9-0.7,8.9c0,0.6-0.3,1.1-0.5,1.6c-1.3,3.5-2.7,6.9-4,10.4
		c-0.2,0.5-0.4,0.7-1,0.5c-1.3-0.4-2.6-0.7-3.9-1.2c0-1,0-2,0-3c1,0.2,2,0.3,2.9,0.6c0.6,0.2,0.7-0.1,0.8-0.5c1.2-2.7,2.4-5.3,3.5-8
		c0.1-0.2,0.2-0.5,0.2-0.8c0.2-2.9,0.3-5.8,0.5-8.7c0.1-2.8,0.3-5.7,0.4-8.5c0-0.3,0-0.5-0.4-0.5c-1-0.1-2.1-0.2-3.1-0.3
		C147.3,113.4,145.7,113.2,144.2,112.8z"/>
	<path id="XMLID_637_" class="st11" d="M138.1,86.1c2.7-0.4,5.5-0.7,8.2-1.1c1.3-0.2,2.6-0.4,4-0.6c0.6-0.1,0.7-0.4,0.9-0.8
		c1.1-3.4,2.3-6.9,3.4-10.3c0.2-0.6,0.4-0.9,1.1-1.1c2.3-0.6,4.5-1.3,6.8-2c0.1,0.7-0.1,1.4,0.2,2.1c-1.7,0.6-3.5,1.2-5.2,1.8
		c-0.4,0.1-0.7,0.3-0.8,0.7c-1,3.5-2.1,7-3.2,10.5c-0.2,0.6-0.5,0.8-1.1,0.9c-3.4,0.6-6.7,1.2-10.1,1.8c-1.8,0.3-3.5,0.8-5.3,0.9
		C137.4,88,137.8,87,138.1,86.1z"/>
	<path id="XMLID_636_" class="st1" d="M199.1,99.9c-0.6-0.9-1.2-1.7-1.8-2.6c-0.3-0.4-0.7-0.4-1.1-0.4c-1.7-0.1-3.3-0.2-5-0.3
		c0.8-1.8,1.6-3.6,2.4-5.3c0.2-0.5,0.4-1,0.6-1.4c1.3,0,2.5,0,3.8-0.1c0.4,0,0.7,0.1,1.1,0.3c0.8,0.7,1.7,1.3,2.5,1.9
		c0.2,0.2,0.5,0.4,0.7,0.7c1.6,1.3,1.8,2.5,0.7,4.3c-0.8,1.3-1.6,2.6-2.4,3.9c-0.2,0.4-0.4,0.4-0.7,0
		C199.6,100.6,199.4,100.2,199.1,99.9z"/>
	<path id="XMLID_635_" class="st11" d="M153,169.7c0,0.5,0,1.1,0,1.6c-0.4,0.2-1,0.1-1,0.9c0,6.1-0.2,12.2-0.3,18.4
		c-0.1,2.2-0.1,4.5-0.1,6.7c-0.1,6.1-0.2,12.2-0.4,18.4c-0.2,2-0.2,4-0.2,6c0,0.2,0.1,0.4-0.1,0.6c-0.7-1.7-0.9-3.5-0.9-5.3
		c0.1-4.2,0-8.4,0.1-12.6c0.1-3.5,0.1-6.9,0.1-10.4c0-7.6,0.3-15.1,0.2-22.7c0-0.5,0.2-0.7,0.6-0.9C151.7,170.3,152.3,170,153,169.7
		z"/>
	<path id="XMLID_634_" class="st11" d="M142.5,66.5c3.1-2.4,6.2-4.9,9.3-7.3c0.3-0.2,0.4-0.6,0.5-0.9c0.6-2.3,1.2-4.6,1.7-7
		c0.1-0.5,0.3-0.8,0.9-1c1.5-0.4,3-1,4.4-1.5c0.3-0.1,0.6-0.3,0.9,0c0.1,0.5,0.2,1,0.3,1.5c-1.3,0.4-2.6,0.9-3.9,1.2
		c-0.7,0.2-0.9,0.5-1.1,1.2c-0.5,2.2-1,4.4-1.5,6.7c-0.1,0.4-0.3,0.7-0.6,1c-1.2,1-2.5,2.1-3.7,3.1c-2.5,2.1-5,4.1-7.5,6.2
		c0,0,0,0,0,0c0-0.6,0-1.1,0-1.7C142.5,67.5,142.5,67,142.5,66.5z"/>
	<path id="XMLID_633_" class="st4" d="M137,88.9c1.8-0.1,3.5-0.6,5.3-0.9c3.4-0.6,6.7-1.2,10.1-1.8c0.6-0.1,0.9-0.3,1.1-0.9
		c1-3.5,2.1-7,3.2-10.5c0.1-0.4,0.4-0.6,0.8-0.7c1.7-0.6,3.5-1.2,5.2-1.8c0.1,0.6-0.1,1.2-0.2,1.7c-1.2,0.1-2.2,0.7-3.4,0.9
		c-0.9,0.1-1.2,0.5-1.4,1.5c-0.4,2.6-1.3,5.2-2.2,7.6c-0.3,0.8-0.6,1.7-1.2,2.4c-0.5,0.5-1,0.8-1.6,0.9c-4,0.9-7.9,1.7-11.9,2.5
		c-1.4,0.3-2.8,0.7-4.2,0.6C136.6,89.9,136.8,89.4,137,88.9z"/>
	<path id="XMLID_632_" class="st1" d="M197.7,67.5c-0.5-0.5-0.4-1.3-0.6-2c-0.1-0.4-0.1-0.9-0.4-1.2c0-1-0.9-0.8-1.5-1
		c-0.4-0.7-0.8-1.4-1-2.2c1.7-0.3,3.4-0.6,5.1-0.9c0.4-0.1,0.7,0.1,0.9,0.5c0.9,1.2,1.8,2.5,2.7,3.7c0.8,1.3,0.8,1.3-0.2,2.5
		c-0.5,0.6-1,1.2-1.5,1.9c-0.5,0.7-1.1,0.6-1.7,0.2C198.8,68.4,198.3,68,197.7,67.5z"/>
	<path id="XMLID_631_" class="st9" d="M174.3,104.2c-0.2-0.3-0.4-0.2-0.7-0.2c0.1-1.4,0.1-2.8,0.2-4.1c0.1-1.3,0-2.6,0.2-3.8
		c0-0.1-0.1-0.2-0.1-0.4c1.5-0.9,3-1.7,4.5-2.5c0,0.4,0,0.9,0,1.3c-0.2,3.2-0.3,6.3-0.5,9.5c-1,0.5-2,0.7-3,0.3
		C174.8,104.1,174.5,104.1,174.3,104.2z"/>
	<path id="XMLID_630_" class="st4" d="M142.5,69.7c2.5-2.1,5-4.1,7.5-6.2c1.2-1,2.5-2.1,3.7-3.1c0.3-0.3,0.5-0.5,0.6-1
		c0.5-2.2,1-4.4,1.5-6.7c0.1-0.6,0.4-1,1.1-1.2c1.3-0.3,2.6-0.8,3.9-1.2c0.1,0.4,0.1,0.9,0.2,1.3c-0.9,0.3-1.7,0.6-2.6,0.8
		c-0.9,0.2-1.2,0.8-1.4,1.5c-0.5,2.1-1.1,4.3-1.7,6.4c-0.1,0.3-0.3,0.5-0.5,0.7c-1.5,1.4-3,2.9-4.7,4.1c-2.4,1.9-4.6,4-7,6
		c-0.1,0.1-0.3,0.2-0.5,0.3C142.5,71,142.5,70.3,142.5,69.7z"/>
	<path id="XMLID_629_" class="st11" d="M141.5,36.5c0-0.5,0.2-0.9,0.5-1.1c0.8-0.6,1.2-1.4,1.4-2.4c0.2-1.2,0.6-2.4,0.9-3.6
		c0.2-1,0.9-1.6,1.9-1.6c1.9,0,3.7,0,5.6,0c0.4,0.5,0.6,1.1,0.8,1.6c-1.9,0.1-3.8,0.3-5.7,0.4c-0.6,0-0.8,0.3-0.9,0.8
		c-0.3,1.4-0.4,2.8-0.9,4.1c-0.7,1.6-2,2.8-3.5,3.8C141.6,37.9,141.5,37.2,141.5,36.5z"/>
	<path id="XMLID_628_" class="st11" d="M171.8,65.3c1.4-1.8,2.8-3.6,4-5.5c0.1-0.1,0.2-0.3,0.3-0.3c1.9-0.7,3.6-1.9,5.5-2.7
		c0.5,1.8,0.5,1.8-1.2,2.7c-0.8,0.5-1.7,0.9-2.5,1.4c-0.3,0.1-0.5,0.2-0.7,0.4c-1.6,2.3-3.2,4.7-4.7,7.1c-0.1,0.1-0.2,0.3-0.4,0.5
		C171.8,67.7,172.1,66.5,171.8,65.3z"/>
	<path id="XMLID_627_" class="st4" d="M141.7,38.5c1.5-1,2.8-2.2,3.5-3.8c0.5-1.3,0.6-2.7,0.9-4.1c0.1-0.5,0.3-0.8,0.9-0.8
		c1.9-0.1,3.8-0.2,5.7-0.4c0.2,0.5,0.5,0.9,0.7,1.4c-1.8,0-3.6,0.2-5.5,0.3c-0.4,0-0.5,0.2-0.6,0.6c-0.1,0.9-0.2,1.8-0.3,2.6
		c-0.1,0.5-0.3,0.9-0.6,1.3c-1.5,1.6-3,3.2-4.4,4.7C141.7,39.8,141.8,39.1,141.7,38.5z"/>
	<path id="XMLID_626_" class="st3" d="M174.3,104.2c0.2-0.1,0.4,0,0.7,0c1.1,0.4,2.1,0.2,3-0.3c0.2-0.1,0.5-0.2,0.7-0.2
		c1-0.2,1.3-0.7,1.3-1.7c-0.1-3.1,0-6.1,0-9.2c0.4,0.3,0.8,0.6,1.2,0.8c0,3.3,0,6.6,0,9.9c0,0.8-0.1,1.2-1,1.3
		c-0.8,0.1-1.5,0.4-2.2,0.7c-0.5,0.1-1,0.2-1.6,0.1c-0.7-0.1-1.4-0.2-2.1-0.3C174.3,104.9,174.3,104.5,174.3,104.2z"/>
	<path id="XMLID_625_" class="st4" d="M180,92.8c0,3.1-0.1,6.1,0,9.2c0,1-0.3,1.6-1.3,1.7c-0.2,0-0.5,0.2-0.7,0.2
		c0.2-3.2,0.3-6.3,0.5-9.5c0-0.4,0-0.9,0-1.3C178.9,92.9,179.3,92.3,180,92.8z"/>
	<path id="XMLID_624_" class="st11" d="M202.9,64.3c-0.9-1.2-1.8-2.5-2.7-3.7c-0.2-0.3-0.4-0.5-0.9-0.5c-1.7,0.3-3.4,0.6-5.1,0.9
		c-0.4-0.5-0.5-1.1-0.8-1.6c1.9-0.4,3.8-0.7,5.7-1.1c0.5-0.1,0.8,0,1.1,0.4c1.1,1.4,2.2,2.7,3.3,4.1
		C203.3,63.3,203.2,63.8,202.9,64.3z"/>
	<path id="XMLID_623_" class="st11" d="M167.1,37.6c1.4-1,2.8-2,4.2-3c0.3-0.2,0.5-0.5,0.9-0.5c1.2,1.8,1.3,1.8-0.4,3.2
		c-1.2,1-2.4,1.9-3.7,3C167.8,39.3,167.5,38.4,167.1,37.6z"/>
	<path id="XMLID_622_" class="st11" d="M201.5,92.1c-0.8-0.6-1.7-1.3-2.5-1.9c-0.3-0.3-0.6-0.4-1.1-0.3c-1.2,0.1-2.5,0.1-3.8,0.1
		c0.3-0.6,0.6-1.2,0.8-1.8c1.2-0.1,2.4,0,3.5,0.2c1.1,0.2,1.9,1,2.8,1.6C201.4,90.6,201.5,91.4,201.5,92.1z"/>
	<path id="XMLID_621_" class="st11" d="M197.3,51.5c0.3,0.6,1,0.9,1.2,1.6c-1.2-0.3-2.2,0.2-3.3,0.4c-1.4,0.2-2.8,0.5-4.2,0.8
		c-0.3-0.3-0.5-0.7-0.4-1.2c1.9-0.5,3.8-1,5.6-1.6C196.6,51.4,197,51.4,197.3,51.5z"/>
	<path id="XMLID_620_" class="st11" d="M154.7,17.3c0.3-0.9,0.7-1.7,1-2.6c0.1-0.2,0.1-0.6,0.5-0.6c0.1,0.1,0.2,0.3,0.4,0.4
		c1.1,0.6,1,1.5,0.5,2.5c-0.3,0.6-0.2,1.5-0.7,1.6c-0.4,0.1-0.9-0.7-1.3-1.1C154.9,17.5,154.8,17.4,154.7,17.3z"/>
	<path id="XMLID_619_" class="st1" d="M190,45.2c-0.5,0.2-0.9,0.5-1.3,0.9c-0.4,0.2-0.8,0.5-1.1,0.7c-0.4-0.8-0.9-1.5-1.1-2.4
		C187.7,44.5,188.9,44.5,190,45.2z"/>
	<path id="XMLID_618_" class="st11" d="M187.6,46.8c0.4-0.2,0.8-0.5,1.1-0.7c0.4,0.1,0.9,0.2,1.2,0.5c-0.6,0.5-1.1,0.9-1.7,1.4
		C187.8,47.7,187.7,47.2,187.6,46.8z"/>
	<path id="XMLID_617_" class="st11" d="M195.2,63.3c0.6,0.2,1.4,0,1.5,1c-0.4-0.1-0.7-0.1-1.1-0.2C195.4,63.9,195.2,63.6,195.2,63.3
		z"/>
	<path id="XMLID_616_" class="st7" d="M114.4,39.1c-0.1,2.1-0.5,4.2-0.7,6.4c-0.1,0.7-0.1,1.4-0.1,2.1c0.1,6.1,0.1,12.2,0.2,18.3
		c0,0.3,0,0.6,0,0.9c-0.1-0.1-0.2-0.1-0.4-0.2c-3.1-2.4-6.2-4.9-9.3-7.3c-0.3-0.3-0.5-0.6-0.6-1c-0.6-2.4-1.2-4.7-1.8-7.1
		c-0.1-0.4-0.2-0.6-0.6-0.7c-1.8-0.6-3.5-1.1-5.3-1.7c-0.1-0.7,0.3-1.2,0.5-1.7c0.9-2.8,1.8-5.6,2.8-8.3c1-2.7,1.9-5.5,3.6-7.9
		c0.3-0.4,0.4-0.8,0.6-1.2c1.8,0.1,3.5,0.3,5.3,0.4c0.6,0,1,0.2,1.1,0.9c0.1,0.9,0.3,1.9,0.6,2.8c0.2,0.6,0.1,1.4,0.6,1.9
		C112.1,36.6,113.2,37.8,114.4,39.1z"/>
	<path id="XMLID_615_" class="st7" d="M113.7,70c0,0.7,0.1,1.4,0.1,2.2c-0.3,2.9,1.1,5.4,2,8c0.7,2,1.6,3.9,2.2,6
		c-0.2,0-0.3,0-0.5,0c-3.9-0.5-7.7-1.1-11.6-1.6c-0.8-0.1-1.1-0.5-1.3-1.2c-1.1-3.4-2.2-6.8-3.3-10.1c-0.1-0.4-0.2-0.7-0.7-0.8
		c-2.4-0.7-4.7-1.4-7-2.1c-0.1-2.5,0-5,0.2-7.5c0.1-1.4,0.2-2.8,0.3-4.1c0.2-2.7,0.4-5.5,1.2-8.1c1.3,0.4,2.7,0.8,4,1.2
		c0.4,0.1,0.6,0.4,0.7,0.8c0.5,2.2,1,4.4,1.5,6.6c0.1,0.5,0.2,0.9,0.7,1.3C106,63.6,109.9,66.8,113.7,70z"/>
	<path id="XMLID_614_" class="st7" d="M68.8,75c-1.1-1.4-0.9-3-0.8-4.6c0.1-1.5,0.4-2.9,0.6-4.4c0.2-1.6,0.5-3.3,0.9-4.9
		c0.3-1.2,0.5-2.4,0.9-3.6c0.2-0.5,0.3-0.6,0.7-0.3c0.4,0.3,0.8,0.4,1.2,0.7c1.7,0.9,3.5,1.9,5.2,2.8c0.5,0.3,0.9,0.6,1.2,1.1
		c1.7,2.5,3.3,5,5,7.5c0.2,3.6,0.5,7.1,0.7,10.7c0.1,2,0.3,4,0.5,6.1c0,0.5,0,0.9,0,1.5c-0.7-0.3-1.3-0.5-1.9-0.8
		c-2-1-4.2-1.8-6.1-3.2c-1.6-1.2-3.3-2.2-4.6-3.6c-1.2-1.3-2.4-2.8-3.3-4.4C69.1,75.4,69,75.2,68.8,75z"/>
	<path id="XMLID_613_" class="st7" d="M72.9,56.1c-0.5-0.4-1.5-0.4-1.6-1c-0.1-0.5,0.4-1.1,0.5-1.7c0.9-3,2-5.8,3.3-8.7
		c1-2.3,2-4.6,3.2-6.8c0.6-1.1,1.3-2.2,1.9-3.3c0.2-0.4,0.3-0.2,0.5,0c0.4,0.3,0.8,0.6,1.2,0.9c2,1.6,4,3.3,6,4.9
		c-0.5,1.3-0.9,2.6-1.6,3.9c-0.8,1.5-0.8,3.2-0.9,4.8c-0.2,2.7-0.4,5.4-0.6,8.1c-0.1,1.7-0.2,3.4-0.4,5.1c-0.1,1.1-0.1,2.1-0.2,3.2
		c-1.2-1.6-2.3-3.2-3.5-4.7c-0.3-0.4-0.6-1-1.1-1.3C77.4,58.3,75.2,57.2,72.9,56.1z"/>
	<path id="XMLID_612_" class="st0" d="M105.9,255.4c-0.1-0.1-0.1-0.1-0.2-0.2c-0.7-0.6-0.6-1.4-0.7-2.2c-0.2-2.7-0.2-5.4-0.4-8.2
		c-0.2-3.1-0.4-6.3-0.5-9.4c-0.1-1.2-0.1-2.3-0.1-3.5c0.5-0.5,0.7-1.1,0.7-1.7c0-0.6,0.1-1.2,0.4-1.7c0.3-0.4,0.5-0.9,0.5-1.5
		c0-0.9,0.7-1.6,0.9-2.4c0.3-1.4,0.7-2.7,1-4.1c0.4-2.1,0.9-4.2,1.7-6.3c0.7-1.7,1.6-3.3,2-5.1c0.1-0.5,0.5-0.9,0.9-1.2
		c0.4-0.3,0.6-0.2,0.6,0.3c0.1,0.8-0.2,1.5-0.2,2.2c0,4.5,0.1,9,0,13.5c0,2,0,4-0.2,5.9c-0.2,2-0.9,4-1.3,6
		c-1.5,6.4-3,12.8-4.5,19.3c0,0.2,0,0.3,0,0.5C106.3,255.6,106.1,255.5,105.9,255.4z"/>
	<path id="XMLID_611_" class="st7" d="M119.2,89.1c0.6,1.4,1.1,2.8,1.7,4.2c-1.2,0.1-2.3,0.1-3.5,0.1c-2.5,0-4.9-0.3-7.4-0.4
		c-1.3,0-2.6-0.3-3.8-0.4c-1.3-0.1-2.5-0.5-3.8-0.6c-2.1-0.3-4.1-0.7-6-1.6c-0.4-0.2-0.6-0.4-0.7-0.8c-1-4.3-1.8-8.6-1.9-13
		c0-1.4-0.3-2.7-0.3-4.1c1.6,0.5,3.1,1.1,4.7,1.5c0.8,0.2,1.1,0.6,1.3,1.3c0.9,3,1.9,6,2.7,9c0.4,1.4,1,1.9,2.4,2.1
		C109.5,87.2,114.3,88.2,119.2,89.1z"/>
	<path id="XMLID_610_" class="st7" d="M115.5,15.6c1.9,1.1,4.1,1.5,6.2,2.1c-0.2,0.2-0.3,0.5-0.5,0.7c-1.6,2.2-3.2,4.3-4.7,6.5
		c-0.7,0.9-0.5,2-0.6,2.9c-0.4,2.8-0.8,5.6-1.1,8.5c-1.5-1-2.4-2.5-2.6-4.3c-0.1-0.7-0.4-1.5-0.5-2.2c-0.4-1.4-0.9-1.9-2.4-1.9
		c-1.6,0-3.2,0-4.8-0.1c2.2-3.6,4.5-7.3,7.6-10.3C112.9,16.6,114.2,15.9,115.5,15.6z"/>
	<path id="XMLID_609_" class="st10" d="M119.2,89.1c-4.9-0.9-9.8-1.8-14.7-2.6c-1.4-0.2-2.1-0.7-2.4-2.1c-0.8-3-1.8-6-2.7-9
		c-0.2-0.7-0.5-1.1-1.3-1.3c-1.6-0.4-3.1-1-4.7-1.5c0-0.7,0-1.5,0.1-2.2c2.3,0.7,4.7,1.4,7,2.1c0.5,0.1,0.6,0.5,0.7,0.8
		c1.1,3.4,2.2,6.7,3.3,10.1c0.2,0.7,0.5,1.1,1.3,1.2c3.9,0.5,7.7,1.1,11.6,1.6c0.2,0,0.3,0,0.5,0c0,0,0,0,0,0c0,0,0.1,0.1,0.1,0.1
		C118.5,87.1,119,88.1,119.2,89.1z"/>
	<path id="XMLID_608_" class="st10" d="M113.7,70c-3.8-3.2-7.7-6.4-11.5-9.6c-0.4-0.4-0.6-0.8-0.7-1.3c-0.5-2.2-1-4.4-1.5-6.6
		c-0.1-0.4-0.3-0.7-0.7-0.8c-1.3-0.4-2.7-0.8-4-1.2c0.1-0.6,0.2-1.2,0.5-1.8c1.8,0.6,3.5,1.2,5.3,1.7c0.4,0.1,0.5,0.4,0.6,0.7
		c0.6,2.4,1.2,4.7,1.8,7.1c0.1,0.4,0.2,0.7,0.6,1c3.1,2.4,6.2,4.8,9.3,7.3c0.1,0.1,0.2,0.1,0.4,0.2C113.7,67.8,113.7,68.9,113.7,70z
		"/>
	<path id="XMLID_607_" class="st10" d="M72.9,56.1c2.2,1.1,4.5,2.2,6.7,3.4c0.5,0.3,0.7,0.8,1.1,1.3c1.2,1.6,2.4,3.2,3.5,4.7
		c-0.1,1.3-0.2,2.6-0.3,3.9c-1.7-2.5-3.4-5-5-7.5c-0.3-0.5-0.7-0.8-1.2-1.1c-1.7-0.9-3.5-1.9-5.2-2.8C72.6,57.3,72.8,56.7,72.9,56.1
		z"/>
	<path id="XMLID_606_" class="st10" d="M104.3,27.8c1.6,0,3.2,0,4.8,0.1c1.5,0,2.1,0.4,2.4,1.9c0.2,0.7,0.4,1.4,0.5,2.2
		c0.2,1.8,1,3.3,2.6,4.3c0,1-0.1,1.9-0.4,2.9c-1.1-1.2-2.3-2.4-3.4-3.7c-0.5-0.5-0.4-1.2-0.6-1.9c-0.2-0.9-0.4-1.8-0.6-2.8
		c-0.1-0.7-0.5-0.8-1.1-0.9c-1.8-0.1-3.6-0.2-5.3-0.4C103.6,28.9,103.9,28.3,104.3,27.8z"/>
	<path id="XMLID_605_" class="st10" d="M87.9,40.4c-2-1.6-4-3.3-6-4.9c0.4-0.6,0.8-1.3,1.3-1.9c1.9,1.4,3.9,2.7,5.8,4.1
		C88.6,38.6,88.2,39.5,87.9,40.4z"/>
	<path id="XMLID_604_" class="st6" d="M78.8,104c-0.6,0-1.1-0.4-1.7-0.6c-0.3-0.1-0.4-0.3-0.4-0.6c0-3.4-0.2-6.8-0.1-10.1
		c0.6,0.2,1.1,0.4,1.5,0.8c0.1,2.3,0.3,4.6,0.4,6.8C78.6,101.5,78.7,102.7,78.8,104z"/>
	<path id="XMLID_603_" class="st10" d="M99.6,15.2c0.5-0.5,1.1-0.9,1.6-1.4c0.4,0.9,0.7,1.8,1.1,2.7c-0.5,0.6-1,1.1-1.6,1.5
		C100.3,17.1,99.9,16.1,99.6,15.2z"/>
	<path id="XMLID_602_" class="st5" d="M116.5,24.8c1.6-2.2,3.2-4.3,4.7-6.5c0.2-0.2,0.3-0.5,0.5-0.7c1.5-1.3,3.3-2.2,4.9-3.3
		c0.1-0.1,0.3-0.1,0.4-0.1c0.1,0,0.3,0.1,0.4,0c2.1-0.4,3.5,1.1,5,2c0.5,0.3,1,0.5,1.4,1c-1.8,0.7-3.5,1.5-5.3,2.2
		c-0.7,0.3-0.7,0.5-0.1,1c1.7,1.4,3.5,2.8,5.2,4.1c0.1,0.1,0.2,0.2,0.3,0.2c1.6,0.8,1.5,2.3,1.7,3.8c0.2,2.1,0.6,4.3,0.8,6.4
		c0.2,2,0.5,4,0.7,6c0.2,1.9,0.6,3.8,0.5,5.8c-0.2,4-0.2,8.1-0.4,12.1c-0.1,2,0,4.1-0.1,6.1c-0.3,3,0.1,6-0.5,9c-0.2,1-0.6,2-1,2.9
		c-1.3,2.9-2.3,5.8-3.4,8.7c-0.5,1.4-1.4,2.7-2,4.1c-0.6,1.3-1.1,2.6-1.6,3.8c-0.1,0.1-0.2,0.3-0.3,0.4c0.1-1.1,0-2.2,0-3.3
		c0-0.3,0.1-0.6-0.2-0.9c0-0.2,0-0.4,0.1-0.6c1.1-4.6,2.3-9.2,3.4-13.9c0.4-1.7,1.1-3.3,1-5.1c-0.1-5.7-0.2-11.4-0.3-17.1
		c-0.1-2.9,0.1-5.8-0.2-8.6c-0.6-5.7-1.4-11.4-2.1-17.1c-0.2-1.5-1-2.4-2-3.3c-0.1-1.4,0.2-2.7-0.3-4.1c-0.4,1.4-0.5,2.8-0.2,4.3
		c-0.2,0.6-0.7,0.9-1,1.3c-0.1,0.2-0.3,0.4-0.4,0.6c-0.4,2.8-0.8,5.6-1.2,8.3c-0.3,1.9-0.4,3.9-0.6,5.8c-0.2,1.9-0.6,3.7-0.6,5.6
		c-0.1,7-0.1,14.1-0.4,21.1c-0.1,2.8,0.3,5.5,1,8.2c1.2,4.4,2.2,8.9,3.3,13.4c-0.6,0.3-0.8,0.8-0.8,1.5c0,1.1,0.2,2.2-0.1,3.2
		c-1.1-2.6-2.3-5.1-3.2-7.8c-0.9-2.7-2-5.3-3.1-7.9c-0.7-1.6-0.9-3.3-1-5c-0.2-3.4,0-6.9-0.2-10.3c-0.1-2.8,0-5.5-0.1-8.3
		c-0.1-2.4-0.1-4.9-0.2-7.3c0-2.4,0.6-4.7,0.9-7.1c0.4-2.8,0.8-5.5,1.3-8.3c0.3-1.9,0.5-3.8,0.9-5.7c0.1-0.6-0.1-0.7-0.6-0.6
		c-1.4,0.1-2.9-0.2-4.3-0.2C116.9,25,116.7,25,116.5,24.8z"/>
	<path id="XMLID_601_" class="st7" d="M128.1,24.1c1,0.9,1.8,1.8,2,3.3c0.7,5.7,1.5,11.4,2.1,17.1c0.3,2.8,0.2,5.7,0.2,8.6
		c0.1,5.7,0.2,11.4,0.3,17.1c0,1.8-0.6,3.4-1,5.1c-1.1,4.6-2.3,9.2-3.4,13.9c0,0.2-0.1,0.4-0.1,0.6c-0.5-0.2-0.2-0.7-0.5-1
		c-1.1-4.5-2.1-8.9-3.3-13.4c-0.7-2.7-1.1-5.4-1-8.2c0.2-7,0.3-14.1,0.4-21.1c0-1.9,0.4-3.7,0.6-5.6c0.2-1.9,0.4-3.9,0.6-5.8
		c0.4-2.8,0.8-5.6,1.2-8.3c0-0.3,0.2-0.4,0.4-0.6c0.3-0.5,0.8-0.8,1-1.3C127.8,24.3,127.9,24.2,128.1,24.1z"/>
	<path id="XMLID_600_" class="st4" d="M142.5,68c0,0.6,0,1.1,0,1.7C142.2,69.1,142.3,68.6,142.5,68z"/>
	<path id="XMLID_599_" class="st7" d="M118.1,86.2c0,0-0.1-0.1-0.1-0.1C118.1,86.1,118.1,86.1,118.1,86.2z"/>
	<path id="XMLID_598_" class="st4" d="M169.7,187.4c-0.1,0-0.2-0.1-0.3-0.1c-0.2-1-0.7-2-1.1-2.9c-0.2-0.5-0.2-0.9,0-1.4
		c1.9-4.5,3.7-9,5.6-13.6c0.5-1.3,1.2-2.5,1.4-3.8c0-0.2,0.1-0.4,0.1-0.7c0.1-2,0.1-4.1,0.2-6.1c0-0.5,0.1-1,0.2-1.5
		c1.4,1.1,2.7,2.3,4.1,3.4c0.2,0.1,0.4,0.4,0.5,0c0.1,0.3,0,0.6,0.3,0.7c0.8,0.4,0.8,1.1,0.8,1.8c-0.1,2.1-0.1,4.2-0.2,6.3
		c0,0.6-0.2,1.2-0.6,1.8C176.9,176.7,173.3,182.1,169.7,187.4z"/>
	<path id="XMLID_597_" class="st3" d="M180.2,160.7c-0.2,0.5-0.3,0.2-0.5,0c-1.4-1.1-2.7-2.3-4.1-3.4c-0.5-0.6-1-0.8-1.8-0.4
		c-0.9,0.4-1.8,0.8-2.7,1c0-0.3,0-0.5,0.1-0.8c0-0.4,0-0.8,0-1.1c0-0.1,0-0.2,0-0.3c1-0.5,2-0.9,2.9-1.4c0.6-0.4,1.1-0.4,1.6,0.1
		c0.2,0.2,0.4,0.3,0.6,0.5c1.3,1.1,2.7,2.1,4,3.2C180.3,158.9,180.3,159.8,180.2,160.7z"/>
	<path id="XMLID_596_" class="st4" d="M180.3,158c-1.3-1.1-2.7-2.1-4-3.2c-0.2-0.2-0.4-0.3-0.6-0.5c0.4-8.7,0.7-17.3,1.1-26
		c1.5-0.7,3-1.5,4.5-2.2c0.5-0.2,1.1-0.8,1.5-0.5c0.4,0.3,0,1,0,1.5c-0.1,3.5-0.2,7.1-0.4,10.6c-0.2,3.9-0.3,7.9-0.5,11.8
		c-0.1,2.6-0.3,5.3-0.3,7.9C181.6,158.8,181.6,158.8,180.3,158z"/>
	<path id="XMLID_595_" class="st3" d="M181.3,126.2c-1.5,0.7-3,1.5-4.5,2.2c-1.3-0.4-2.6-0.7-3.9-1.2c0-0.2,0-0.4,0-0.7
		c0-0.7,0.4-0.8,1-0.6c1,0.2,1.9,0.6,3,0.5c1.2-0.6,2.3-1.1,3.5-1.7c0.3-0.1,0.5-0.3,0.8-0.3C181.3,125,181.3,125.6,181.3,126.2z"/>
	<path id="XMLID_594_" class="st9" d="M136.2,186.6c0.3-0.1,0.5-0.3,0.5-0.6c0.1-2.4,0.6-4.6,0.9-7c0.2-2.1,1-4.1,1.5-6.2
		c0.1-0.3,0.2-0.4,0.5-0.5c0.4,13.6,0.1,27.2,0.2,40.8c0,0.3,0.3,0.8-0.3,0.9c-0.5-2.2-1-4.3-1.4-6.5c-0.6-2.5-1.1-5.1-1.7-7.6
		c-0.2-0.9-0.1-1.7-0.1-2.6c0-1.8,0-3.6,0-5.3c0.5-0.5,0.5-1,0-1.5C136.2,189.2,136.2,187.9,136.2,186.6z"/>
	<path id="XMLID_593_" class="st0" d="M151.2,215.7c0.2-6.1,0.3-12.2,0.4-18.4c0-2.2,0.1-4.5,0.1-6.7c0.2-6.1,0.3-12.2,0.3-18.4
		c0-0.8,0.6-0.7,1-0.9c0.6-0.1,1.1-0.2,1.7-0.3c0,1,0.1,2.1,0,3.1c-0.2,2-0.2,4-0.3,6c-0.2,3.2-0.4,6.4-0.5,9.5
		c-0.1,2-0.2,4-0.3,6.1c-0.2,3.2-0.3,6.3-0.5,9.5c-0.1,2.1-0.2,4.2-0.3,6.3c-0.1,2.3-0.3,4.5-0.3,6.8
		C151.7,217.6,151.7,216.5,151.2,215.7z"/>
	<path id="XMLID_592_" class="st0" d="M144.2,112.8c1.6,0.4,3.1,0.6,4.7,0.7c1,0.1,2.1,0.2,3.1,0.3c0.3,0,0.4,0.2,0.4,0.5
		c-0.1,2.8-0.3,5.7-0.4,8.5c-0.1,2.9-0.3,5.8-0.5,8.7c0,0.3-0.1,0.5-0.2,0.8c-1.2,2.7-2.4,5.3-3.5,8c-0.2,0.4-0.3,0.6-0.8,0.5
		c-0.9-0.3-1.9-0.4-2.9-0.6c-0.3-0.3-0.7-0.2-1-0.3c-0.8-0.1-1-0.4-1-1.2c0.1-2.8-0.1-5.6-0.2-8.4c0.1-5.6-0.2-11.2-0.1-16.8
		c0-0.3,0-0.6,0-1C142.5,112.6,143.3,112.7,144.2,112.8z"/>
	<path id="XMLID_591_" class="st9" d="M172.9,127.2c1.3,0.5,2.6,0.8,3.9,1.2c-0.4,8.7-0.7,17.3-1.1,26c-0.5-0.5-1-0.5-1.6-0.1
		c-0.9,0.5-1.9,1-2.9,1.4c-0.6,0.3-0.5-0.1-0.5-0.5c0.2-1.1,0-2.3,0.2-3.4c0.2-1.3,0.1-2.7,0.2-4c0.2-2.7,0.2-5.4,0.4-8.1
		c0.3-4.2,0.5-8.4,0.7-12.5C172.5,127.2,172.7,127.2,172.9,127.2z"/>
	<path id="XMLID_590_" class="st9" d="M171.2,156c0,0.4,0,0.8,0,1.1C171.1,156.8,171,156.4,171.2,156z"/>
	<path id="XMLID_589_" class="st13" d="M136.2,190.5c0.5,0.5,0.5,1,0,1.5C136.2,191.5,136.2,191,136.2,190.5z"/>
	<path id="XMLID_588_" class="st9" d="M177,126.4c-1,0.1-2-0.3-3-0.5c-0.6-0.1-1-0.1-1,0.6c-0.1-0.3,0.1-0.8-0.5-0.9
		c-0.1-1.4,0.1-2.8,0.2-4.2c0.1-1.3,0.1-2.6,0.2-3.9c0.2-2.7,0.2-5.4,0.4-8.1c0.1-1.4,0-2.9,0.3-4.3c0.2,0,0.4,0.1,0.6,0.1
		c0.7,0.1,1.4,0.2,2.1,0.3c0.5,0.1,1,0,1.6-0.1c-0.2,0.7-0.2,1.4-0.2,2.1c-0.1,3.1-0.3,6.1-0.4,9.2c-0.1,2.4-0.3,4.7-0.3,7.1
		C177.1,124.7,176.9,125.5,177,126.4z"/>
	<path id="XMLID_586_" class="st2" d="M128.1,24.1c-0.2,0.1-0.3,0.1-0.5,0.2c-0.3-1.4-0.3-2.9,0.2-4.3
		C128.3,21.4,128,22.8,128.1,24.1z"/>
</g>
</svg>
