<?xml version="1.0" encoding="utf-8"?>
<!-- Generator: Adobe Illustrator 19.0.0, SVG Export Plug-In . SVG Version: 6.00 Build 0)  -->
<svg version="1.1" id="Calque_1" xmlns="http://www.w3.org/2000/svg" xmlns:xlink="http://www.w3.org/1999/xlink" x="0px" y="0px"
	 viewBox="0 0 64 64" style="enable-background:new 0 0 64 64;" xml:space="preserve">
<path id="Chasseur1" d="M51.7,3.9L48.5,4l1.6,45.4c-1.7-3.3-4.5-8.1-8.8-12.3l4.1-9.5l-7-5.6L34.5,2L32,0l-2.5,2l-3.8,20.1l-7,5.6
	l4.1,9.5c-4.3,4.2-7.2,9-8.8,12.3L15.5,4l-3.2-0.1L1,55.4L16.1,64l3.7-2.5L17.3,58c1.2-1.2,4.8-4.5,9.5-6.1l2.3,5.4H32h2.8l2.3-5.4
	c4.7,1.7,8.3,4.9,9.5,6.1l-2.5,3.5l3.7,2.5L63,55.4L51.7,3.9z"/>
</svg>
