<?xml version="1.0" encoding="utf-8"?>
<!-- Generator: Adobe Illustrator 19.0.0, SVG Export Plug-In . SVG Version: 6.00 Build 0)  -->
<svg version="1.1" id="Calque_1" xmlns="http://www.w3.org/2000/svg" xmlns:xlink="http://www.w3.org/1999/xlink" x="0px" y="0px"
	 viewBox="0 0 64 64" style="enable-background:new 0 0 64 64;" xml:space="preserve">
<g id="XMLID_5_">
	<path id="XMLID_1_" d="M0,0"/>
	<path id="XMLID_2_" d="M64,0"/>
	<path id="XMLID_3_" d="M0,64"/>
	<path id="XMLID_4_" d="M64,64"/>
</g>
<g id="XMLID_13366_">
	<path id="XMLID_16068_" d="M19.4,41.5l0.9-4.7l-2.7-0.5l-3.4-13.5l-0.1,0.2v23c0.8-0.8,1.6-1.5,2.4-2.2
		C17.4,42.9,18.4,42.2,19.4,41.5z"/>
	<path id="XMLID_15254_" d="M0,0v64h64V0H0z M58.5,21.6h-4.6v0.6v2.2h4.6v15.2h-4.6v2.7h4.6v16.2H42.4v-8.4l-0.6,0.4l-2.1,1.3v6.7
		H24.4v-6.7l-2.1-1.3l-0.6-0.4v8.4H5.5V42.4h4.6v-2.7H5.5V24.4h4.6v-2.2v-0.6H5.5V5.5h16.2v16.2H18l0.7,2.7h3V33l1.6,0.3l1.2-6v-2.9
		H25l0.5-2.7h-1.1V5.5h15.2v16.2h-1.1l0.5,2.7h0.6v2.9l1.2,6l1.6-0.3v-8.6h3l0.7-2.7h-3.7V5.5h16.2V21.6z"/>
	<path id="XMLID_13370_" d="M46.4,36.3l-2.7,0.5l0.9,4.7c1,0.7,2,1.4,2.9,2.2c0.8,0.7,1.6,1.4,2.4,2.2v-23l-0.1-0.2L46.4,36.3z"/>
	<polygon id="XMLID_13367_" points="39.6,46.1 39.2,44.2 38.3,39.6 38.3,39.6 36.1,28.2 32.8,11.9 31.2,11.9 29.2,21.6 29.2,21.6 
		28.7,24.4 28.7,24.4 25.7,39.6 25.7,39.6 24.1,47.4 32,52.1 39.6,47.5 39.6,47.5 39.9,47.4 39.6,46.1 	"/>
</g>
</svg>
