<?xml version="1.0" encoding="utf-8"?>
<!-- Generator: Adobe Illustrator 19.0.0, SVG Export Plug-In . SVG Version: 6.00 Build 0)  -->
<svg version="1.1" id="Calque_1" xmlns="http://www.w3.org/2000/svg" xmlns:xlink="http://www.w3.org/1999/xlink" x="0px" y="0px"
	 viewBox="0 0 64 64" style="enable-background:new 0 0 64 64;" xml:space="preserve">
<g id="XMLID_9727_">
	<g id="XMLID_9740_">
		<g id="XMLID_9741_">
			<path id="XMLID_9744_" d="M44,44.8c-5.1,0-9.3,4.2-9.3,9.3c0,5.1,4.2,9.3,9.3,9.3s9.3-4.2,9.3-9.3C53.2,48.9,49.1,44.8,44,44.8z"
				/>
			
				<rect id="XMLID_9743_" x="4.3" y="38.8" transform="matrix(0.7071 -0.7071 0.7071 0.7071 -20.3829 34.9525)" width="55.3" height="6.7"/>
			<path id="XMLID_9742_" d="M20,39.4c5.1,0,9.3-4.2,9.3-9.3s-4.2-9.3-9.3-9.3s-9.3,4.2-9.3,9.3S14.9,39.4,20,39.4z"/>
		</g>
	</g>
	<g id="XMLID_9728_">
		<g id="XMLID_9729_">
			<g id="XMLID_9730_">
				<g id="XMLID_9731_">
					<g id="XMLID_9732_">
						<path id="XMLID_9738_" d="M17.3,0l3,8.1l3-8.1h2.9v11.1H24v-3l0.2-5.4l-3.2,8.5h-1.5l-3.1-8.4l0.2,5.4v3h-2.2V0H17.3z"/>
						<path id="XMLID_9735_" d="M35.6,8.7h-4.3l-0.9,2.4h-2.2L32.5,0h2l4.2,11.1h-2.2L35.6,8.7z M31.9,7h3l-1.5-4.2L31.9,7z"/>
						<path id="XMLID_9733_" d="M44.6,3.8L46.8,0h2.5L46,5.5l3.6,5.6H47l-2.3-3.9l-2.2,3.9h-2.5l3.5-5.6L40,0h2.5L44.6,3.8z"/>
					</g>
				</g>
			</g>
		</g>
	</g>
</g>
<g id="XMLID_5_">
	<path id="XMLID_1_" d="M0,0"/>
	<path id="XMLID_2_" d="M64,0"/>
	<path id="XMLID_3_" d="M0,64"/>
	<path id="XMLID_4_" d="M64,64"/>
</g>
</svg>
