<?xml version="1.0" encoding="utf-8"?>
<!-- Generator: Adobe Illustrator 19.0.0, SVG Export Plug-In . SVG Version: 6.00 Build 0)  -->
<svg version="1.1" id="Calque_1" xmlns="http://www.w3.org/2000/svg" xmlns:xlink="http://www.w3.org/1999/xlink" x="0px" y="0px"
	 viewBox="0 0 64 64" style="enable-background:new 0 0 64 64;" xml:space="preserve">
<g id="XMLID_9727_">
	<g id="XMLID_9740_">
		<g id="XMLID_9741_">
			<path id="XMLID_9744_" d="M49.5,35.9c-7.5,0-13.5,6.1-13.5,13.5C35.9,56.9,42,63,49.5,63S63,56.9,63,49.5
				C63,42,56.9,35.9,49.5,35.9z"/>
			
				<rect id="XMLID_9743_" x="-8.4" y="27.1" transform="matrix(0.7071 -0.7071 0.7071 0.7071 -13.2548 32)" width="80.8" height="9.7"/>
			<path id="XMLID_9742_" d="M14.5,28.1c7.5,0,13.5-6.1,13.5-13.5S22,1,14.5,1S1,7.1,1,14.5S7.1,28.1,14.5,28.1z"/>
		</g>
	</g>
</g>
<g id="XMLID_5_">
	<path id="XMLID_1_" d="M0,0"/>
	<path id="XMLID_2_" d="M64,0"/>
	<path id="XMLID_3_" d="M0,64"/>
	<path id="XMLID_4_" d="M64,64"/>
</g>
</svg>
