<?xml version="1.0" encoding="utf-8"?>
<!-- Generator: Adobe Illustrator 19.0.0, SVG Export Plug-In . SVG Version: 6.00 Build 0)  -->
<svg version="1.1" id="Calque_1" xmlns="http://www.w3.org/2000/svg" xmlns:xlink="http://www.w3.org/1999/xlink" x="0px" y="0px"
	 viewBox="0 0 64 64" style="enable-background:new 0 0 64 64;" xml:space="preserve">
<g id="XMLID_5_">
	<path id="XMLID_1_" d="M0,0"/>
	<path id="XMLID_2_" d="M64,0"/>
	<path id="XMLID_3_" d="M0,64"/>
	<path id="XMLID_4_" d="M64,64"/>
</g>
<g id="XMLID_10914_">
	<polygon id="XMLID_10928_" points="35,5.6 25.3,0 15.7,5.6 25.3,11.1 	"/>
	<polygon id="XMLID_10927_" points="23.5,47.3 13.8,52.9 13.8,64 23.5,58.4 	"/>
	<polygon id="XMLID_10926_" points="23.5,14.3 13.8,8.8 13.8,19.9 23.5,25.5 	"/>
	<polygon id="XMLID_10925_" points="23.5,31.9 13.8,37.5 13.8,48.6 23.5,43 	"/>
	<polygon id="XMLID_10924_" points="21.6,28.7 12,23.1 2.3,28.7 12,34.2 	"/>
	<polygon id="XMLID_10923_" points="0.5,47.3 0.5,58.4 10.1,64 10.1,52.9 	"/>
	<polygon id="XMLID_10922_" points="0.5,43 10.1,48.6 10.1,37.5 0.5,31.9 	"/>
	<polygon id="XMLID_10921_" points="48.3,44.1 38.7,38.5 29,44.1 38.7,49.7 	"/>
	<polygon id="XMLID_10920_" points="61.7,36.4 52,30.8 42.4,36.4 52,41.9 	"/>
	<polygon id="XMLID_10919_" points="36.8,8.8 27.2,14.3 27.2,25.5 36.8,19.9 	"/>
	<polygon id="XMLID_10918_" points="50.2,47.3 40.5,52.9 40.5,64 50.2,58.4 	"/>
	<polygon id="XMLID_10917_" points="63.5,39.6 53.9,45.2 53.9,56.3 63.5,50.7 	"/>
	<polygon id="XMLID_10916_" points="36.8,52.9 27.2,47.3 27.2,58.4 36.8,64 	"/>
	<polygon id="XMLID_10915_" points="27.2,40.9 36.8,35.3 36.8,24.2 27.2,29.8 	"/>
</g>
</svg>
