<?xml version="1.0" encoding="utf-8"?>
<!-- Generator: Adobe Illustrator 19.0.0, SVG Export Plug-In . SVG Version: 6.00 Build 0)  -->
<svg version="1.1" id="Calque_1" xmlns="http://www.w3.org/2000/svg" xmlns:xlink="http://www.w3.org/1999/xlink" x="0px" y="0px"
	 viewBox="0 0 64 64" style="enable-background:new 0 0 64 64;" xml:space="preserve">
<style type="text/css">
	.st0{font-family:'Roboto-Black';}
	.st1{font-size:23.2897px;}
	.st2{font-family:'Roboto-Medium';}
</style>
<g id="XMLID_5_">
	<path id="XMLID_1_" d="M0,0"/>
	<path id="XMLID_2_" d="M64,0"/>
	<path id="XMLID_3_" d="M0,64"/>
	<path id="XMLID_4_" d="M64,64"/>
</g>
<g id="XMLID_10903_">
	<g id="XMLID_10909_">
		<polygon id="XMLID_10912_" points="23.5,-4.1 23.5,-4.1 23.5,-4.1 		"/>
	</g>
</g>
<g id="XMLID_10887_">
	<g id="XMLID_10889_">
		<path id="XMLID_10896_" d="M27.4,17.8c-1.6-1.1-3.5-1.9-5.5-2.2v7.8h2.6L27.4,17.8z"/>
		<path id="XMLID_10895_" d="M6.3,28.8c0,3,1,5.8,2.7,8.1l3-6h5v-3.5h-3.6v-4H17v-7.7C10.9,16.9,6.3,22.3,6.3,28.8z"/>
		<path id="XMLID_10894_" d="M12,39.8c1.5,1,3.2,1.8,5,2.2v-7.1h-2.6L12,39.8z"/>
		<path id="XMLID_10891_" d="M34.1,14.4c-21-16.1-44.9,7.8-28.8,28.8C26.3,59.4,50.2,35.4,34.1,14.4z M32.2,41.3
			c-18.2,14-39-6.8-25-25C25.4,2.3,46.2,23.1,32.2,41.3z"/>
		<path id="XMLID_10890_" d="M30.4,20.7l-3.5,6.7h-5v3.5h3.6v4H22v7.2c6.4-1.1,11.2-6.6,11.2-13.3C33.2,25.8,32.1,23,30.4,20.7z"/>
	</g>
	<text id="XMLID_10888_" transform="matrix(0.858 0 0 1 43.7071 48.5412)"><tspan x="0" y="0" class="st0 st1">/</tspan><tspan x="9.3" y="0" class="st2 st1">u</tspan></text>
</g>
</svg>
