<?xml version="1.0" encoding="utf-8"?>
<!-- Generator: Adobe Illustrator 19.0.0, SVG Export Plug-In . SVG Version: 6.00 Build 0)  -->
<svg version="1.1" id="Calque_1" xmlns="http://www.w3.org/2000/svg" xmlns:xlink="http://www.w3.org/1999/xlink" x="0px" y="0px"
	 viewBox="0 0 16 16" style="enable-background:new 0 0 16 16;" xml:space="preserve">
<g id="XMLID_11806_">
	<path id="XMLID_2_" d="M8,16c-4.4,0-8-3.6-8-8s3.6-8,8-8s8,3.6,8,8S12.4,16,8,16z M8,0.6C3.9,0.6,0.6,3.9,0.6,8
		c0,4.1,3.3,7.4,7.4,7.4c4.1,0,7.4-3.3,7.4-7.4C15.4,3.9,12.1,0.6,8,0.6z"/>
	<g id="XMLID_11807_">
		<path id="XMLID_11808_" d="M4.5,10.3L6.8,8L4.5,5.7l1.2-1.2L8,6.8l2.2-2.3l1.2,1.2L9.2,8l2.3,2.3l-1.2,1.2L8,9.3l-2.2,2.3
			L4.5,10.3z"/>
	</g>
</g>
</svg>
