<?xml version="1.0" encoding="utf-8"?>
<!-- Generator: Adobe Illustrator 19.0.0, SVG Export Plug-In . SVG Version: 6.00 Build 0)  -->
<svg version="1.1" id="Calque_1" xmlns="http://www.w3.org/2000/svg" xmlns:xlink="http://www.w3.org/1999/xlink" x="0px" y="0px"
	 viewBox="0 0 64 64" style="enable-background:new 0 0 64 64;" xml:space="preserve">
<g id="XMLID_2061_">
	<path id="XMLID_20_" d="M60.8,55.8l-4.6-5.2c2.3-2.4,3.6-4,3.7-4.2c0.6-0.7,0.8-1.6,0.8-2.4c-0.1-0.8-0.5-1.6-1.1-2.1
		c-1.2-1-3.1-0.8-4.2,0.3l-0.2,0.2c-0.1,0.1-0.4,0.4-0.8,1l-0.2-0.6l-0.5-0.4c-0.1-0.1-5.8-5-12.6-11c5-5.6,9.6-10.7,11.8-12.9
		c6.6-6.6,9.4-14,9.5-14.3L64,0l-4.2,1.6c-0.3,0.1-7.8,3-14.3,9.5c-2.3,2.3-7.6,7.1-13.5,12.3c-5.8-5.2-11.2-10-13.5-12.3
		C12,4.6,4.5,1.7,4.2,1.6L0,0l1.6,4.2c0.1,0.3,3,7.8,9.5,14.3c2.2,2.2,6.8,7.3,11.8,12.9c-6.8,6-12.5,10.9-12.6,11l-0.5,0.4
		l-0.2,0.6c-0.5-0.5-0.7-0.8-0.8-1c-1.1-1.4-3.1-1.6-4.5-0.6c-0.6,0.5-1,1.2-1.1,2.1c-0.1,0.9,0.2,1.8,0.8,2.4v0
		c0.2,0.2,1.4,1.7,3.7,4.1l-4.6,5.2c-0.8,0.1-1.5,0.5-2.1,1.1c-1.6,1.6-1.5,4.2,0.2,5.9c1.7,1.7,4.3,1.8,5.9,0.2
		c0.6-0.6,0.9-1.3,1.1-2.1l5.2-4.6c2.4,2.3,4,3.6,4.2,3.7c0.7,0.6,1.6,0.8,2.4,0.8c0.8-0.1,1.6-0.5,2.1-1.1c1-1.2,0.8-3.1-0.3-4.2
		l-0.2-0.2c-0.1-0.1-0.4-0.4-1-0.8l0.6-0.2l0.4-0.5c0.1-0.1,4.7-5.4,10.4-11.9c5.7,6.5,10.3,11.8,10.4,11.9l0.4,0.5l0.6,0.2
		c-0.5,0.5-0.8,0.7-1,0.8c-1.4,1.1-1.6,3.1-0.6,4.5c0.5,0.6,1.2,1,2.1,1.1c0.9,0.1,1.8-0.2,2.4-0.8h0c0.2-0.2,1.7-1.4,4.1-3.7
		l5.2,4.6c0.1,0.8,0.5,1.5,1.1,2.1c1.6,1.6,4.2,1.5,5.9-0.2c1.7-1.7,1.8-4.3,0.2-5.9C62.3,56.3,61.6,55.9,60.8,55.8z"/>
</g>
</svg>
