<?xml version="1.0" encoding="utf-8"?>
<!-- Generator: Adobe Illustrator 19.0.0, SVG Export Plug-In . SVG Version: 6.00 Build 0)  -->
<svg version="1.1" id="Calque_1" xmlns="http://www.w3.org/2000/svg" xmlns:xlink="http://www.w3.org/1999/xlink" x="0px" y="0px"
	 viewBox="0 0 64 64" style="enable-background:new 0 0 64 64;" xml:space="preserve">
<style type="text/css">
	.st0{fill:#E72166;}
</style>
<g id="XMLID_5_">
	<path id="XMLID_1_" class="st0" d="M0,0"/>
	<path id="XMLID_3_" class="st0" d="M64,0"/>
	<path id="XMLID_4_" class="st0" d="M0,64"/>
	<path id="XMLID_2_" class="st0" d="M64,64"/>
</g>
<path id="XMLID_102_" d="M54.6,29.5V17.1c0-5.3-2.7-10.3-7.3-13C42.8,1.5,37.6,0,32,0S21.2,1.5,16.7,4.1c-4.6,2.6-7.3,7.7-7.3,13
	v12.5c0,9.3-6.7,9.9,1.1,15.9l3.6,2.6l0.2,0.1c2.9,1.7,4.7,4.8,4.7,8.1v0.5l0,4.9c0,2,2.4,3.1,3.9,1.7c2.3-2.1,5.4-4,9-4s6.8,2,9,4
	c1.5,1.4,3.9,0.3,3.9-1.7l0-4.9v-0.5c0-3.4,1.8-6.5,4.7-8.1l0.2-0.1l3.6-2.6C61.3,39.5,54.6,38.9,54.6,29.5z M20.3,44
	c-3.7,0-6.6-3-6.6-6.6c0-3.7,3-6.6,6.6-6.6c3.7,0,6.6,3,6.6,6.6C27,41,24,44,20.3,44z M35.2,53L32,51.6L28.8,53
	c-0.4-0.5-0.4-0.5-0.9-0.9l3.4-6.9c0.3,0,0.4,0,0.6,0s0.3,0,0.6,0l3.4,6.9C35.6,52.6,35.6,52.6,35.2,53z M43.7,44
	C40,44,37,41,37,37.4c0-3.7,3-6.6,6.6-6.6c3.7,0,6.6,3,6.6,6.6C50.3,41,47.3,44,43.7,44z"/>
</svg>
