<?xml version="1.0" encoding="utf-8"?>
<!-- Generator: Adobe Illustrator 19.0.0, SVG Export Plug-In . SVG Version: 6.00 Build 0)  -->
<svg version="1.1" id="Calque_1" xmlns="http://www.w3.org/2000/svg" xmlns:xlink="http://www.w3.org/1999/xlink" x="0px" y="0px"
	 viewBox="0 0 64 64" style="enable-background:new 0 0 64 64;" xml:space="preserve">
<style type="text/css">
	.st0{fill:#E72166;}
</style>
<g id="XMLID_5_">
	<path id="XMLID_1_" class="st0" d="M0,0"/>
	<path id="XMLID_3_" class="st0" d="M64,0"/>
	<path id="XMLID_4_" class="st0" d="M0,64"/>
	<path id="XMLID_2_" class="st0" d="M64,64"/>
</g>
<g id="XMLID_105_">
	<path id="XMLID_106_" d="M9.9,27.1L9.9,27.1c3.2-4.7,1.9-11-2.7-14.2l0,0C4,17.6,5.2,23.9,9.9,27.1z"/>
	<path id="XMLID_113_" d="M9.6,35.6C10.1,29.9,6,25,0.4,24.5C-0.1,30.1,4,35.1,9.6,35.6z"/>
	<path id="XMLID_114_" d="M13.5,43.1L13.5,43.1C11.2,38,5.2,35.6,0,37.9v0C2.3,43.1,8.3,45.4,13.5,43.1z"/>
	<path id="XMLID_115_" d="M20.5,47.8c-4.5-3.4-10.9-2.5-14.3,2v0C10.7,53.2,17.1,52.3,20.5,47.8z"/>
	<path id="XMLID_116_" d="M17.4,57.3C23,58,28.2,54.2,29,48.6v0h0C23.4,47.8,18.2,51.7,17.4,57.3z"/>
	<path id="XMLID_117_" d="M21,6.6L21,6.6c-5.4,1.5-8.7,7.1-7.2,12.5C19.3,17.7,22.5,12.1,21,6.6z"/>
	<circle id="XMLID_118_" cx="32" cy="39.5" r="6.3"/>
	<path id="XMLID_119_" d="M54.1,27.1c4.7-3.2,5.9-9.5,2.7-14.2v0h0C52.1,16.1,50.9,22.4,54.1,27.1L54.1,27.1z"/>
	<path id="XMLID_120_" d="M54.4,35.6c5.6-0.5,9.8-5.5,9.3-11.1C58,25,53.9,29.9,54.4,35.6z"/>
	<path id="XMLID_121_" d="M64,37.9c-5.2-2.3-11.2,0-13.5,5.2v0C55.7,45.4,61.7,43.1,64,37.9L64,37.9L64,37.9z"/>
	<path id="XMLID_122_" d="M43.5,47.8c3.4,4.5,9.8,5.4,14.3,2h0l0,0C54.4,45.3,48,44.4,43.5,47.8z"/>
	<path id="XMLID_123_" d="M35,48.6L35,48.6L35,48.6c0.8,5.6,6,9.5,11.6,8.7C45.8,51.7,40.6,47.8,35,48.6z"/>
	<path id="XMLID_124_" d="M50.2,19.2c1.5-5.4-1.7-11.1-7.2-12.5v0C41.5,12.1,44.7,17.7,50.2,19.2z"/>
</g>
</svg>
