<?xml version="1.0" encoding="utf-8"?>
<!-- Generator: Adobe Illustrator 23.0.6, SVG Export Plug-In . SVG Version: 6.00 Build 0)  -->
<svg version="1.1" id="Layer_1" xmlns="http://www.w3.org/2000/svg" xmlns:xlink="http://www.w3.org/1999/xlink" x="0px" y="0px"
	 viewBox="0 0 64 64" style="enable-background:new 0 0 64 64;" xml:space="preserve">
<g>
	<path d="M32,33.2c-10.23,0-18.55,8.32-18.55,18.55v2.23h37.1v-2.23C50.55,41.53,42.23,33.2,32,33.2z M39.98,49.53L32,41.54
		l-7.98,7.98h-5.94c1.07-6.72,6.9-11.87,13.92-11.87c7.01,0,12.85,5.15,13.92,11.87H39.98z"/>
	<path d="M13.45,10.02v2.23c0,10.23,8.32,18.55,18.55,18.55s18.55-8.32,18.55-18.55v-2.23H13.45z M42.86,21.22H21.14
		c-1.57-1.9-2.66-4.21-3.06-6.75h27.84C45.51,17.01,44.43,19.32,42.86,21.22z"/>
</g>
</svg>
