<?xml version="1.0" encoding="utf-8"?>
<!-- Generator: Adobe Illustrator 19.0.0, SVG Export Plug-In . SVG Version: 6.00 Build 0)  -->
<svg version="1.1" id="Calque_1" xmlns="http://www.w3.org/2000/svg" xmlns:xlink="http://www.w3.org/1999/xlink" x="0px" y="0px"
	 viewBox="0 0 64 64" style="enable-background:new 0 0 64 64;" xml:space="preserve">
<style type="text/css">
	.st0{fill:#090A0A;}
</style>
<g id="Lock_64">
	<path id="XMLID_2420_" class="st0" d="M0,0"/>
	<path id="XMLID_2441_" class="st0" d="M64,0"/>
	<path id="XMLID_2442_" class="st0" d="M64,64"/>
	<path id="XMLID_2447_" class="st0" d="M0,64"/>
</g>
<g id="Attack">
	<path id="XMLID_2545_" d="M49.9,38.3l-1.4,0.1l2-5.2l4-10.3l-10.3,4.1l-4,1.6l-3.6-11.4L32,2.6l-4.6,14.7l-3.6,11.4l-4-1.6L9.6,23
		l4,10.3l2,5.2l-1.4-0.1L0,36.8l10.3,9.8l14.2,13.5l1.4,1.3h1.9H32h4.2h1.9l1.4-1.3l14.2-13.5L64,36.8L49.9,38.3z M37.2,59H26.8
		l-20-19l12.4,1.3l-5.4-14L25.4,32L32,10.7L38.6,32l11.6-4.7l-5.4,14L57.2,40L37.2,59z"/>
	<polygon id="XMLID_2544_" points="41.8,35.9 35.6,38.4 32,26.9 28.4,38.4 22.2,35.9 26.4,46.9 20.4,46.2 28.7,54.2 35.3,54.2 
		43.6,46.2 37.6,46.9 	"/>
</g>
</svg>
