<?xml version="1.0" encoding="utf-8"?>
<!-- Generator: Adobe Illustrator 19.0.0, SVG Export Plug-In . SVG Version: 6.00 Build 0)  -->
<svg version="1.1" id="Calque_1" xmlns="http://www.w3.org/2000/svg" xmlns:xlink="http://www.w3.org/1999/xlink" x="0px" y="0px"
	 viewBox="0 0 64 64" style="enable-background:new 0 0 64 64;" xml:space="preserve">
<style type="text/css">
	.st0{fill:#090A0A;}
	.st1{opacity:0.4;}
</style>
<g id="Lock_64">
	<path id="XMLID_2420_" class="st0" d="M0,0"/>
	<path id="XMLID_2441_" class="st0" d="M64,0"/>
	<path id="XMLID_2442_" class="st0" d="M64,64"/>
	<path id="XMLID_2447_" class="st0" d="M0,64"/>
</g>
<polyline id="XMLID_2542_" points="64,13.2 27,5 18.8,13.2 0,13.2 10.7,24.7 18,24.7 25.6,17.1 26.4,16.3 27.4,16.6 45.7,20.6 "/>
<polyline id="XMLID_2531_" class="st1" points="64,40.2 27,32 18.8,40.2 0,40.2 17.5,59 64,40.2 "/>
<polyline id="XMLID_2538_" points="64,26.7 27,18.5 18.8,26.7 0,26.7 10.7,38.2 18,38.2 25.6,30.6 26.4,29.8 27.4,30 45.7,34.1 "/>
</svg>
