<?xml version="1.0" encoding="utf-8"?>
<!-- Generator: Adobe Illustrator 19.0.0, SVG Export Plug-In . SVG Version: 6.00 Build 0)  -->
<svg version="1.1" id="Calque_1" xmlns="http://www.w3.org/2000/svg" xmlns:xlink="http://www.w3.org/1999/xlink" x="0px" y="0px"
	 viewBox="0 0 64 64" style="enable-background:new 0 0 64 64;" xml:space="preserve">
<style type="text/css">
	.st0{fill:#090A0A;}
</style>
<g id="Lock_64">
	<path id="XMLID_2420_" class="st0" d="M0,0"/>
	<path id="XMLID_2441_" class="st0" d="M64,0"/>
	<path id="XMLID_2442_" class="st0" d="M64,64"/>
	<path id="XMLID_2447_" class="st0" d="M0,64"/>
</g>
<g id="Tracking">
	<polygon id="XMLID_2578_" points="29,35 34.6,48.9 43.6,20.4 15.1,29.4 	"/>
	<path id="XMLID_2575_" d="M54.8,28.1c-1.7-9.6-9.2-17.2-18.9-18.9v-6h-7.9v6c-9.6,1.7-17.2,9.2-18.9,18.9h-6v7.8h6
		c1.7,9.6,9.2,17.2,18.9,18.9v6h7.9v-6c9.6-1.7,17.2-9.2,18.9-18.9h6v-7.8H54.8z M32,51.3c-10.6,0-19.3-8.6-19.3-19.3
		S21.4,12.8,32,12.8S51.3,21.4,51.3,32S42.6,51.3,32,51.3z"/>
</g>
</svg>
