<?xml version="1.0" encoding="utf-8"?>
<!-- Generator: Adobe Illustrator 19.0.0, SVG Export Plug-In . SVG Version: 6.00 Build 0)  -->
<svg version="1.1" id="Calque_1" xmlns="http://www.w3.org/2000/svg" xmlns:xlink="http://www.w3.org/1999/xlink" x="0px" y="0px"
	 viewBox="0 0 64 64" style="enable-background:new 0 0 64 64;" xml:space="preserve">
<style type="text/css">
	.st0{fill:#090A0A;}
</style>
<g id="Lock_64">
	<path id="XMLID_2420_" class="st0" d="M0,0"/>
	<path id="XMLID_2441_" class="st0" d="M64,0"/>
	<path id="XMLID_2442_" class="st0" d="M64,64"/>
	<path id="XMLID_2447_" class="st0" d="M0,64"/>
</g>
<path id="Weight" d="M50.8,25h-6.3c-0.4-5.1-0.6-5.6-0.6-5.9c-1.5-5.1-6.4-8.6-11.8-8.6S21.7,14,20.2,19.1c-0.1,0.3-0.2,0.8-0.6,5.9
	h-6.3L9.8,53.5H32h22.2L50.8,25z M25.9,25c0.2-2.2,0.3-3.7,0.4-4.1c0.7-2.4,3.1-4.1,5.8-4.1s5,1.7,5.7,3.8c0.1,0.4,0.2,2.1,0.4,4.3
	H32H25.9z"/>
</svg>
