<?xml version="1.0" encoding="utf-8"?>
<!-- Generator: Adobe Illustrator 19.0.0, SVG Export Plug-In . SVG Version: 6.00 Build 0)  -->
<svg version="1.1" id="Calque_1" xmlns="http://www.w3.org/2000/svg" xmlns:xlink="http://www.w3.org/1999/xlink" x="0px" y="0px"
	 viewBox="0 0 64 64" style="enable-background:new 0 0 64 64;" xml:space="preserve">
<style type="text/css">
	.st0{fill:#090A0A;}
</style>
<g id="Lock_64">
	<path id="XMLID_2420_" class="st0" d="M0,0"/>
	<path id="XMLID_2441_" class="st0" d="M64,0"/>
	<path id="XMLID_2442_" class="st0" d="M64,64"/>
	<path id="XMLID_2447_" class="st0" d="M0,64"/>
</g>
<g id="Lock_64_1_">
	<path id="XMLID_4_" class="st0" d="M0,0"/>
	<path id="XMLID_3_" class="st0" d="M64,0"/>
	<path id="XMLID_2_" class="st0" d="M64,64"/>
	<path id="XMLID_1_" class="st0" d="M0,64"/>
</g>
<g id="Weapon_:_Missile">
	<g id="XMLID_2518_">
		<g id="XMLID_49_">
			<path id="XMLID_50_" class="st0" d="M32,0L0,32l32,32l32-32L32,0z M5.7,32L32,5.7L58.3,32L32,58.3L5.7,32z"/>
		</g>
	</g>
	<g id="XMLID_2516_">
		<polygon id="XMLID_30_" class="st0" points="38,25.7 37.5,23.3 33.7,23.3 33.7,25.7 		"/>
	</g>
	<g id="XMLID_2509_">
		<polygon id="XMLID_28_" class="st0" points="17.9,23.7 17.9,40.1 21.7,40.1 24,36.3 24,27.7 21.7,23.7 		"/>
	</g>
	<g id="XMLID_2508_">
		<path id="XMLID_26_" class="st0" d="M40.4,27.7L40.4,27.7l-1.9,0h-4.8h-3.8H26v8.6h3.8h3.8h4.8h1.9v0c4-0.1,11-1.9,11-4.3
			C51.4,29.7,44.4,27.8,40.4,27.7z"/>
	</g>
	<g id="XMLID_2501_">
		<polygon id="XMLID_24_" class="st0" points="33.7,40.9 37.5,40.9 38,38.3 33.7,38.3 		"/>
	</g>
</g>
</svg>
