<?xml version="1.0" encoding="utf-8"?>
<!-- Generator: Adobe Illustrator 19.0.0, SVG Export Plug-In . SVG Version: 6.00 Build 0)  -->
<svg version="1.1" xmlns="http://www.w3.org/2000/svg" xmlns:xlink="http://www.w3.org/1999/xlink" x="0px" y="0px"
	 viewBox="0 0 64 64" style="enable-background:new 0 0 64 64;" xml:space="preserve">
<style type="text/css">
	.st0{display:none;}
	.st1{display:inline;}
	.st2{fill:#F0F0F0;}
	.st3{display:inline;fill:none;stroke:#F0F0F0;stroke-width:4;stroke-linecap:round;stroke-linejoin:round;stroke-miterlimit:10;}
	.st4{display:inline;fill:#F0F0F0;}
	.st5{fill:#040305;}
	.st6{display:inline;fill:#040305;}
	.st7{display:none;fill:#040305;}
	.st8{display:inline;fill:#B9B9B9;}
	.st9{display:none;fill:#B9B9B9;}
	.st10{display:none;fill:#090A0A;}
	.st11{fill:#090A0A;}
	.st12{fill:#B9B9B9;}
	.st13{fill:#010202;}
	.st14{display:inline;fill:none;}
	.st15{font-family:'MyriadPro-Regular';}
	.st16{font-size:7px;}
</style>
<g id="Outline" class="st0">
	<g id="Map">
		<g id="XMLID_18_" class="st1">
			<path id="XMLID_136_" class="st2" d="M32,0C14.3,0,0,14.3,0,32c0,17.7,14.3,32,32,32c17.7,0,32-14.3,32-32C64,14.3,49.7,0,32,0
				L32,0z M32,60.3C16.4,60.3,3.7,47.6,3.7,32S16.4,3.7,32,3.7S60.3,16.4,60.3,32S47.6,60.3,32,60.3L32,60.3z"/>
		</g>
		<path id="XMLID_13_" class="st3" d="M36.3,28.7c-0.3-0.4-0.6-0.7-1-1L32,6.9l-3.3,20.8c-0.4,0.3-0.7,0.6-1,1L6.9,32l20.8,3.3
			c0.3,0.4,0.6,0.7,1,1L32,57.1l3.3-20.8c0.4-0.3,0.7-0.6,1-1L57.1,32L36.3,28.7z M32,36.6c-2.6,0-4.6-2.1-4.6-4.6
			c0-2.6,2.1-4.6,4.6-4.6s4.6,2.1,4.6,4.6C36.6,34.6,34.6,36.6,32,36.6z"/>
	</g>
	<g id="Overview">
		<g id="XMLID_2_" class="st1">
			<path id="XMLID_154_" class="st2" d="M47.8,52.9c-1.3,0-2.3,0.9-2.7,2l2.3,0v0.5c0,0.6,0.5,1,1,1c0.8,0,1.5-0.7,1.5-1.5
				C49.8,53.9,48.9,52.9,47.8,52.9L47.8,52.9z"/>
		</g>
		<g id="XMLID_8_" class="st1">
			<path id="XMLID_157_" class="st2" d="M44.2,52.9L44.2,52.9L44.2,52.9z M44.2,52.9H2.8c-1.6,0-2.8,1.3-2.8,2.8
				c0,2.1,1.7,3.7,3.7,3.7h40.9c-0.9-1-1.5-2.3-1.5-3.7C43.2,54.7,43.5,53.7,44.2,52.9L44.2,52.9z"/>
		</g>
		<g id="XMLID_11_" class="st1">
			<path id="XMLID_145_" class="st2" d="M57.7,7.5L57.7,7.5L57.7,7.5z M57.7,7.5h-2c-0.3,0.6-0.4,1.2-0.4,1.9v1.7H58
				c-0.4-0.6-0.6-1.3-0.6-2.1C57.3,8.5,57.5,7.9,57.7,7.5L57.7,7.5z"/>
		</g>
		<g id="XMLID_12_" class="st1">
			<path id="XMLID_95_" class="st2" d="M60.3,4.5c-1.2,0-2.4,0.5-3.3,1.2l3.7,0c1.5,0.1,2.7,1.3,2.7,2.8V9l-4.3,0c0,1.1,1,2,2.1,2
				c1.6,0,2.8-1.3,2.8-2.8C64,6.2,62.3,4.5,60.3,4.5L60.3,4.5z"/>
		</g>
		<g id="XMLID_27_" class="st1">
			<path id="XMLID_209_" class="st2" d="M49.6,8.5c0,0.3,0,0.6,0,0.9v38c-0.6-0.1-1.2-0.2-1.8-0.2l-34.7,0V9.6
				c0-0.7,0.4-1.2,0.7-1.2H49.6 M19.2,21.2h0.6c-0.1,0.4-0.2,0.8-0.2,1.3v2.4c0,0.5,0.1,0.9,0.2,1.3h-0.6c-2.2,0-4,1.8-4,4v2.4
				c0,2.2,1.8,4,4,4h0.6c-0.1,0.4-0.2,0.9-0.2,1.3v2.4c0,2.2,1.8,4,4,4h13.6c2.2,0,4-1.8,4-4v-2.4c0-0.5-0.1-0.9-0.2-1.3h0.6
				c2.2,0,4-1.8,4-4v-2.4c0-2.2-1.8-4-4-4H41c0.1-0.4,0.2-0.9,0.2-1.3v-2.4c0-0.5-0.1-0.9-0.2-1.3h0.6c2.2,0,4-1.8,4-4v-2.4
				c0-2.2-1.8-4-4-4H19.2c-2.2,0-4,1.8-4,4v2.4C15.2,19.4,17,21.2,19.2,21.2 M55.8,4.5L55.8,4.5L55.8,4.5z M55.8,4.5H13.8
				c-2.6,0-4.7,2.3-4.7,5.2v41.5l38.7,0c2.2,0,3.8,1.7,3.8,3.8c0,1.8-1.4,3.2-3.1,3.2h-2.6c0.7,0.8,1.7,1.2,2.8,1.2h0
				c1.3,0,2.5-0.5,3.5-1.4c0.9-0.9,1.4-2.2,1.4-3.5V9.4C53.6,7.5,54.4,5.7,55.8,4.5L55.8,4.5z M19.2,17.2v-2.4h22.4v2.4H19.2
				L19.2,17.2z M23.6,24.8v-2.4h13.6v2.4H23.6L23.6,24.8z M19.2,32.5v-2.4h22.4v2.4H19.2L19.2,32.5z M23.6,40.2v-2.4h13.6v2.4H23.6
				L23.6,40.2z"/>
		</g>
	</g>
	<g id="Rank">
		<g id="XMLID_13160_" class="st1">
			<path id="XMLID_140_" class="st2" d="M32,48.6l5.8,5.8l-4.5-1.6c-0.4-0.2-0.9-0.2-1.3-0.2s-0.9,0.1-1.3,0.2l-4.5,1.6L32,48.6
				 M32,42.9L10.9,64L32,56.6L53.1,64L32,42.9L32,42.9z"/>
		</g>
		<g id="XMLID_13159_" class="st1">
			<path id="XMLID_96_" class="st2" d="M32,7.3l17.4,26.4l-15.6-8.3c-0.6-0.3-1.2-0.5-1.9-0.5c-0.6,0-1.3,0.2-1.9,0.5l-15.6,8.3
				L32,7.3 M32,0L2.5,44.7L32,28.9l29.5,15.7L32,0L32,0z"/>
		</g>
	</g>
	<g id="Defense">
		<g id="XMLID_13156_" class="st1">
			<path id="XMLID_113_" class="st2" d="M32.9,4c5.5,5.7,14.9,9.2,25.2,9.2l0,0C53.3,32.2,44,48.4,32,58.8
				C20,48.4,10.7,32.2,5.9,13.2l0,0c10.3,0,19.7-3.5,25.2-9.2H32.9 M34.7,0h-5.4C25,5.5,16.2,9.2,5.9,9.2l-5,0
				C5.7,32.8,17.1,52.5,32,64C46.9,52.5,58.3,32.8,63.1,9.2l-5,0C47.8,9.2,39,5.5,34.7,0L34.7,0z"/>
		</g>
	</g>
	<g id="Attack">
		<g id="XMLID_13153_" class="st1">
			<path id="XMLID_117_" class="st2" d="M56.1,7.9c-1.4,2.3-3.4,5.2-6,7.8c-5.5,5.5-25.1,28-31.2,35c-1.1,0.5-1.9,1.5-2.2,2.7
				c0,0.1,0,0.2-0.1,0.3c-0.1-0.1-0.3-0.3-0.4-0.4c-0.8-0.7-1.8-1.1-2.8-1.1c-0.9,0-1.9,0.3-2.6,1l-0.4,0.3l0.3-0.4
				c1.4-1.6,1.3-3.9-0.1-5.4c-0.1-0.1-0.3-0.3-0.4-0.4c0.1,0,0.2,0,0.3-0.1c1.2-0.3,2.2-1.1,2.7-2.2c5.4-4.7,29.3-25.5,35-31.2
				C50.9,11.3,53.8,9.3,56.1,7.9 M4.4,59.6c0,0.1-0.1,0.3-0.1,0.4c0,0-0.1-0.1-0.2-0.1C4.1,59.8,4,59.7,4,59.7
				C4.2,59.7,4.3,59.6,4.4,59.6 M64,0l-4.2,1.6c-0.3,0.1-7.8,3-14.3,9.5c-6.2,6.2-34.9,31.1-35.1,31.3l-0.5,0.4l-0.2,0.6
				c-0.5-0.5-0.7-0.8-0.8-1c-0.7-0.8-1.6-1.2-2.5-1.2c-0.7,0-1.3,0.2-1.9,0.7c-0.6,0.5-1,1.2-1.1,2.1c-0.1,0.9,0.2,1.8,0.8,2.4v0
				c0.2,0.2,1.4,1.7,3.7,4.1l-4.6,5.2c-0.8,0.1-1.5,0.5-2.1,1.1c-1.6,1.6-1.5,4.2,0.2,5.9c0.9,0.9,2,1.3,3.1,1.3c1,0,2-0.4,2.8-1.1
				c0.6-0.6,0.9-1.3,1.1-2.1l5.2-4.6c2.4,2.3,4,3.6,4.2,3.7c0.6,0.5,1.4,0.8,2.1,0.8c0.1,0,0.2,0,0.3,0c0.8-0.1,1.6-0.5,2.1-1.1
				c1-1.2,0.8-3.1-0.3-4.2l-0.2-0.2c-0.1-0.1-0.4-0.4-1-0.8l0.6-0.2l0.4-0.5c0.3-0.3,25.1-29,31.3-35.1c6.6-6.6,9.4-14,9.5-14.3
				L64,0L64,0z"/>
		</g>
	</g>
	<g id="XMLID_13146_">
		<path id="XMLID_198_" class="st4" d="M41.7,4c0.4,0,0.8,0.3,0.8,0.8c0,0.4-0.3,0.8-0.8,0.8h-0.4c-2.2,0-4,1.8-4,4v13.4
			c0,0.7,0.2,1.4,0.5,2l7.2,12.4c-1-0.8-2.3-1.2-3.7-1.2c-2.5,0-4.6,1.5-5.6,3.6c-1.2-3.2-4.3-5.5-8-5.5c-4.7,0-8.5,3.8-8.5,8.5
			c0,0.8,0.1,1.7,0.3,2.4c-3.9,0.6-6.8,4-6.8,8c0,2.9,1.5,5.4,3.7,6.8h-5.1c-1.2,0-2.2-0.6-2.8-1.6c-0.6-1-0.6-2.2,0-3.2l17.5-30.3
			c0.4-0.6,0.5-1.3,0.5-2V9.5c0-2.2-1.8-4-4-4h-0.3c-0.4,0-0.8-0.3-0.8-0.8c0-0.4,0.3-0.8,0.8-0.8H41.7 M47.5,41.6l7.9,13.6
			c0.6,1,0.6,2.2,0,3.2c-0.6,1-1.6,1.6-2.8,1.6H25.3c2.2-1.4,3.7-4,3.7-6.8c0-0.7-0.1-1.3-0.2-1.9c0.2,0,0.3,0,0.5-0.1
			c0.5,3.4,3.4,6,7,6c3.9,0,7-3.2,7-7c0-0.7-0.1-1.3-0.3-1.9c2.6-0.7,4.6-3.1,4.6-5.9C47.5,42,47.5,41.8,47.5,41.6 M41.7,0H22.3
			c-2.6,0-4.8,2.1-4.8,4.8c0,2.6,2.1,4.8,4.8,4.8h0.3v13.4L5.2,53.2c-1.3,2.3-1.3,4.9,0,7.2c1.3,2.3,3.6,3.6,6.2,3.6h41.2
			c2.6,0,4.9-1.3,6.2-3.6c1.3-2.2,1.3-4.9,0-7.2L41.4,22.9V9.5h0.4c2.6,0,4.8-2.1,4.8-4.8C46.5,2.1,44.3,0,41.7,0L41.7,0z
			 M27.8,47.3c-2.5,0-4.5-2-4.5-4.5c0-2.5,2-4.5,4.5-4.5c2.5,0,4.5,2,4.5,4.5C32.3,45.3,30.3,47.3,27.8,47.3L27.8,47.3z M41.4,44.4
			c-1.2,0-2.1-1-2.1-2.1c0-1.2,1-2.1,2.1-2.1c1.2,0,2.1,1,2.1,2.1C43.5,43.5,42.6,44.4,41.4,44.4L41.4,44.4z M36.2,53.2
			c-1.7,0-3-1.4-3-3s1.4-3,3-3c1.7,0,3,1.4,3,3S37.9,53.2,36.2,53.2L36.2,53.2z M20.9,57.3c-2.3,0-4.1-1.8-4.1-4.1
			c0-2.3,1.8-4.1,4.1-4.1c2.3,0,4.1,1.8,4.1,4.1C25,55.5,23.2,57.3,20.9,57.3L20.9,57.3z"/>
	</g>
	<g id="Money">
		<path id="XMLID_213_" class="st4" d="M32,3c6.6,0,13,1.4,16.6,3.6c1.6,1,2.1,1.8,2.2,2.1c0,0,0,0,0,0c0,0,0,0,0,0.1
			c0,0,0,0.1,0,0.1c0,0,0,0.1,0,0.1l0,0c0,0,0,0,0,0.1c-0.1,0.3-0.6,1.2-2.2,2.1c-3.6,2.2-9.9,3.6-16.5,3.6c-6.1,0-11.7-1.1-15.5-3
			c-2.2-1.1-3.2-2.2-3.3-2.9c0.2-0.7,1.1-1.8,3.3-2.9C20.3,4.1,25.9,3,32,3 M13.1,20.1c4.9,2.3,11.7,3.6,18.9,3.6
			c7.2,0,13.9-1.3,18.9-3.6v1.6c-1,0.7-2.2,1.4-3.6,2c-4.1,1.7-9.5,2.6-15.2,2.6s-11.2-0.9-15.2-2.6c-1.4-0.6-2.7-1.3-3.6-2V20.1
			 M13.1,31.7c4.9,2.3,11.7,3.6,18.9,3.6c7.2,0,13.9-1.3,18.9-3.6v1.6c-1,0.7-2.2,1.4-3.6,2c-4.1,1.7-9.5,2.6-15.2,2.6
			S20.8,37,16.8,35.3c-1.4-0.6-2.7-1.3-3.6-2V31.7 M13.1,43.2c4.9,2.3,11.7,3.6,18.9,3.6c7.2,0,13.9-1.3,18.9-3.6v1.6
			c-1,0.7-2.2,1.4-3.6,2c-4.1,1.7-9.5,2.6-15.2,2.6s-11.2-0.9-15.2-2.6c-1.4-0.6-2.7-1.3-3.6-2V43.2 M13.1,54.8
			c4.9,2.3,11.7,3.6,18.9,3.6c7.2,0,13.9-1.3,18.9-3.6v1.6c-1,0.7-2.2,1.4-3.6,2C43.2,60.1,37.8,61,32,61s-11.2-0.9-15.2-2.6
			c-1.4-0.6-2.7-1.3-3.6-2V54.8 M32,0c-6.8,0-12.9,1.3-16.9,3.3c-3,1.5-4.9,3.5-5,5.6c0.1,2.1,2,4.1,5,5.6c4,2,10.1,3.3,16.9,3.3
			c7.5,0,14.2-1.6,18.1-4c1.8-1.1,3-2.4,3.5-3.7c0,0,0,0,0,0c0.1-0.4,0.2-0.8,0.2-1.1c0-0.4-0.1-0.8-0.2-1.1c0,0,0,0,0,0
			c-0.5-1.4-1.7-2.6-3.5-3.7C46.2,1.6,39.5,0,32,0L32,0z M53.9,14.6c-0.6,0.6-1.4,1.1-2.2,1.6c-4.6,2.8-11.8,4.5-19.7,4.5
			c-7,0-13.6-1.3-18.2-3.6c-1.6-0.8-2.7-1.6-3.7-2.5v8.4c1.3,1.3,3.2,2.5,5.5,3.4c4.4,1.8,10.2,2.9,16.4,2.9s12-1,16.4-2.9
			c2.3-1,4.1-2.1,5.5-3.4V14.6L53.9,14.6z M53.9,26.2c-0.6,0.6-1.4,1.1-2.2,1.6c-4.6,2.8-11.8,4.5-19.7,4.5c-7,0-13.6-1.3-18.2-3.6
			c-1.6-0.8-2.7-1.6-3.7-2.5v8.4c1.3,1.3,3.2,2.5,5.5,3.4c4.4,1.8,10.2,2.9,16.4,2.9s12-1,16.4-2.9c2.3-1,4.1-2.1,5.5-3.4V26.2
			L53.9,26.2z M53.9,37.7c-0.6,0.6-1.4,1.1-2.2,1.6c-4.6,2.8-11.8,4.5-19.7,4.5c-7,0-13.6-1.3-18.2-3.6c-1.6-0.8-2.7-1.6-3.7-2.5
			v8.4c1.3,1.3,3.2,2.5,5.5,3.4c4.4,1.8,10.2,2.9,16.4,2.9s12-1,16.4-2.9c2.3-1,4.1-2.1,5.5-3.4V37.7L53.9,37.7z M53.9,49.3
			c-0.6,0.6-1.4,1.1-2.2,1.6c-4.6,2.8-11.8,4.5-19.7,4.5c-7,0-13.6-1.3-18.2-3.6c-1.6-0.8-2.7-1.6-3.7-2.5v8.4
			c1.3,1.3,3.2,2.5,5.5,3.4C20,63,25.8,64,32,64s12-1,16.4-2.9c2.3-1,4.1-2.1,5.5-3.4V49.3L53.9,49.3z"/>
	</g>
</g>
<g id="Plein">
	<g id="Map_1_" class="st0">
		<g id="XMLID_171_" class="st1">
			<path id="XMLID_159_" class="st2" d="M32,0C14.3,0,0,14.3,0,32c0,17.7,14.3,32,32,32c17.7,0,32-14.3,32-32C64,14.3,49.7,0,32,0z
				 M32,60.3C16.4,60.3,3.7,47.6,3.7,32S16.4,3.7,32,3.7S60.3,16.4,60.3,32S47.6,60.3,32,60.3z"/>
		</g>
		<path id="XMLID_168_" class="st4" d="M36.3,28.7c-0.3-0.4-0.6-0.7-1-1L32,6.9l-3.3,20.8c-0.4,0.3-0.7,0.6-1,1L6.9,32l20.8,3.3
			c0.3,0.4,0.6,0.7,1,1L32,57.1l3.3-20.8c0.4-0.3,0.7-0.6,1-1L57.1,32L36.3,28.7z M32,36.6c-2.6,0-4.6-2.1-4.6-4.6
			c0-2.6,2.1-4.6,4.6-4.6s4.6,2.1,4.6,4.6C36.6,34.6,34.6,36.6,32,36.6z"/>
	</g>
	<g id="Overview_1_" class="st0">
		<g id="XMLID_165_" class="st1">
			<path id="XMLID_100_" class="st5" d="M48.4,56.5c0.8,0,1.5-0.7,1.5-1.5c0-1.1-0.9-2.1-2.1-2.1c-1.3,0-2.3,0.9-2.7,2l2.3,0v0.5
				C47.3,56.1,47.8,56.5,48.4,56.5z"/>
		</g>
		<g id="XMLID_160_" class="st1">
			<path id="XMLID_94_" class="st5" d="M44.2,52.9H2.8c-1.6,0-2.8,1.3-2.8,2.8c0,2.1,1.7,3.7,3.7,3.7h40.9c-0.9-1-1.5-2.3-1.5-3.7
				C43.2,54.7,43.5,53.7,44.2,52.9z"/>
		</g>
		<g id="XMLID_155_" class="st1">
			<path id="XMLID_85_" class="st5" d="M57.7,7.5h-2c-0.3,0.6-0.4,1.2-0.4,1.9v1.7H58c-0.4-0.6-0.6-1.3-0.6-2.1
				C57.3,8.5,57.5,7.9,57.7,7.5z"/>
		</g>
		<g id="XMLID_152_" class="st1">
			<path id="XMLID_73_" class="st5" d="M60.3,4.5c-1.2,0-2.4,0.5-3.3,1.2l3.7,0c1.5,0.1,2.7,1.3,2.7,2.8V9l-4.3,0c0,1.1,1,2,2.1,2
				c1.6,0,2.8-1.3,2.8-2.8C64,6.2,62.3,4.5,60.3,4.5z"/>
		</g>
		<g id="XMLID_128_" class="st1">
			<path id="XMLID_230_" class="st5" d="M13.8,4.5c-2.6,0-4.7,2.3-4.7,5.2v41.5l38.7,0c2.2,0,3.8,1.7,3.8,3.8c0,1.8-1.4,3.2-3.1,3.2
				h-2.6c0.7,0.8,1.7,1.2,2.8,1.2h0c1.3,0,2.5-0.5,3.5-1.4c0.9-0.9,1.4-2.2,1.4-3.5V9.4c0-1.9,0.8-3.7,2.2-4.9H13.8z M37.3,40.2
				H23.6v-2.4h13.6V40.2z M41.6,32.5H19.2v-2.4h22.4V32.5z M23.6,24.8v-2.4h13.6v2.4H23.6z M41.6,17.2H19.2v-2.4h22.4V17.2z"/>
		</g>
	</g>
	<g id="Rank_1_" class="st0">
		<g id="XMLID_120_" class="st1">
			<polygon id="XMLID_69_" class="st2" points="10.9,64 32,42.9 53.1,64 32,56.6 			"/>
		</g>
		<g id="XMLID_106_" class="st1">
			<polygon id="XMLID_49_" class="st2" points="2.5,44.7 32,0 61.5,44.7 32,28.9 			"/>
		</g>
	</g>
	<g id="Defense_1_" class="st0">
		<g id="XMLID_99_" class="st1">
			<path id="XMLID_121_" class="st5" d="M32,64C17.1,52.5,5.7,32.8,0.9,9.2l5,0C16.2,9.2,25,5.5,29.3,0h5.4
				C39,5.5,47.8,9.2,58.1,9.2l5,0l0,0C58.3,32.8,46.9,52.5,32,64z"/>
		</g>
	</g>
	<g id="Attack_1_" class="st0">
		<g id="XMLID_91_" class="st1">
			<path id="XMLID_118_" class="st2" d="M20.1,60.7c-0.9,0.1-1.8-0.2-2.4-0.8c-0.2-0.2-1.7-1.4-4.2-3.7l-5.2,4.6
				c-0.1,0.8-0.5,1.5-1.1,2.1c-1.6,1.6-4.2,1.5-5.9-0.2c-1.7-1.7-1.8-4.3-0.2-5.9c0.6-0.6,1.3-0.9,2.1-1.1l4.6-5.2
				c-2.3-2.4-3.6-4-3.7-4.1v0c-0.6-0.7-0.8-1.6-0.8-2.4c0.1-0.8,0.5-1.6,1.1-2.1c1.4-1.1,3.3-0.8,4.5,0.6c0.1,0.1,0.4,0.4,0.8,1
				l0.2-0.6l0.5-0.4c0.3-0.3,29-25.1,35.1-31.3c6.6-6.6,14-9.4,14.3-9.5L64,0l-1.6,4.2c-0.1,0.3-3,7.8-9.5,14.3
				c-6.2,6.2-31.1,34.9-31.3,35.1l-0.4,0.5l-0.6,0.2c0.5,0.5,0.8,0.7,1,0.8l0.2,0.2c1.2,1.2,1.3,3,0.3,4.2
				C21.6,60.2,20.9,60.6,20.1,60.7z"/>
		</g>
	</g>
	<g id="XMLID_65_" class="st0">
		<path id="XMLID_236_" class="st4" d="M58.8,53.2L41.4,22.9V9.5h0.4c2.6,0,4.8-2.1,4.8-4.8c0-2.6-2.1-4.8-4.8-4.8H22.3
			c-2.6,0-4.8,2.1-4.8,4.8c0,2.6,2.1,4.8,4.8,4.8h0.3v13.4L5.2,53.2c-1.3,2.3-1.3,4.9,0,7.2c1.3,2.3,3.6,3.6,6.2,3.6h41.2
			c2.6,0,4.9-1.3,6.2-3.6C60.1,58.2,60.1,55.5,58.8,53.2z M20.9,57.3c-2.3,0-4.1-1.8-4.1-4.1c0-2.3,1.8-4.1,4.1-4.1
			c2.3,0,4.1,1.8,4.1,4.1C25,55.5,23.2,57.3,20.9,57.3z M27.8,47.3c-2.5,0-4.5-2-4.5-4.5c0-2.5,2-4.5,4.5-4.5c2.5,0,4.5,2,4.5,4.5
			C32.3,45.3,30.3,47.3,27.8,47.3z M36.2,53.2c-1.7,0-3-1.4-3-3c0-1.7,1.4-3,3-3c1.7,0,3,1.4,3,3C39.2,51.8,37.9,53.2,36.2,53.2z
			 M41.4,44.4c-1.2,0-2.1-1-2.1-2.1c0-1.2,1-2.1,2.1-2.1c1.2,0,2.1,1,2.1,2.1C43.5,43.5,42.6,44.4,41.4,44.4z"/>
	</g>
	<g id="Money_1_" class="st0">
		<path id="XMLID_238_" class="st6" d="M15.1,3.3C19.1,1.3,25.2,0,32,0c7.5,0,14.2,1.6,18.1,4c1.8,1.1,3,2.4,3.5,3.7c0,0,0,0,0,0
			c0.1,0.4,0.2,0.8,0.2,1.1c0,0.4-0.1,0.8-0.2,1.1c0,0,0,0,0,0c-0.5,1.4-1.7,2.6-3.5,3.7c-3.9,2.4-10.6,4-18.1,4
			c-6.8,0-12.9-1.3-16.9-3.3c-3-1.5-4.9-3.5-5-5.6C10.3,6.8,12.1,4.8,15.1,3.3z M53.9,57.7c-1.3,1.3-3.2,2.5-5.5,3.4
			C44,63,38.2,64,32,64s-12-1-16.4-2.9c-2.3-1-4.1-2.1-5.5-3.4v-8.4c0.9,0.8,2.1,1.7,3.7,2.5c4.6,2.3,11.2,3.6,18.2,3.6
			c7.9,0,15.1-1.6,19.7-4.5c0.8-0.5,1.6-1.1,2.2-1.6V57.7z M53.9,46.2c-1.3,1.3-3.2,2.5-5.5,3.4C44,51.4,38.2,52.5,32,52.5
			s-12-1-16.4-2.9c-2.3-1-4.1-2.1-5.5-3.4v-8.4c0.9,0.8,2.1,1.7,3.7,2.5c4.6,2.3,11.2,3.6,18.2,3.6c7.9,0,15.1-1.6,19.7-4.5
			c0.8-0.5,1.6-1.1,2.2-1.6V46.2z M53.9,34.6c-1.3,1.3-3.2,2.5-5.5,3.4C44,39.9,38.2,40.9,32,40.9s-12-1-16.4-2.9
			c-2.3-1-4.1-2.1-5.5-3.4v-8.4c0.9,0.8,2.1,1.7,3.7,2.5C18.4,31,25,32.3,32,32.3c7.9,0,15.1-1.6,19.7-4.5c0.8-0.5,1.6-1.1,2.2-1.6
			V34.6z M53.9,23.1c-1.3,1.3-3.2,2.5-5.5,3.4C44,28.4,38.2,29.4,32,29.4s-12-1-16.4-2.9c-2.3-1-4.1-2.1-5.5-3.4v-8.4
			c0.9,0.8,2.1,1.7,3.7,2.5c4.6,2.3,11.2,3.6,18.2,3.6c7.9,0,15.1-1.6,19.7-4.5c0.8-0.5,1.6-1.1,2.2-1.6V23.1z"/>
	</g>
	<g id="Planet" class="st0">
		<path id="XMLID_11296_" class="st6" d="M38.6,11c3.2,1,6.2,2.7,8.8,5.2c2.1,2.3-3,11-11.5,19.6S18.5,49.5,16.2,47.3
			c-2.5-2.6-4.2-5.6-5.2-8.8C2.9,49-1.3,58.1,0.4,62c0.2,0.4,0.4,0.7,0.7,1c3.2,3.2,12.9-1.1,24.4-10c4.7-3.6,9.7-8,14.6-12.9
			s9.3-9.9,12.9-14.6C61.9,13.9,66.1,4.2,63,1C59.8-2.1,50.1,2.2,38.6,11z"/>
		<g id="XMLID_11258_" class="st1">
			<path id="XMLID_11295_" class="st5" d="M46.4,38.3c-1.4,1.5-2.7,2.9-4,4.1c-3.6,3.6-8,7.6-12.7,11.4c6.4,0.7,13-1.5,17.8-6.3
				C49.2,45.9,48.6,42.5,46.4,38.3z"/>
			<path id="XMLID_11291_" class="st5" d="M18.8,18.8c-3.2,3.2-4.9,7.2-5.3,11.4c-0.2,1.7-0.1,3.3,0.2,5c0.6,3.3,2,6.5,4.4,9.2
				c2-0.4,8-3.7,15.3-11c1.9-1.9,3.6-3.8,5-5.5C30.5,20,21.7,15.9,18.8,18.8z"/>
			<path id="XMLID_23_" class="st5" d="M51.8,35.2c-0.3,2.2-1,4.3-2.1,6.2c-0.3-0.9-0.6-1.8-1.1-2.7C49.8,37.5,50.8,36.3,51.8,35.2
				 M53.9,29.7c-2.5,3-5,5.9-7.5,8.6c2.2,4.1,2.8,7.6,1.2,9.2C52.4,42.7,54.6,36.1,53.9,29.7L53.9,29.7z"/>
			<path id="XMLID_10_" class="st5" d="M32,15.3c1,0,1.9,0.1,2.9,0.2c2.7,0.5,5.2,1.6,7.3,3.2c-0.6,1.3-1.9,3.5-4,6.3
				c-4.4-4.1-9-7.1-12.9-8.4c1.6-0.7,3.3-1.1,5.1-1.3C30.9,15.3,31.5,15.3,32,15.3 M32,13.4c-0.6,0-1.2,0-1.8,0.1
				c-4.2,0.4-8.2,2.2-11.4,5.3c0.6-0.6,1.5-0.9,2.7-0.9c4,0,10.7,3.8,16.9,10c3.8-4.7,5.7-8.3,6-9.8c-2.7-2.4-5.9-3.9-9.2-4.4
				C34.2,13.5,33.1,13.4,32,13.4L32,13.4z"/>
		</g>
	</g>
	<g id="Stats" class="st0">
		<rect id="XMLID_7264_" x="10.4" y="33.2" class="st6" width="10.5" height="30.8"/>
		<rect id="XMLID_7263_" x="43.2" y="40.9" class="st6" width="10.5" height="23.1"/>
		<rect id="XMLID_7262_" x="26.6" class="st6" width="10.5" height="64"/>
	</g>
	<g id="Planet_2" class="st0">
		<g id="XMLID_257_" class="st1">
			<path id="XMLID_258_" class="st5" d="M0,32c0,17.6,14.3,31.9,31.9,31.9c0,0,0.1,0.1,0.1,0.1l0,0h0c17.7,0,32-14.4,32-32
				S49.6,0,32,0l0,0l0,0c0,0,0,0-0.1,0.1c-12.1,0-22.6,6.8-28,16.7c-0.2,0.5-0.5,0.9-0.7,1.4C1.1,22.3,0,27,0,32L0,32L0,32z
				 M22.5,32c0-2,0.1-4,0.4-5.9l0.3-2.1l0,0l-1.6-1.4c-0.6-0.5-1-1.3-1-2.1c0-1.3,1-2.5,2.3-2.7l2.1-0.3l0.8-2
				c2.5-5.9,5.9-9.7,7.7-11.5C48.4,4.8,60,17.1,60,32c0,14.9-11.7,27.2-26.6,28C30.8,57.5,22.5,48,22.5,32z M8.8,17.3
				c1.8,0,3.2,1.4,3.2,3.2c0,1.8-1.4,3.2-3.2,3.2c-1.1,0-2.1-0.6-2.7-1.4c-0.3-0.5-0.5-1.1-0.5-1.8c0-0.7,0.2-1.3,0.5-1.8
				C6.7,17.8,7.7,17.3,8.8,17.3z M10.9,32c3.7,0,6.6,3.6,6.6,8c0,1.7-0.4,3.2-1.1,4.5c-0.1,0.2-0.2,0.4-0.4,0.6
				c-0.3,0.4-0.6,0.8-0.9,1.1c-0.2,0.2-0.3,0.3-0.5,0.5c-0.3,0.2-0.6,0.4-0.9,0.6c-0.8,0.5-1.8,0.8-2.8,0.8c-0.7,0-1.3-0.1-2-0.4
				c-0.2-0.1-0.4-0.2-0.6-0.3c-0.4-0.2-0.8-0.5-1.1-0.7c-0.2-0.1-0.3-0.3-0.5-0.5c-0.3-0.3-0.6-0.7-0.9-1.1
				c-0.1-0.2-0.3-0.4-0.4-0.6c-0.7-1.3-1.1-2.8-1.1-4.5C4.3,35.6,7.2,32,10.9,32z"/>
		</g>
	</g>
	<g id="Logout" class="st0">
		<path id="XMLID_40_" class="st4" d="M32,36.2c3.1,0,5.5-2.5,5.5-5.5V5.5C37.5,2.5,35.1,0,32,0c-3.1,0-5.5,2.5-5.5,5.5v25.1
			C26.5,33.7,28.9,36.2,32,36.2z"/>
		<path id="XMLID_58_" class="st4" d="M41.1,10v8.8c6.3,3.3,10.5,9.9,10.5,17.4c0,10.9-8.8,19.7-19.7,19.7s-19.7-8.8-19.7-19.7
			c0-7.5,4.3-14.1,10.5-17.4V10C12,13.7,4.2,24.1,4.2,36.2C4.2,51.6,16.7,64,32,64c15.3,0,27.8-12.4,27.8-27.8
			C59.8,24.1,52,13.7,41.1,10z"/>
	</g>
	<path id="Ship" class="st7" d="M64,55.7L38.8,31.4c0.1,1.7,0.2,3.5,0.3,5.4c0,0.3,0,0.5,0,0.8v2.2v4.7c0-0.1,0-0.2,0-0.3
		c0-5.1-1.4-7.3-2.8-14.8c0,0,0,0,0,0c0-0.1,0-0.3,0-0.4C35.7,20.4,34.5,7.8,33,3.8c-0.3-0.4-1-2.5-1-2.5s-0.6,2.1-0.9,2.4
		c-1.5,3.8-2.7,16.4-3.4,25.2c0,0.1,0,0.3,0,0.4c0,0,0,0,0,0c-1.6,8.5-2.8,9.7-2.8,14.8c0,0.1,0,0.2,0,0.3v-4.2v-2.2
		c0-0.3,0-0.5,0-0.8c0.1-2.1,0.2-4.1,0.4-5.9L0.1,55.7l7.8,3.4l-0.1-3l17-7.3v6.6c0,0.6,0.1,1.2,0.2,1.8c0.9,3.6,7,5.4,7,5.4
		s6-1.8,6.9-5.4l0-0.2c0.2-0.6,0.2-1.2,0.2-1.8v-6.4l17,7.3l-0.1,3L64,55.7z M35,44.5c-0.1,1-0.2,1.8-0.3,2.5
		c-0.5,2.1-1.5,2.7-2.7,2.7c-1.2,0-2.2-0.6-2.7-2.7c-0.2-0.7-0.3-1.5-0.3-2.5c0-0.4,0-0.8,0-1.3c0-5.2,1.4-12.8,3.1-12.8
		c1.7,0,3.1,7.7,3.1,12.8C35.1,43.7,35.1,44.1,35,44.5z"/>
	<g id="Lot" class="st0">
		<polygon id="XMLID_25579_" class="st8" points="6.5,14.7 32,29.5 57.5,14.7 32,0 		"/>
		<polygon id="XMLID_25578_" class="st8" points="3.6,49.3 29.1,64 29.1,34.5 3.6,19.8 		"/>
		<polygon id="XMLID_25577_" class="st8" points="60.4,19.8 34.9,34.5 34.9,64 60.4,49.3 		"/>
	</g>
	<polygon id="Arrow" class="st9" points="64,32 43.7,11.7 48.5,27.8 0,27.8 0,36.2 48.5,36.2 43.7,52.3 	"/>
	<path id="Time" class="st10" d="M42.2,27.1v-3.6C48.6,19.9,53,16.1,53,8.3V6.7h4V0h-4H11H7v6.7h4v1.5c0,7.9,4.4,11.6,10.7,15.2v3.6
		c2.6,0,4.8,2.1,4.8,4.8c0,2.6-2.1,4.8-4.8,4.8v3.9c-6.4,3.6-10.8,7.4-10.8,15.3v1.5H7V64h4h42H57v-6.7h-4.1v-1.5
		c0-7.8-4.3-11.6-10.7-15.2v-3.9c-2.6,0-4.8-2.1-4.8-4.8C37.5,29.2,39.6,27.1,42.2,27.1z"/>
	<g id="Discount" class="st0">
		<g id="XMLID_36511_" class="st1">
			<path id="XMLID_36790_" class="st11" d="M49.5,35.9c-7.5,0-13.5,6.1-13.5,13.5C35.9,56.9,42,63,49.5,63S63,56.9,63,49.5
				C63,42,56.9,35.9,49.5,35.9z"/>
			
				<rect id="XMLID_36789_" x="-8.4" y="27.1" transform="matrix(0.7071 -0.7071 0.7071 0.7071 -13.2548 32)" class="st11" width="80.8" height="9.7"/>
			<path id="XMLID_36515_" class="st11" d="M14.5,28.1c7.5,0,13.5-6.1,13.5-13.5S22,1,14.5,1S1,7.1,1,14.5S7.1,28.1,14.5,28.1z"/>
		</g>
	</g>
	<path id="XMLID_37111_" class="st10" d="M32,0C14.3,0,0,14.3,0,32s14.3,32,32,32c17.7,0,32-14.3,32-32S49.7,0,32,0z M45.9,50.6
		L32,43.3l-13.9,7.3l2.7-15.5l-11.3-11L25,21.8l7-14.1l7,14.1l15.6,2.3l-11.3,11L45.9,50.6z"/>
	<path id="XMLID_37114_" class="st10" d="M44,40.5c5.1-4.1,8.4-10.6,8.4-18.1C52.4,10,43.3,0,32,0C20.7,0,11.6,10,11.6,22.4
		c0,7.4,3.3,14,8.4,18.1c-6.6,1-12.5,2.9-17.5,5.5V64H32h29.6V45.9C56.5,43.4,50.6,41.5,44,40.5z"/>
	<g id="Ship_2" class="st0">
		<polygon id="XMLID_20975_" class="st8" points="46.8,43.1 32,3.5 17.2,43.1 0,33.6 10.6,60.5 21.8,55.6 32,60.5 42.2,55.6 
			53.4,60.5 64,33.6 		"/>
	</g>
	<g id="Race" class="st0">
		<g id="XMLID_127_" class="st1">
			<path id="XMLID_132_" class="st12" d="M32,2.6c9.9,0,17.9,8.9,17.9,19.8c0,6.3-2.8,12.3-7.5,16.1l1.2,4.5
				c5.5,0.9,10.8,2.4,15.4,4.5v13.9H32H5V47.5c4.6-2.1,9.8-3.7,15.4-4.5l1.2-4.5c-4.7-3.7-7.5-9.7-7.5-16.1
				C14.1,11.5,22.1,2.6,32,2.6 M32,0C20.7,0,11.6,10,11.6,22.4c0,7.4,3.3,14,8.4,18.1c-6.6,1-12.5,2.9-17.5,5.5V64H32h29.6V45.9
				c-5-2.5-11-4.4-17.5-5.5c5.1-4.1,8.4-10.6,8.4-18.1C52.4,10,43.3,0,32,0L32,0z"/>
		</g>
	</g>
	<g id="Money_2_" class="st0">
		<g id="XMLID_278_" class="st1">
			<g id="XMLID_282_">
				<path id="XMLID_286_" class="st5" d="M43.8,29.7h-8.1v5.7h5.9v6.5h-5.9v11.7C46,51.8,53.9,42.8,53.9,32c0-5-1.7-9.5-4.5-13.2
					L43.8,29.7z"/>
				<path id="XMLID_285_" class="st5" d="M23.4,41.9l-3.9,8c2.4,1.7,5.2,2.9,8.2,3.5V41.9H23.4z"/>
				<path id="XMLID_284_" class="st5" d="M27.7,35.4v-5.7h-5.9v-6.5h5.9V10.6c-10,2-17.5,10.8-17.5,21.4c0,4.9,1.7,9.5,4.4,13.1
					l4.9-9.7H27.7z"/>
				<path id="XMLID_283_" class="st5" d="M39.9,23.2l4.6-9.1c-2.6-1.8-5.6-3.1-8.9-3.6v12.7H39.9z"/>
			</g>
			<path id="XMLID_279_" class="st5" d="M32,64C14.4,64,0,49.6,0,32S14.4,0,32,0s32,14.4,32,32S49.6,64,32,64z M32,4.2
				C16.7,4.2,4.2,16.7,4.2,32S16.7,59.8,32,59.8S59.8,47.3,59.8,32S47.3,4.2,32,4.2z"/>
		</g>
	</g>
	<path id="Money_3_" class="st7" d="M32,4.2C16.7,4.2,4.2,16.7,4.2,32c0,15.3,12.5,27.8,27.8,27.8S59.8,47.3,59.8,32
		C59.8,16.7,47.3,4.2,32,4.2z M27.7,53.4c-3-0.6-5.8-1.8-8.2-3.5l3.9-8h4.3V53.4z M27.7,23.2h-5.9v6.5h5.9v5.7h-8.1l-4.9,9.7
		c-2.8-3.7-4.4-8.2-4.4-13.1c0-10.6,7.5-19.4,17.5-21.4V23.2z M35.7,10.5c3.3,0.5,6.3,1.8,8.9,3.6l-4.6,9.1h-4.3V10.5z M35.7,53.5
		V41.9h5.9v-6.5h-5.9v-5.7h8.1l5.6-10.9c2.8,3.7,4.5,8.2,4.5,13.2C53.9,42.8,46,51.8,35.7,53.5z"/>
	<g id="Star">
		<circle id="XMLID_5161_" class="st12" cx="32" cy="32" r="14.5"/>
		<polygon id="XMLID_5159_" class="st12" points="52.6,37.7 64,32 52.6,26.3 		"/>
		<polygon id="XMLID_5158_" class="st12" points="26.3,52.6 32,64 37.7,52.6 		"/>
		<polygon id="XMLID_5157_" class="st12" points="11.4,26.3 0,32 11.4,37.7 		"/>
		<polygon id="XMLID_5156_" class="st12" points="37.7,11.4 32,0 26.3,11.4 		"/>
		<polygon id="XMLID_5155_" class="st12" points="50.6,18.4 53.1,10.9 45.6,13.4 		"/>
		<polygon id="XMLID_5141_" class="st12" points="18.4,13.4 10.9,10.9 13.4,18.4 		"/>
		<polygon id="XMLID_5139_" class="st12" points="13.4,45.6 10.9,53.1 18.4,50.6 		"/>
		<polygon id="XMLID_5138_" class="st12" points="45.6,50.6 53.1,53.1 50.6,45.6 		"/>
	</g>
</g>
<g id="Forme" class="st0">
	<polygon id="XMLID_5201_" class="st13" points="16,59.7 0,32 16,4.3 48,4.3 64,32 48,59.7 	"/>
</g>
<g id="Lock_64">
	<path id="XMLID_1_" class="st13" d="M0,64"/>
	<path id="XMLID_4_" class="st13" d="M64,64"/>
	<path id="XMLID_5_" class="st13" d="M0,0"/>
	<path id="XMLID_6_" class="st13" d="M64,0"/>
</g>
<g id="Nomenclature" class="st0">
	<rect id="XMLID_14_" x="-32.9" y="-27.8" class="st14" width="123.4" height="30.3"/>
	<text id="XMLID_19_" transform="matrix(1 0 0 1 -2.2534 -22.8499)" class="st1 st15 st16">G_P_Mon_OL_BK_64</text>
	<rect id="XMLID_57_" x="-78.9" y="-18.8" class="st14" width="215.2" height="7.9"/>
	<text id="XMLID_45_" transform="matrix(1 0 0 1 -29.2627 -13.8328)" class="st1 st15 st16">GUI_Picto_Money_OutLine_Black_64px</text>
	<rect id="XMLID_67_" x="-78.9" y="-43.7" class="st14" width="215.2" height="7.9"/>
	<text id="XMLID_61_" transform="matrix(1 0 0 1 -49.3491 -38.7775)" class="st1 st15 st16">Catégorie_Asset_[Caractéristique]_[Couleur]_[Format</text>
</g>
</svg>
